SplineFontDB: 3.0
FontName: GruppoX
FullName: GruppoX
FamilyName: GruppoX
Weight: Light
Copyright: Copyright (c) 2010 by copyright \\(c\\) vernon adams. All rights reserved.
Version: 1.000
ItalicAngle: 0
UnderlinePosition: -232
UnderlineWidth: 41
Ascent: 1638
Descent: 410
sfntRevision: 0x00010000
LayerCount: 2
Layer: 0 1 "Back"  1
Layer: 1 1 "Fore"  0
XUID: [1021 332 469972825 11818403]
FSType: 0
OS2Version: 2
OS2_WeightWidthSlopeOnly: 0
OS2_UseTypoMetrics: 1
CreationTime: 1292428925
ModificationTime: 1292429316
PfmFamily: 17
TTFWeight: 250
TTFWidth: 5
LineGap: 22
VLineGap: 0
Panose: 2 0 6 4 6 0 0 2 0 4
OS2TypoAscent: -524
OS2TypoAOffset: 1
OS2TypoDescent: 72
OS2TypoDOffset: 1
OS2TypoLinegap: 88
OS2WinAscent: 1
OS2WinAOffset: 1
OS2WinDescent: 188
OS2WinDOffset: 1
HheadAscent: 1
HheadAOffset: 1
HheadDescent: 168
HheadDOffset: 1
OS2SubXSize: 1434
OS2SubYSize: 1331
OS2SubXOff: 0
OS2SubYOff: 287
OS2SupXSize: 1434
OS2SupYSize: 1331
OS2SupXOff: 0
OS2SupYOff: 977
OS2StrikeYSize: 102
OS2StrikeYPos: 512
OS2Vendor: '    '
OS2CodePages: 00000013.00000000
OS2UnicodeRanges: a000002f.0000004a.00000000.00000000
Lookup: 1 0 0 "'onum' Oldstyle Figures in Latin lookup 0"  {"'onum' Oldstyle Figures in Latin lookup 0 subtable" ("oldstyle" ) } ['onum' ('latn' <'dflt' > ) ]
Lookup: 4 0 1 "'liga' Standard Ligatures in Latin lookup 1"  {"'liga' Standard Ligatures in Latin lookup 1 subtable"  } ['liga' ('latn' <'dflt' > ) ]
Lookup: 258 0 0 "'kern' Horizontal Kerning in Latin lookup 0"  {"'kern' Horizontal Kerning in Latin lookup 0 subtable"  } ['kern' ('latn' <'dflt' > ) ]
MarkAttachClasses: 1
DEI: 91125
TtTable: prep
PUSHW_1
 511
SCANCTRL
PUSHB_1
 1
SCANTYPE
SVTCA[y-axis]
MPPEM
PUSHB_1
 8
LT
IF
PUSHB_2
 1
 1
INSTCTRL
EIF
PUSHB_2
 70
 6
CALL
IF
POP
PUSHB_1
 16
EIF
MPPEM
PUSHB_1
 20
GT
IF
POP
PUSHB_1
 128
EIF
SCVTCI
PUSHB_1
 6
CALL
NOT
IF
SVTCA[y-axis]
PUSHB_1
 4
DUP
RCVT
PUSHB_1
 3
CALL
WCVTP
PUSHB_1
 6
DUP
RCVT
PUSHB_3
 4
 171
 2
CALL
PUSHB_1
 3
CALL
WCVTP
PUSHB_1
 5
DUP
RCVT
PUSHB_3
 6

StartChar: Lslash
Encoding: 321 321 5
Width: 1141
Flags: W
HStem: 0 70<342 1140.99> 1094 20G<295.5 322>
VStem: 271 71<70 584 688 1113.92>
DStem2: 37 563 58 500 0.925679 0.378309<0 224.553 329.621 715.934>
LayerCount: 2
Fore
SplineSet
37 563 m 1,0,-1
 271 657 l 1,1,-1
 271 1044 l 2,2,3
 271 1075 271 1075 276 1094.5 c 128,-1,4
 281 1114 281 1114 310 1114 c 0,5,6
 334 1114 334 1114 338 1093.5 c 128,-1,7
 342 1073 342 1073 342 1044 c 2,8,-1
 342 688 l 1,9,-1
 705 836 l 1,10,-1
 725 772 l 1,11,-1
 342 612 l 1,12,-1
 342 70 l 1,13,-1
 1070 70 l 2,14,15
 1099 70 1099 70 1120 65.5 c 128,-1,16
 1141 61 1141 61 1141 35 c 256,17,18
 1141 9 1141 9 1120 4.5 c 128,-1,19
 1099 0 1099 0 1070 0 c 2,20,-1
 310 0 l 2,21,22
 295 0 295 0 287.5 1 c 128,-1,23
 280 2 280 2 276 8 c 128,-1,24
 272 14 272 14 271.5 28.5 c 128,-1,25
 271 43 271 43 271 70 c 2,26,-1
 271 584 l 1,27,-1
 58 500 l 1,28,-1
 37 563 l 1,0,-1
EndSplineSet
EndChar

StartChar: lslash
Encoding: 322 322 6
Width: 572
Flags: W
HStem: 766 20G<516 552.349> 1094 20G<272 285.5>
VStem: 243 71<12.8298 584 688 1108.84>
DStem2: 9 553 28 489 0.917016 0.398851<0 226.946 333.535 578.582>
LayerCount: 2
Fore
SplineSet
378 639 m 0,0,1
 361 631 361 631 346 625 c 128,-1,2
 331 619 331 619 314 612 c 1,3,-1
 314 72 l 2,4,5
 314 57 314 57 313.5 44.5 c 128,-1,6
 313 32 313 32 309.5 22.5 c 128,-1,7
 306 13 306 13 299 7.5 c 128,-1,8
 292 2 292 2 279 2 c 0,9,10
 261 2 261 2 253 12.5 c 128,-1,11
 245 23 245 23 242.5 40.5 c 128,-1,12
 240 58 240 58 241.5 81 c 128,-1,13
 243 104 243 104 243 129 c 2,14,-1
 243 584 l 1,15,-1
 28 489 l 1,16,-1
 9 553 l 1,17,-1
 243 657 l 1,18,-1
 243 1044 l 2,19,20
 243 1059 243 1059 243.5 1072 c 128,-1,21
 244 1085 244 1085 247 1094.5 c 128,-1,22
 250 1104 250 1104 257.5 1109 c 128,-1,23
 265 1114 265 1114 279 1114 c 0,24,25
 292 1114 292 1114 299 1108.5 c 128,-1,26
 306 1103 306 1103 309.5 1093.5 c 128,-1,27
 313 1084 313 1084 313.5 1071.5 c 128,-1,28
 314 1059 314 1059 314 1044 c 2,29,-1
 314 688 l 1,30,31
 374 713 374 713 430 737.5 c 128,-1,32
 486 762 486 762 546 786 c 1,33,-1
 566 723 l 1,34,35
 518 700 518 700 472 679.5 c 128,-1,36
 426 659 426 659 378 639 c 0,0,1
EndSplineSet
EndChar

StartChar: Thorn
Encoding: 222 222 11
Width: 921
Flags: W
HStem: 0 21G<120.5 147> 264 66<174 677.021> 828 66<174 672.698> 1090 20G<120.5 147>
VStem: 89 85<0.0917969 264 330 828 894 1109.91> 838 80<439.955 714.341>
LayerCount: 2
Fore
SplineSet
174 264 m 1,0,-1
 174 76 l 2,1,2
 174 47 174 47 166.5 23.5 c 128,-1,3
 159 0 159 0 135 0 c 0,4,5
 106 0 106 0 97.5 22.5 c 128,-1,6
 89 45 89 45 89 76 c 2,7,-1
 89 1034 l 2,8,9
 89 1065 89 1065 97.5 1087.5 c 128,-1,10
 106 1110 106 1110 135 1110 c 0,11,12
 159 1110 159 1110 166.5 1086.5 c 128,-1,13
 174 1063 174 1063 174 1034 c 2,14,-1
 174 894 l 1,15,-1
 422 894 l 2,16,17
 575 894 575 894 671.5 866.5 c 128,-1,18
 768 839 768 839 823 794 c 128,-1,19
 878 749 878 749 898 692 c 128,-1,20
 918 635 918 635 918 575 c 0,21,22
 918 516 918 516 898.5 460.5 c 128,-1,23
 879 405 879 405 825 361 c 128,-1,24
 771 317 771 317 674 290.5 c 128,-1,25
 577 264 577 264 422 264 c 2,26,-1
 174 264 l 1,0,-1
174 330 m 1,27,-1
 422 330 l 2,28,29
 557 330 557 330 639 351 c 128,-1,30
 721 372 721 372 765 406.5 c 128,-1,31
 809 441 809 441 823.5 485.5 c 128,-1,32
 838 530 838 530 838 576 c 0,33,34
 838 623 838 623 823 668.5 c 128,-1,35
 808 714 808 714 763 749.5 c 128,-1,36
 718 785 718 785 636.5 806.5 c 128,-1,37
 555 828 555 828 422 828 c 2,38,-1
 174 828 l 1,39,-1
 174 330 l 1,27,-1
EndSplineSet
EndChar

StartChar: thorn
Encoding: 254 254 12
Width: 1065
Flags: W
HStem: -337 21G<120.5 135.5> -10 59<375.137 810.072> 727 59<387.016 799.484> 1090 20G<119 134.5>
VStem: 89 80<-330.296 78 125.85 1101.23> 982 80<193.917 577.125>
DStem2: 310 94 307 34 0.971684 -0.236284<-131.097 308.302>
LayerCount: 2
Fore
SplineSet
619 786 m 0,0,1
 709 786 709 786 789.5 766 c 128,-1,2
 870 746 870 746 930.5 700 c 128,-1,3
 991 654 991 654 1026.5 579.5 c 128,-1,4
 1062 505 1062 505 1062 396 c 0,5,6
 1062 286 1062 286 1032.5 208.5 c 128,-1,7
 1003 131 1003 131 946.5 82.5 c 128,-1,8
 890 34 890 34 807.5 12 c 128,-1,9
 725 -10 725 -10 619 -10 c 0,10,11
 531 -10 531 -10 450.5 3.5 c 128,-1,12
 370 17 370 17 307 34 c 0,13,14
 233 53 233 53 169 78 c 1,15,-1
 167 -267 l 2,16,17
 167 -280 167 -280 166.5 -292.5 c 128,-1,18
 166 -305 166 -305 162 -315 c 128,-1,19
 158 -325 158 -325 150.5 -331 c 128,-1,20
 143 -337 143 -337 128 -337 c 256,21,22
 113 -337 113 -337 105.5 -330.5 c 128,-1,23
 98 -324 98 -324 94 -313.5 c 128,-1,24
 90 -303 90 -303 89.5 -289.5 c 128,-1,25
 89 -276 89 -276 89 -261 c 2,26,-1
 89 1061 l 2,27,28
 89 1093 89 1093 100.5 1101.5 c 128,-1,29
 112 1110 112 1110 126 1110 c 0,30,31
 143 1110 143 1110 153.5 1101.5 c 128,-1,32
 164 1093 164 1093 164 1061 c 2,33,-1
 164 594 l 1,34,35
 175 637 175 637 204 667.5 c 128,-1,36
 233 698 233 698 271.5 719.5 c 128,-1,37
 310 741 310 741 356.5 754 c 128,-1,38
 403 767 403 767 449.5 774 c 128,-1,39
 496 781 496 781 540 783.5 c 128,-1,40
 584 786 584 786 619 786 c 0,0,1
619 727 m 1,41,42
 559 726 559 726 488 717.5 c 128,-1,43
 417 709 417 709 352 687 c 128,-1,44
 287 665 287 665 237 626 c 128,-1,45
 187 587 187 587 169 524 c 1,46,-1
 169 140 l 1,47,48
 236 114 236 114 310 94 c 0,49,50
 373 77 373 77 453.5 63 c 128,-1,51
 534 49 534 49 619 49 c 0,52,53
 715 49 715 49 783.5 69 c 128,-1,54
 852 89 852 89 896.5 131.5 c 128,-1,55
 941 174 941 174 961.5 239.5 c 128,-1,56
 982 305 982 305 982 396 c 0,57,58
 982 490 982 490 953.5 554 c 128,-1,59
 925 618 925 618 876 656 c 128,-1,60
 827 694 827 694 760.5 710.5 c 128,-1,61
 694 727 694 727 619 727 c 1,41,42
EndSplineSet
EndChar

StartChar: uni00B3
Encoding: 179 179 17
Width: 712
Flags: W
HStem: 270 69<138.92 501.892> 681 64<216.768 443.757> 1057 59<158.961 489.495>
VStem: 56 52<1008.25 1017.68> 560 63<390.845 486.688 822.665 999.341> 581 67<407.941 597.198>
LayerCount: 2
Fore
SplineSet
108 1003 m 0,0,1
 97 1000 97 1000 89 1000 c 0,2,3
 73 1000 73 1000 64.5 1008 c 128,-1,4
 56 1016 56 1016 56 1027 c 0,5,6
 56 1037 56 1037 64 1046.5 c 128,-1,7
 72 1056 72 1056 89 1061 c 1,8,9
 115 1076 115 1076 151 1088 c 0,10,11
 182 1099 182 1099 226.5 1107.5 c 128,-1,12
 271 1116 271 1116 329 1116 c 0,13,14
 410 1116 410 1116 466 1099.5 c 128,-1,15
 522 1083 522 1083 557 1055.5 c 128,-1,16
 592 1028 592 1028 607.5 992.5 c 128,-1,17
 623 957 623 957 623 919 c 0,18,19
 623 889 623 889 615 859 c 128,-1,20
 607 829 607 829 586.5 802 c 128,-1,21
 566 775 566 775 530 752.5 c 128,-1,22
 494 730 494 730 438 715 c 1,23,24
 501 698 501 698 541.5 673 c 128,-1,25
 582 648 582 648 605.5 618 c 128,-1,26
 629 588 629 588 638.5 555 c 128,-1,27
 648 522 648 522 648 488 c 0,28,29
 648 446 648 446 630.5 406.5 c 128,-1,30
 613 367 613 367 575 337 c 128,-1,31
 537 307 537 307 476.5 288.5 c 128,-1,32
 416 270 416 270 329 270 c 0,33,34
 271 270 271 270 226.5 278 c 128,-1,35
 182 286 182 286 151 297 c 0,36,37
 115 309 115 309 89 325 c 1,38,39
 66 334 66 334 55.5 345.5 c 128,-1,40
 45 357 45 357 45 368 c 256,41,42
 45 379 45 379 54.5 386.5 c 128,-1,43
 64 394 64 394 81 394 c 0,44,45
 94 394 94 394 107 389 c 1,46,47
 131 375 131 375 164 364 c 0,48,49
 192 354 192 354 233.5 346.5 c 128,-1,50
 275 339 275 339 329 339 c 0,51,52
 402 339 402 339 450.5 353 c 128,-1,53
 499 367 499 367 528 389.5 c 128,-1,54
 557 412 557 412 569 441.5 c 128,-1,55
 581 471 581 471 581 502 c 0,56,57
 581 535 581 535 566.5 567 c 128,-1,58
 552 599 552 599 519.5 624.5 c 128,-1,59
 487 650 487 650 434 665.5 c 128,-1,60
 381 681 381 681 304 681 c 2,61,-1
 243 681 l 2,62,63
 225 681 225 681 216.5 691 c 128,-1,64
 208 701 208 701 208 713 c 256,65,66
 208 725 208 725 216.5 735 c 128,-1,67
 225 745 225 745 243 745 c 2,68,-1
 304 745 l 2,69,70
 376 745 376 745 425 759.5 c 128,-1,71
 474 774 474 774 504 798 c 128,-1,72
 534 822 534 822 547 852 c 128,-1,73
 560 882 560 882 560 912 c 0,74,75
 560 940 560 940 550 966 c 128,-1,76
 540 992 540 992 515 1012 c 128,-1,77
 490 1032 490 1032 447 1044.5 c 128,-1,78
 404 1057 404 1057 339 1057 c 0,79,80
 284 1057 284 1057 241 1049 c 128,-1,81
 198 1041 198 1041 168.5 1031 c 128,-1,82
 139 1021 139 1021 123.5 1012.5 c 128,-1,83
 108 1004 108 1004 108 1003 c 0,0,1
EndSplineSet
EndChar

StartChar: brokenbar
Encoding: 166 166 19
Width: 258
Flags: W
VStem: 89 72<-126.92 544.928 625.078 1290.33>
LayerCount: 2
Fore
SplineSet
161 694 m 2,0,1
 161 665 161 665 157 645 c 128,-1,2
 153 625 153 625 128 625 c 0,3,4
 113 625 113 625 105.5 630.5 c 128,-1,5
 98 636 98 636 94 645.5 c 128,-1,6
 90 655 90 655 89.5 667 c 128,-1,7
 89 679 89 679 89 692 c 2,8,-1
 89 1225 l 2,9,10
 89 1240 89 1240 89.5 1252.5 c 128,-1,11
 90 1265 90 1265 94 1275 c 128,-1,12
 98 1285 98 1285 105.5 1290.5 c 128,-1,13
 113 1296 113 1296 128 1296 c 0,14,15
 140 1296 140 1296 147 1290 c 128,-1,16
 154 1284 154 1284 157 1274.5 c 128,-1,17
 160 1265 160 1265 160.5 1252.5 c 128,-1,18
 161 1240 161 1240 161 1227 c 2,19,-1
 161 694 l 2,0,1
161 -57 m 2,20,21
 161 -86 161 -86 157 -106.5 c 128,-1,22
 153 -127 153 -127 128 -127 c 0,23,24
 113 -127 113 -127 105.5 -121.5 c 128,-1,25
 98 -116 98 -116 94 -106.5 c 128,-1,26
 90 -97 90 -97 89.5 -84.5 c 128,-1,27
 89 -72 89 -72 89 -59 c 2,28,-1
 89 473 l 2,29,30
 89 488 89 488 89.5 501 c 128,-1,31
 90 514 90 514 94 523.5 c 128,-1,32
 98 533 98 533 105.5 539 c 128,-1,33
 113 545 113 545 128 545 c 0,34,35
 140 545 140 545 147 539 c 128,-1,36
 154 533 154 533 157 523 c 128,-1,37
 160 513 160 513 160.5 500.5 c 128,-1,38
 161 488 161 488 161 475 c 2,39,-1
 161 -57 l 2,20,21
EndSplineSet
EndChar

StartChar: minus
Encoding: 8722 8722 20
Width: 825
Flags: W
HStem: 348 70<92.1885 732.811>
VStem: 86 653<348.5 403.264>
LayerCount: 2
Fore
SplineSet
158 348 m 2,0,1
 143 348 143 348 130 348.5 c 128,-1,2
 117 349 117 349 107.5 352 c 128,-1,3
 98 355 98 355 92 362 c 128,-1,4
 86 369 86 369 86 381 c 0,5,6
 86 396 86 396 92 403.5 c 128,-1,7
 98 411 98 411 108 414 c 128,-1,8
 118 417 118 417 130.5 417.5 c 128,-1,9
 143 418 143 418 156 418 c 2,10,-1
 664 418 l 2,11,12
 679 418 679 418 692.5 417.5 c 128,-1,13
 706 417 706 417 716.5 414 c 128,-1,14
 727 411 727 411 733 403.5 c 128,-1,15
 739 396 739 396 739 381 c 0,16,17
 739 369 739 369 733 362 c 128,-1,18
 727 355 727 355 717 352 c 128,-1,19
 707 349 707 349 694 348.5 c 128,-1,20
 681 348 681 348 666 348 c 2,21,-1
 158 348 l 2,0,1
EndSplineSet
EndChar

StartChar: multiply
Encoding: 215 215 21
Width: 649
Flags: W
HStem: 250 465<521 541>
VStem: 84 481
DStem2: 158.5 691.5 118 631 0.722578 -0.691289<-46.7277 227.592 301.295 573.031> 123 338 200 315 0.719283 0.694717<-65.9557 209.346 282.713 554.453>
LayerCount: 2
Fore
SplineSet
323 434 m 1,0,-1
 200 315 l 2,1,2
 192 307 192 307 181 295.5 c 128,-1,3
 170 284 170 284 158.5 274.5 c 128,-1,4
 147 265 147 265 135.5 258 c 128,-1,5
 124 251 124 251 114 252 c 1,6,7
 102 252 102 252 93 263.5 c 128,-1,8
 84 275 84 275 84 283 c 0,9,10
 84 297 84 297 95 310.5 c 128,-1,11
 106 324 106 324 123 338 c 1,12,-1
 274 483 l 1,13,-1
 204 549 l 1,14,-1
 118 631 l 1,15,16
 101 645 101 645 91.5 657.5 c 128,-1,17
 82 670 82 670 82 682 c 256,18,19
 82 694 82 694 93.5 704.5 c 128,-1,20
 105 715 105 715 116 715 c 0,21,22
 126 715 126 715 137 708 c 128,-1,23
 148 701 148 701 158.5 691.5 c 128,-1,24
 169 682 169 682 179 671 c 128,-1,25
 189 660 189 660 198 651 c 2,26,-1
 323 532 l 1,27,-1
 448 651 l 2,28,29
 457 660 457 660 467.5 671 c 128,-1,30
 478 682 478 682 489 691.5 c 128,-1,31
 500 701 500 701 510.5 708 c 128,-1,32
 521 715 521 715 530 715 c 0,33,34
 541 715 541 715 553 704.5 c 128,-1,35
 565 694 565 694 565 682 c 0,36,37
 565 671 565 671 554.5 658 c 128,-1,38
 544 645 544 645 530 631 c 2,39,-1
 376 483 l 1,40,-1
 528 338 l 2,41,42
 542 324 542 324 552.5 310.5 c 128,-1,43
 563 297 563 297 563 285 c 0,44,45
 563 274 563 274 554 262 c 128,-1,46
 545 250 545 250 532 250 c 0,47,48
 520 250 520 250 505.5 261.5 c 128,-1,49
 491 273 491 273 477 287 c 2,50,-1
 323 434 l 1,0,-1
EndSplineSet
EndChar

StartChar: exclam
Encoding: 33 33 22
Width: 201
Flags: W
HStem: -10 115<62.5024 145.951> 1090 20G<91.5 113>
VStem: 46 118<5.98669 87.9821 747.995 1098.14> 78 49<228.736 614.224>
LayerCount: 2
Fore
SplineSet
46 1065 m 2,0,1
 46 1090 46 1090 63.5 1100 c 128,-1,2
 81 1110 81 1110 102 1110 c 0,3,4
 124 1110 124 1110 141.5 1098.5 c 128,-1,5
 159 1087 159 1087 159 1063 c 2,6,-1
 127 250 l 2,7,8
 126 236 126 236 119 228.5 c 128,-1,9
 112 221 112 221 102 221 c 0,10,11
 93 221 93 221 86 228.5 c 128,-1,12
 79 236 79 236 78 250 c 0,13,14
 70 453 70 453 64.5 592.5 c 128,-1,15
 59 732 59 732 55.5 822.5 c 128,-1,16
 52 913 52 913 50 962 c 128,-1,17
 48 1011 48 1011 47 1034 c 128,-1,18
 46 1057 46 1057 46 1061 c 128,-1,19
 46 1065 46 1065 46 1065 c 2,0,1
46 46 m 0,20,21
 46 72 46 72 62 88.5 c 128,-1,22
 78 105 78 105 104 105 c 0,23,24
 129 105 129 105 146.5 88.5 c 128,-1,25
 164 72 164 72 164 46 c 0,26,27
 164 21 164 21 146.5 5.5 c 128,-1,28
 129 -10 129 -10 104 -10 c 0,29,30
 78 -10 78 -10 62 5.5 c 128,-1,31
 46 21 46 21 46 46 c 0,20,21
EndSplineSet
EndChar

StartChar: numbersign
Encoding: 35 35 24
Width: 693
Flags: W
HStem: 0 21G<129.5 148 368.5 387> 353 66<30.0166 623.959> 650 67<69.0042 662.928> 1094 20G<308.5 328 548 567>
VStem: 30 633
DStem2: 113 57 179 58 0.161191 0.986923<-27.7159 1049.63> 352 57 418 58 0.162154 0.986765<-27.7144 1047.88>
LayerCount: 2
Fore
SplineSet
127 650 m 2,0,1
 103 650 103 650 86 656 c 128,-1,2
 69 662 69 662 69 683 c 0,3,4
 69 707 69 707 86 712 c 128,-1,5
 103 717 103 717 126 717 c 2,6,-1
 603 717 l 2,7,8
 627 717 627 717 645 711.5 c 128,-1,9
 663 706 663 706 663 681 c 0,10,11
 663 661 663 661 644.5 655.5 c 128,-1,12
 626 650 626 650 604 650 c 2,13,-1
 127 650 l 2,0,1
179 58 m 2,14,15
 175 34 175 34 166.5 17 c 128,-1,16
 158 0 158 0 138 0 c 0,17,18
 121 0 121 0 115.5 8 c 128,-1,19
 110 16 110 16 110 29 c 256,20,21
 110 42 110 42 113 57 c 2,22,-1
 276 1054 l 2,23,24
 280 1079 280 1079 288 1096.5 c 128,-1,25
 296 1114 296 1114 321 1114 c 0,26,27
 335 1114 335 1114 339.5 1105.5 c 128,-1,28
 344 1097 344 1097 344 1083 c 0,29,30
 344 1077 344 1077 343.5 1070 c 128,-1,31
 343 1063 343 1063 342 1056 c 2,32,-1
 179 58 l 2,14,15
418 58 m 2,33,34
 414 34 414 34 405.5 17 c 128,-1,35
 397 0 397 0 377 0 c 0,36,37
 360 0 360 0 354.5 8 c 128,-1,38
 349 16 349 16 349 29 c 256,39,40
 349 42 349 42 352 57 c 2,41,-1
 515 1054 l 2,42,43
 519 1079 519 1079 527.5 1096.5 c 128,-1,44
 536 1114 536 1114 560 1114 c 0,45,46
 574 1114 574 1114 579 1104.5 c 128,-1,47
 584 1095 584 1095 584 1081 c 0,48,49
 584 1075 584 1075 583.5 1069 c 128,-1,50
 583 1063 583 1063 582 1056 c 2,51,-1
 418 58 l 2,33,34
88 353 m 2,52,53
 64 353 64 353 47 359 c 128,-1,54
 30 365 30 365 30 385 c 0,55,56
 30 397 30 397 34.5 404 c 128,-1,57
 39 411 39 411 47 414.5 c 128,-1,58
 55 418 55 418 65.5 418.5 c 128,-1,59
 76 419 76 419 87 419 c 2,60,-1
 564 419 l 2,61,62
 588 419 588 419 606 413.5 c 128,-1,63
 624 408 624 408 624 384 c 0,64,65
 624 363 624 363 605.5 358 c 128,-1,66
 587 353 587 353 565 353 c 2,67,-1
 88 353 l 2,52,53
EndSplineSet
EndChar

StartChar: dollar
Encoding: 36 36 25
Width: 1399
Flags: W
HStem: -20 66<406.859 1059.01> 557 71<296.872 816.501> 971 65<1156.61 1250.2> 1069 66<347.014 995.089>
VStem: 43 85<724.623 938.783> 484 72<-132.988 1295.99> 819 72<-132.988 1295.99> 1275 85<183.623 422.859>
DStem2: 372.5 84.5 351 18.5 0.987273 -0.159034<-299.293 397.861> 561.5 628 476.5 557 0.996904 -0.078629<-355.189 634.388>
LayerCount: 2
Fore
SplineSet
1360 311 m 0,0,1
 1360 247 1360 247 1337 197.5 c 128,-1,2
 1314 148 1314 148 1273 111.5 c 128,-1,3
 1232 75 1232 75 1175.5 49.5 c 128,-1,4
 1119 24 1119 24 1053 8.5 c 128,-1,5
 987 -7 987 -7 912.5 -13.5 c 128,-1,6
 838 -20 838 -20 762 -20 c 0,7,8
 655 -20 655 -20 549 -9 c 128,-1,9
 443 2 443 2 351 18.5 c 128,-1,10
 259 35 259 35 188.5 54 c 128,-1,11
 118 73 118 73 82 90 c 0,12,13
 68 97 68 97 61.5 107.5 c 128,-1,14
 55 118 55 118 55 129 c 0,15,16
 55 141 55 141 61.5 149.5 c 128,-1,17
 68 158 68 158 81 158 c 0,18,19
 87 158 87 158 95 155 c 0,20,21
 134 139 134 139 207 120 c 128,-1,22
 280 101 280 101 372.5 84.5 c 128,-1,23
 465 68 465 68 569.5 57 c 128,-1,24
 674 46 674 46 777 46 c 0,25,26
 877 46 877 46 967 59 c 128,-1,27
 1057 72 1057 72 1125.5 103 c 128,-1,28
 1194 134 1194 134 1234.5 185 c 128,-1,29
 1275 236 1275 236 1275 311 c 0,30,31
 1275 374 1275 374 1240.5 414.5 c 128,-1,32
 1206 455 1206 455 1147 479.5 c 128,-1,33
 1088 504 1088 504 1009 516.5 c 128,-1,34
 930 529 930 529 841.5 535.5 c 128,-1,35
 753 542 753 542 659 545.5 c 128,-1,36
 565 549 565 549 476.5 557 c 128,-1,37
 388 565 388 565 309 580 c 128,-1,38
 230 595 230 595 171 624 c 128,-1,39
 112 653 112 653 77.5 699 c 128,-1,40
 43 745 43 745 43 815 c 0,41,42
 43 879 43 879 67 928 c 128,-1,43
 91 977 91 977 133 1012.5 c 128,-1,44
 175 1048 175 1048 232.5 1071.5 c 128,-1,45
 290 1095 290 1095 357.5 1109 c 128,-1,46
 425 1123 425 1123 499 1129 c 128,-1,47
 573 1135 573 1135 649 1135 c 0,48,49
 741 1135 741 1135 831.5 1126.5 c 128,-1,50
 922 1118 922 1118 1001 1104 c 128,-1,51
 1080 1090 1080 1090 1143 1072 c 128,-1,52
 1206 1054 1206 1054 1244 1036 c 0,53,54
 1252 1032 1252 1032 1256 1024.5 c 128,-1,55
 1260 1017 1260 1017 1260 1009 c 0,56,57
 1260 995 1260 995 1250.5 983 c 128,-1,58
 1241 971 1241 971 1224 971 c 0,59,60
 1215 971 1215 971 1207 975 c 0,61,62
 1154 997 1154 997 1089.5 1014.5 c 128,-1,63
 1025 1032 1025 1032 953 1044 c 128,-1,64
 881 1056 881 1056 804.5 1062.5 c 128,-1,65
 728 1069 728 1069 653 1069 c 0,66,67
 549 1069 549 1069 454 1057 c 128,-1,68
 359 1045 359 1045 286.5 1016.5 c 128,-1,69
 214 988 214 988 171 940.5 c 128,-1,70
 128 893 128 893 128 821 c 0,71,72
 128 766 128 766 162.5 731.5 c 128,-1,73
 197 697 197 697 256 676 c 128,-1,74
 315 655 315 655 394 644.5 c 128,-1,75
 473 634 473 634 561.5 628 c 128,-1,76
 650 622 650 622 744 617.5 c 128,-1,77
 838 613 838 613 926.5 602.5 c 128,-1,78
 1015 592 1015 592 1094 573.5 c 128,-1,79
 1173 555 1173 555 1232 522 c 128,-1,80
 1291 489 1291 489 1325.5 437.5 c 128,-1,81
 1360 386 1360 386 1360 311 c 0,0,1
556 -63 m 2,82,83
 556 -78 556 -78 555.5 -90.5 c 128,-1,84
 555 -103 555 -103 551.5 -112.5 c 128,-1,85
 548 -122 548 -122 541 -127.5 c 128,-1,86
 534 -133 534 -133 521 -133 c 0,87,88
 507 -133 507 -133 499.5 -128 c 128,-1,89
 492 -123 492 -123 488.5 -114 c 128,-1,90
 485 -105 485 -105 484.5 -94 c 128,-1,91
 484 -83 484 -83 484 -71 c 2,92,-1
 484 1230 l 2,93,94
 484 1243 484 1243 484.5 1255 c 128,-1,95
 485 1267 485 1267 488.5 1276 c 128,-1,96
 492 1285 492 1285 499.5 1290.5 c 128,-1,97
 507 1296 507 1296 521 1296 c 0,98,99
 534 1296 534 1296 541 1290 c 128,-1,100
 548 1284 548 1284 551.5 1274.5 c 128,-1,101
 555 1265 555 1265 555.5 1252.5 c 128,-1,102
 556 1240 556 1240 556 1227 c 2,103,-1
 556 -63 l 2,82,83
891 -63 m 2,104,105
 891 -78 891 -78 890.5 -90.5 c 128,-1,106
 890 -103 890 -103 886.5 -112.5 c 128,-1,107
 883 -122 883 -122 876 -127.5 c 128,-1,108
 869 -133 869 -133 856 -133 c 0,109,110
 842 -133 842 -133 834.5 -128 c 128,-1,111
 827 -123 827 -123 823.5 -114 c 128,-1,112
 820 -105 820 -105 819.5 -94 c 128,-1,113
 819 -83 819 -83 819 -71 c 2,114,-1
 819 1230 l 2,115,116
 819 1243 819 1243 819.5 1255 c 128,-1,117
 820 1267 820 1267 823.5 1276 c 128,-1,118
 827 1285 827 1285 834.5 1290.5 c 128,-1,119
 842 1296 842 1296 856 1296 c 0,120,121
 869 1296 869 1296 876 1290 c 128,-1,122
 883 1284 883 1284 886.5 1274.5 c 128,-1,123
 890 1265 890 1265 890.5 1252.5 c 128,-1,124
 891 1240 891 1240 891 1227 c 2,125,-1
 891 -63 l 2,104,105
EndSplineSet
EndChar

StartChar: percent
Encoding: 37 37 26
Width: 1208
Flags: W
HStem: 106 63<826.474 1033.47> 522 67<823.694 1036.23> 562 63<179.338 384.47> 978 67<175.864 387.227>
VStem: 30 68<700.45 902.656> 464 70<698.923 904.195> 677 70<241.831 449.295> 1113 70<242.923 448.195>
LayerCount: 2
Fore
SplineSet
677 347 m 256,0,1
 677 396 677 396 697 440 c 128,-1,2
 717 484 717 484 751.5 517 c 128,-1,3
 786 550 786 550 832.5 569.5 c 128,-1,4
 879 589 879 589 931 589 c 256,5,6
 983 589 983 589 1029 569.5 c 128,-1,7
 1075 550 1075 550 1109 517 c 128,-1,8
 1143 484 1143 484 1163 440 c 128,-1,9
 1183 396 1183 396 1183 347 c 256,10,11
 1183 298 1183 298 1163 254 c 128,-1,12
 1143 210 1143 210 1109 177 c 128,-1,13
 1075 144 1075 144 1029 125 c 128,-1,14
 983 106 983 106 931 106 c 256,15,16
 879 106 879 106 832.5 125 c 128,-1,17
 786 144 786 144 751.5 177 c 128,-1,18
 717 210 717 210 697 254 c 128,-1,19
 677 298 677 298 677 347 c 256,0,1
747 345 m 256,20,21
 747 309 747 309 761 277 c 128,-1,22
 775 245 775 245 800 221 c 128,-1,23
 825 197 825 197 858.5 183 c 128,-1,24
 892 169 892 169 931 169 c 0,25,26
 968 169 968 169 1001.5 183 c 128,-1,27
 1035 197 1035 197 1059.5 221 c 128,-1,28
 1084 245 1084 245 1098.5 277 c 128,-1,29
 1113 309 1113 309 1113 345 c 256,30,31
 1113 381 1113 381 1098.5 413.5 c 128,-1,32
 1084 446 1084 446 1059.5 470 c 128,-1,33
 1035 494 1035 494 1001.5 508 c 128,-1,34
 968 522 968 522 931 522 c 0,35,36
 892 522 892 522 858.5 508 c 128,-1,37
 825 494 825 494 800 470 c 128,-1,38
 775 446 775 446 761 413.5 c 128,-1,39
 747 381 747 381 747 345 c 256,20,21
30 803 m 256,40,41
 30 852 30 852 50 896 c 128,-1,42
 70 940 70 940 104 973 c 128,-1,43
 138 1006 138 1006 184 1025.5 c 128,-1,44
 230 1045 230 1045 282 1045 c 256,45,46
 334 1045 334 1045 380 1025.5 c 128,-1,47
 426 1006 426 1006 460 973 c 128,-1,48
 494 940 494 940 514 896 c 128,-1,49
 534 852 534 852 534 803 c 256,50,51
 534 754 534 754 514 710 c 128,-1,52
 494 666 494 666 460 633 c 128,-1,53
 426 600 426 600 380 581 c 128,-1,54
 334 562 334 562 282 562 c 256,55,56
 230 562 230 562 184 581 c 128,-1,57
 138 600 138 600 104 633 c 128,-1,58
 70 666 70 666 50 710 c 128,-1,59
 30 754 30 754 30 803 c 256,40,41
98 801 m 256,60,61
 98 765 98 765 112.5 733 c 128,-1,62
 127 701 127 701 152.5 677 c 128,-1,63
 178 653 178 653 211 639 c 128,-1,64
 244 625 244 625 282 625 c 0,65,66
 319 625 319 625 352.5 639 c 128,-1,67
 386 653 386 653 410.5 677 c 128,-1,68
 435 701 435 701 449.5 733 c 128,-1,69
 464 765 464 765 464 801 c 256,70,71
 464 837 464 837 449.5 869.5 c 128,-1,72
 435 902 435 902 410.5 926 c 128,-1,73
 386 950 386 950 352.5 964 c 128,-1,74
 319 978 319 978 282 978 c 0,75,76
 244 978 244 978 211 964 c 128,-1,77
 178 950 178 950 152.5 926 c 128,-1,78
 127 902 127 902 112.5 869.5 c 128,-1,79
 98 837 98 837 98 801 c 256,60,61
391 4 m 1,80,81
 380 -19 380 -19 372 -36 c 128,-1,82
 364 -53 364 -53 346 -53 c 0,83,84
 326 -53 326 -53 317.5 -42 c 128,-1,85
 309 -31 309 -31 309 -20 c 256,86,87
 309 -9 309 -9 312.5 1.5 c 128,-1,88
 316 12 316 12 321 25 c 2,89,-1
 731 1118 l 1,90,91
 738 1141 738 1141 747.5 1158.5 c 128,-1,92
 757 1176 757 1176 780 1176 c 0,93,94
 799 1176 799 1176 806 1166.5 c 128,-1,95
 813 1157 813 1157 813 1145 c 0,96,97
 813 1134 813 1134 810.5 1122 c 128,-1,98
 808 1110 808 1110 803 1098 c 2,99,-1
 391 4 l 1,80,81
EndSplineSet
EndChar

StartChar: ampersand
Encoding: 38 38 27
Width: 1166
Flags: W
HStem: -18 66<281.261 619.208 826.068 1046.49> 636 59<323.004 679 759 953.776> 1085 59<347.803 623.109>
VStem: 62 76<176.789 493.77> 185 70<787.801 1006.79> 679 80<123.94 636 695 878.264>
DStem2: 1062.5 86.5 1082 32.5 0.846083 0.533051<-114.242 74.347>
LayerCount: 2
Fore
SplineSet
138 331 m 0,0,1
 138 254 138 254 163 200.5 c 128,-1,2
 188 147 188 147 230 113 c 128,-1,3
 272 79 272 79 326.5 63.5 c 128,-1,4
 381 48 381 48 440 48 c 0,5,6
 511 48 511 48 580.5 68 c 128,-1,7
 650 88 650 88 706 123 c 1,8,9
 693 153 693 153 686 192 c 128,-1,10
 679 231 679 231 679 279 c 2,11,-1
 679 636 l 1,12,-1
 368 636 l 1,13,14
 315 619 315 619 272.5 594 c 128,-1,15
 230 569 230 569 200 532.5 c 128,-1,16
 170 496 170 496 154 446.5 c 128,-1,17
 138 397 138 397 138 331 c 0,0,1
475 1085 m 0,18,19
 427 1085 427 1085 386.5 1072 c 128,-1,20
 346 1059 346 1059 317 1035 c 128,-1,21
 288 1011 288 1011 271.5 978 c 128,-1,22
 255 945 255 945 255 905 c 0,23,24
 255 873 255 873 264.5 844.5 c 128,-1,25
 274 816 274 816 289 789.5 c 128,-1,26
 304 763 304 763 323 739.5 c 128,-1,27
 342 716 342 716 362 695 c 1,28,-1
 679 695 l 1,29,-1
 679 855 l 2,30,31
 679 871 679 871 691.5 878.5 c 128,-1,32
 704 886 704 886 719 886 c 256,33,34
 734 886 734 886 746.5 878.5 c 128,-1,35
 759 871 759 871 759 855 c 2,36,-1
 759 695 l 1,37,-1
 920 695 l 2,38,39
 947 695 947 695 954 687.5 c 128,-1,40
 961 680 961 680 961 666 c 0,41,42
 961 655 961 655 954 645.5 c 128,-1,43
 947 636 947 636 920 636 c 2,44,-1
 759 636 l 1,45,-1
 759 279 l 2,46,47
 759 206 759 206 774 161 c 128,-1,48
 789 116 789 116 814.5 91 c 128,-1,49
 840 66 840 66 874.5 57.5 c 128,-1,50
 909 49 909 49 948 49 c 0,51,52
 981 49 981 49 1010 60.5 c 128,-1,53
 1039 72 1039 72 1062.5 86.5 c 128,-1,54
 1086 101 1086 101 1102.5 112.5 c 128,-1,55
 1119 124 1119 124 1127 124 c 0,56,57
 1137 124 1137 124 1143 117 c 128,-1,58
 1149 110 1149 110 1149 100 c 0,59,60
 1149 87 1149 87 1130.5 68.5 c 128,-1,61
 1112 50 1112 50 1082 32.5 c 128,-1,62
 1052 15 1052 15 1013 2.5 c 128,-1,63
 974 -10 974 -10 934 -10 c 0,64,65
 874 -10 874 -10 824.5 7.5 c 128,-1,66
 775 25 775 25 740 67 c 1,67,68
 671 25 671 25 593.5 3.5 c 128,-1,69
 516 -18 516 -18 438 -18 c 0,70,71
 364 -18 364 -18 296 2.5 c 128,-1,72
 228 23 228 23 176 65.5 c 128,-1,73
 124 108 124 108 93 173 c 128,-1,74
 62 238 62 238 62 327 c 0,75,76
 62 380 62 380 73.5 423.5 c 128,-1,77
 85 467 85 467 103.5 501 c 128,-1,78
 122 535 122 535 145.5 561 c 128,-1,79
 169 587 169 587 194 606 c 0,80,81
 252 650 252 650 326 671 c 1,82,83
 286 691 286 691 255 724 c 0,84,85
 229 752 229 752 207 797.5 c 128,-1,86
 185 843 185 843 185 909 c 0,87,88
 185 964 185 964 208.5 1008 c 128,-1,89
 232 1052 232 1052 270.5 1082 c 128,-1,90
 309 1112 309 1112 358.5 1128 c 128,-1,91
 408 1144 408 1144 461 1144 c 0,92,93
 536 1144 536 1144 584.5 1132.5 c 128,-1,94
 633 1121 633 1121 661.5 1106.5 c 128,-1,95
 690 1092 690 1092 701 1078 c 128,-1,96
 712 1064 712 1064 712 1058 c 0,97,98
 712 1047 712 1047 705 1037 c 128,-1,99
 698 1027 698 1027 686 1027 c 0,100,101
 678 1027 678 1027 674 1029.5 c 128,-1,102
 670 1032 670 1032 665 1035 c 0,103,104
 654 1041 654 1041 637 1049.5 c 128,-1,105
 620 1058 620 1058 596.5 1066 c 128,-1,106
 573 1074 573 1074 542.5 1079.5 c 128,-1,107
 512 1085 512 1085 475 1085 c 0,18,19
EndSplineSet
EndChar

StartChar: quotesingle
Encoding: 39 39 28
Width: 210
Flags: W
HStem: 889 246<87.7657 121.75>
VStem: 56 97<1090.5 1125.72>
LayerCount: 2
Fore
SplineSet
67 1004 m 2,0,1
 65 1022 65 1022 63 1038.5 c 128,-1,2
 61 1055 61 1055 59.5 1068.5 c 128,-1,3
 58 1082 58 1082 57 1090.5 c 128,-1,4
 56 1099 56 1099 56 1099 c 1,5,6
 56 1117 56 1117 70.5 1126 c 128,-1,7
 85 1135 85 1135 105 1135 c 256,8,9
 125 1135 125 1135 139 1126 c 128,-1,10
 153 1117 153 1117 153 1099 c 1,11,12
 153 1099 153 1099 152 1090.5 c 128,-1,13
 151 1082 151 1082 149.5 1068.5 c 128,-1,14
 148 1055 148 1055 146 1038.5 c 128,-1,15
 144 1022 144 1022 142 1004 c 0,16,17
 137 963 137 963 131 910 c 0,18,19
 130 899 130 899 122 894 c 128,-1,20
 114 889 114 889 105 889 c 256,21,22
 96 889 96 889 87.5 894 c 128,-1,23
 79 899 79 899 79 910 c 1,24,-1
 67 1004 l 2,0,1
EndSplineSet
EndChar

StartChar: parenleft
Encoding: 40 40 29
Width: 517
Flags: W
HStem: -177 64<339.175 482.233> 1217 64<339.175 482.233>
VStem: 47 78<210.448 892.77>
LayerCount: 2
Fore
SplineSet
47 551 m 0,0,1
 47 642 47 642 57 732 c 128,-1,2
 67 822 67 822 88.5 903 c 128,-1,3
 110 984 110 984 143 1053 c 128,-1,4
 176 1122 176 1122 221.5 1173 c 128,-1,5
 267 1224 267 1224 326 1252.5 c 128,-1,6
 385 1281 385 1281 458 1281 c 0,7,8
 474 1281 474 1281 482.5 1271 c 128,-1,9
 491 1261 491 1261 491 1249 c 128,-1,10
 491 1237 491 1237 482.5 1227 c 128,-1,11
 474 1217 474 1217 458 1217 c 0,12,13
 367 1217 367 1217 303.5 1160 c 128,-1,14
 240 1103 240 1103 200.5 1009.5 c 128,-1,15
 161 916 161 916 143 796.5 c 128,-1,16
 125 677 125 677 125 552 c 256,17,18
 125 427 125 427 143 307.5 c 128,-1,19
 161 188 161 188 200.5 94.5 c 128,-1,20
 240 1 240 1 303.5 -56 c 128,-1,21
 367 -113 367 -113 458 -113 c 0,22,23
 474 -113 474 -113 482.5 -123 c 128,-1,24
 491 -133 491 -133 491 -145 c 128,-1,25
 491 -157 491 -157 482.5 -167 c 128,-1,26
 474 -177 474 -177 458 -177 c 0,27,28
 385 -177 385 -177 326 -148.5 c 128,-1,29
 267 -120 267 -120 221.5 -69.5 c 128,-1,30
 176 -19 176 -19 143 50 c 128,-1,31
 110 119 110 119 88.5 199.5 c 128,-1,32
 67 280 67 280 57 369.5 c 128,-1,33
 47 459 47 459 47 551 c 0,0,1
EndSplineSet
EndChar

StartChar: parenright
Encoding: 41 41 30
Width: 517
Flags: W
HStem: -177 64<34.2522 177.825> 1217 64<34.2522 177.825>
VStem: 392 78<210.449 892.77>
LayerCount: 2
Fore
SplineSet
470 551 m 256,0,1
 470 460 470 460 460 370 c 128,-1,2
 450 280 450 280 428.5 199.5 c 128,-1,3
 407 119 407 119 374 50 c 128,-1,4
 341 -19 341 -19 295.5 -69.5 c 128,-1,5
 250 -120 250 -120 191 -148.5 c 128,-1,6
 132 -177 132 -177 59 -177 c 0,7,8
 42 -177 42 -177 34 -167 c 128,-1,9
 26 -157 26 -157 26 -145 c 128,-1,10
 26 -133 26 -133 34 -123 c 128,-1,11
 42 -113 42 -113 59 -113 c 0,12,13
 150 -113 150 -113 213.5 -56 c 128,-1,14
 277 1 277 1 316.5 94.5 c 128,-1,15
 356 188 356 188 374 307.5 c 128,-1,16
 392 427 392 427 392 552 c 256,17,18
 392 677 392 677 374 796.5 c 128,-1,19
 356 916 356 916 316.5 1009.5 c 128,-1,20
 277 1103 277 1103 213.5 1160 c 128,-1,21
 150 1217 150 1217 59 1217 c 0,22,23
 42 1217 42 1217 34 1227 c 128,-1,24
 26 1237 26 1237 26 1249 c 128,-1,25
 26 1261 26 1261 34 1271 c 128,-1,26
 42 1281 42 1281 59 1281 c 0,27,28
 132 1281 132 1281 191 1252.5 c 128,-1,29
 250 1224 250 1224 295.5 1173 c 128,-1,30
 341 1122 341 1122 374 1053 c 128,-1,31
 407 984 407 984 428.5 903 c 128,-1,32
 450 822 450 822 460 732 c 128,-1,33
 470 642 470 642 470 551 c 256,0,1
EndSplineSet
EndChar

StartChar: asterisk
Encoding: 42 42 31
Width: 785
Flags: W
HStem: 635.5 71.5<38.4712 340 444 760.967>
VStem: 183.5 53<969.005 990.759> 207.5 55.5<333.543 373.438> 522.5 55<967.469 1006.3> 549 52.5<341.407 370.995>
DStem2: 261 969 199 934 0.499944 -0.866058<-40.3753 268.882 381.371 689.402> 221 391 284 362 0.43053 0.902576<-38.7698 268.966 381.441 690.288>
LayerCount: 2
Fore
SplineSet
501 979 m 2,0,1
 512 1001 512 1001 522.5 1012.5 c 128,-1,2
 533 1024 533 1024 557 1012 c 1,3,4
 580 1002 580 1002 577.5 986.5 c 128,-1,5
 575 971 575 971 564 949 c 2,6,-1
 439 699 l 1,7,-1
 705 705 l 2,8,9
 731 705 731 705 746 700.5 c 128,-1,10
 761 696 761 696 761 669 c 0,11,12
 761 656 761 656 757.5 649 c 128,-1,13
 754 642 754 642 746.5 638.5 c 128,-1,14
 739 635 739 635 729.5 634.5 c 128,-1,15
 720 634 720 634 708 634 c 2,16,-1
 444 641 l 1,17,-1
 586 406 l 1,18,19
 598 384 598 384 601.5 369 c 128,-1,20
 605 354 605 354 584 341 c 0,21,22
 561 328 561 328 549 338 c 128,-1,23
 537 348 537 348 524 371 c 2,24,-1
 395 606 l 1,25,-1
 284 362 l 2,26,27
 273 339 273 339 263 327.5 c 128,-1,28
 253 316 253 316 230 327 c 0,29,30
 205 338 205 338 207.5 353.5 c 128,-1,31
 210 369 210 369 221 391 c 2,32,-1
 346 641 l 1,33,-1
 80 635 l 2,34,35
 67 635 67 635 57 635.5 c 128,-1,36
 47 636 47 636 39.5 639 c 128,-1,37
 32 642 32 642 28 649 c 128,-1,38
 24 656 24 656 24 669 c 0,39,40
 23 696 23 696 38 701.5 c 128,-1,41
 53 707 53 707 78 707 c 2,42,-1
 340 699 l 1,43,-1
 199 934 l 2,44,45
 186 957 186 957 183.5 971.5 c 128,-1,46
 181 986 181 986 204 1000 c 0,47,48
 225 1012 225 1012 236.5 1002 c 128,-1,49
 248 992 248 992 261 969 c 2,50,-1
 390 733 l 1,51,-1
 501 979 l 2,0,1
EndSplineSet
EndChar

StartChar: plus
Encoding: 43 43 32
Width: 667
Flags: W
HStem: 457 54<14.7682 303 363 652.232> 755 20G<327 338.5>
VStem: 303 60<199.737 457 511 766.748>
LayerCount: 2
Fore
SplineSet
303 511 m 1,0,-1
 303 742 l 2,1,2
 303 759 303 759 312 767 c 128,-1,3
 321 775 321 775 333 775 c 0,4,5
 344 775 344 775 353.5 767 c 128,-1,6
 363 759 363 759 363 742 c 2,7,-1
 363 511 l 1,8,-1
 625 511 l 2,9,10
 644 511 644 511 652.5 502.5 c 128,-1,11
 661 494 661 494 661 483 c 0,12,13
 661 473 661 473 652.5 465 c 128,-1,14
 644 457 644 457 625 457 c 2,15,-1
 363 457 l 1,16,-1
 363 224 l 2,17,18
 363 207 363 207 353.5 199.5 c 128,-1,19
 344 192 344 192 333 192 c 0,20,21
 321 192 321 192 312 199.5 c 128,-1,22
 303 207 303 207 303 224 c 2,23,-1
 303 457 l 1,24,-1
 42 457 l 2,25,26
 23 457 23 457 14.5 465 c 128,-1,27
 6 473 6 473 6 483 c 0,28,29
 6 494 6 494 14.5 502.5 c 128,-1,30
 23 511 23 511 42 511 c 2,31,-1
 303 511 l 1,0,-1
EndSplineSet
EndChar

StartChar: comma
Encoding: 44 44 33
Width: 253
Flags: W
HStem: -94 56<63 105.998>
VStem: 106 99<-49.6561 66.1934>
LayerCount: 2
Fore
SplineSet
63 -38 m 1,0,1
 88 -38 88 -38 97 -37 c 128,-1,2
 106 -36 106 -36 106 -31 c 0,3,4
 106 -27 106 -27 101.5 -21 c 128,-1,5
 97 -15 97 -15 91.5 -6 c 128,-1,6
 86 3 86 3 81.5 16 c 128,-1,7
 77 29 77 29 77 46 c 0,8,9
 77 75 77 75 96 90.5 c 128,-1,10
 115 106 115 106 138 106 c 0,11,12
 163 106 163 106 184 87.5 c 128,-1,13
 205 69 205 69 205 31 c 0,14,15
 205 10 205 10 196 -12 c 128,-1,16
 187 -34 187 -34 169.5 -52.5 c 128,-1,17
 152 -71 152 -71 125.5 -82.5 c 128,-1,18
 99 -94 99 -94 63 -94 c 1,19,-1
 63 -38 l 1,0,1
EndSplineSet
EndChar

StartChar: hyphen
Encoding: 45 45 34
Width: 659
Flags: W
HStem: 459 45<92.705 565.295>
VStem: 86 486<466.219 496.781>
LayerCount: 2
Fore
SplineSet
545 504 m 2,0,1
 559 504 559 504 565.5 497 c 128,-1,2
 572 490 572 490 572 481 c 0,3,4
 572 473 572 473 565.5 466 c 128,-1,5
 559 459 559 459 545 459 c 2,6,-1
 113 459 l 2,7,8
 99 459 99 459 92.5 466 c 128,-1,9
 86 473 86 473 86 481 c 0,10,11
 86 490 86 490 92.5 497 c 128,-1,12
 99 504 99 504 113 504 c 2,13,-1
 545 504 l 2,0,1
EndSplineSet
EndChar

StartChar: period
Encoding: 46 46 35
Width: 248
Flags: W
HStem: -10 115<81.5024 164.951>
VStem: 65 118<5.98669 87.9821>
LayerCount: 2
Fore
SplineSet
65 46 m 0,0,1
 65 72 65 72 81 88.5 c 128,-1,2
 97 105 97 105 123 105 c 0,3,4
 148 105 148 105 165.5 88.5 c 128,-1,5
 183 72 183 72 183 46 c 0,6,7
 183 21 183 21 165.5 5.5 c 128,-1,8
 148 -10 148 -10 123 -10 c 0,9,10
 97 -10 97 -10 81 5.5 c 128,-1,11
 65 21 65 21 65 46 c 0,0,1
EndSplineSet
EndChar

StartChar: slash
Encoding: 47 47 36
Width: 516
Flags: W
VStem: 6 504
LayerCount: 2
Fore
SplineSet
88 4 m 1,0,1
 77 -19 77 -19 69 -36 c 128,-1,2
 61 -53 61 -53 43 -53 c 0,3,4
 23 -53 23 -53 14.5 -42 c 128,-1,5
 6 -31 6 -31 6 -20 c 256,6,7
 6 -9 6 -9 9.5 1.5 c 128,-1,8
 13 12 13 12 18 25 c 2,9,-1
 428 1118 l 1,10,11
 435 1141 435 1141 444.5 1158.5 c 128,-1,12
 454 1176 454 1176 477 1176 c 0,13,14
 496 1176 496 1176 503 1166.5 c 128,-1,15
 510 1157 510 1157 510 1145 c 0,16,17
 510 1134 510 1134 507.5 1122 c 128,-1,18
 505 1110 505 1110 500 1098 c 2,19,-1
 88 4 l 1,0,1
EndSplineSet
EndChar

StartChar: zero
Encoding: 48 48 37
Width: 1016
Flags: W
HStem: -21 66<325.988 690.777> 1069 66<325.988 690.777>
VStem: 70 76<244.305 869.531> 870 76<241.576 872.269>
LayerCount: 2
Fore
SplineSet
870 557 m 0,0,1
 870 687 870 687 854.5 783.5 c 128,-1,2
 839 880 839 880 798.5 943.5 c 128,-1,3
 758 1007 758 1007 687.5 1038 c 128,-1,4
 617 1069 617 1069 508 1069 c 0,5,6
 400 1069 400 1069 330 1038 c 128,-1,7
 260 1007 260 1007 219 943.5 c 128,-1,8
 178 880 178 880 162 783.5 c 128,-1,9
 146 687 146 687 146 557 c 0,10,11
 146 426 146 426 162 330 c 128,-1,12
 178 234 178 234 219 170.5 c 128,-1,13
 260 107 260 107 330 76 c 128,-1,14
 400 45 400 45 508 45 c 0,15,16
 617 45 617 45 687.5 76 c 128,-1,17
 758 107 758 107 798.5 170.5 c 128,-1,18
 839 234 839 234 854.5 330 c 128,-1,19
 870 426 870 426 870 557 c 0,0,1
70 557 m 0,20,21
 70 687 70 687 87.5 794 c 128,-1,22
 105 901 105 901 153 976.5 c 128,-1,23
 201 1052 201 1052 286.5 1093.5 c 128,-1,24
 372 1135 372 1135 508 1135 c 256,25,26
 644 1135 644 1135 729.5 1093.5 c 128,-1,27
 815 1052 815 1052 863 976.5 c 128,-1,28
 911 901 911 901 928.5 794 c 128,-1,29
 946 687 946 687 946 557 c 0,30,31
 946 426 946 426 928.5 319.5 c 128,-1,32
 911 213 911 213 863 137.5 c 128,-1,33
 815 62 815 62 729.5 20.5 c 128,-1,34
 644 -21 644 -21 508 -21 c 256,35,36
 372 -21 372 -21 286.5 20.5 c 128,-1,37
 201 62 201 62 153 137.5 c 128,-1,38
 105 213 105 213 87.5 319.5 c 128,-1,39
 70 426 70 426 70 557 c 0,20,21
EndSplineSet
Substitution2: "'onum' Oldstyle Figures in Latin lookup 0 subtable" zero.old
EndChar

StartChar: one
Encoding: 49 49 38
Width: 378
Flags: W
HStem: 0 21G<248.5 262.5> 1044 70<6.18835 217>
VStem: 217 72<6.18848 1044>
LayerCount: 2
Fore
SplineSet
289 70 m 2,0,1
 289 57 289 57 289 44.5 c 128,-1,2
 289 32 289 32 286 22 c 128,-1,3
 283 12 283 12 276 6 c 128,-1,4
 269 0 269 0 256 0 c 0,5,6
 241 0 241 0 233.5 6 c 128,-1,7
 226 12 226 12 222 22 c 128,-1,8
 218 32 218 32 217.5 44.5 c 128,-1,9
 217 57 217 57 217 70 c 2,10,-1
 217 1044 l 1,11,-1
 63 1044 l 2,12,13
 53 1044 53 1044 42 1044 c 128,-1,14
 31 1044 31 1044 21.5 1046.5 c 128,-1,15
 12 1049 12 1049 6 1055 c 128,-1,16
 0 1061 0 1061 0 1073 c 0,17,18
 0 1088 0 1088 6.5 1096.5 c 128,-1,19
 13 1105 13 1105 22.5 1109 c 128,-1,20
 32 1113 32 1113 42.5 1113.5 c 128,-1,21
 53 1114 53 1114 61 1114 c 2,22,-1
 254 1114 l 2,23,24
 269 1114 269 1114 276 1107.5 c 128,-1,25
 283 1101 283 1101 286 1091 c 128,-1,26
 289 1081 289 1081 289 1068.5 c 128,-1,27
 289 1056 289 1056 289 1044 c 2,28,-1
 289 70 l 2,0,1
EndSplineSet
Substitution2: "'onum' Oldstyle Figures in Latin lookup 0 subtable" one.old
EndChar

StartChar: two
Encoding: 50 50 39
Width: 857
Flags: W
HStem: -2 72<120 753.653> 1065 69<176.812 619.722>
VStem: 48 72<70 215.237> 751 74<690.516 955.896>
DStem2: 202 1106 215 1040 0.980794 0.195048<-121.309 199.257> 399.5 482 343 376.5 0.896502 0.443039<-294.922 355.944>
LayerCount: 2
Fore
SplineSet
415 1065 m 0,0,1
 361 1065 361 1065 309 1057 c 128,-1,2
 257 1049 257 1049 215 1040 c 0,3,4
 167 1029 167 1029 123 1015 c 0,5,6
 110 1010 110 1010 97 1010 c 0,7,8
 80 1010 80 1010 70.5 1017.5 c 128,-1,9
 61 1025 61 1025 61 1036 c 256,10,11
 61 1047 61 1047 71.5 1058.5 c 128,-1,12
 82 1070 82 1070 105 1079 c 1,13,14
 151 1094 151 1094 202 1106 c 0,15,16
 246 1117 246 1117 301.5 1125.5 c 128,-1,17
 357 1134 357 1134 415 1134 c 0,18,19
 525 1134 525 1134 603 1112 c 128,-1,20
 681 1090 681 1090 730.5 1049 c 128,-1,21
 780 1008 780 1008 802.5 950.5 c 128,-1,22
 825 893 825 893 825 823 c 0,23,24
 825 737 825 737 794.5 677 c 128,-1,25
 764 617 764 617 714.5 573 c 128,-1,26
 665 529 665 529 602 497 c 128,-1,27
 539 465 539 465 472.5 436 c 128,-1,28
 406 407 406 407 343 376.5 c 128,-1,29
 280 346 280 346 230.5 304.5 c 128,-1,30
 181 263 181 263 150.5 206.5 c 128,-1,31
 120 150 120 150 120 70 c 1,32,-1
 720 70 l 2,33,34
 743 70 743 70 754 59 c 128,-1,35
 765 48 765 48 765 34 c 256,36,37
 765 20 765 20 754 9 c 128,-1,38
 743 -2 743 -2 720 -2 c 2,39,-1
 87 -2 l 2,40,41
 58 -2 58 -2 53 14.5 c 128,-1,42
 48 31 48 31 48 70 c 0,43,44
 48 158 48 158 78 222 c 128,-1,45
 108 286 108 286 157.5 333.5 c 128,-1,46
 207 381 207 381 270.5 416 c 128,-1,47
 334 451 334 451 399.5 482 c 128,-1,48
 465 513 465 513 528.5 543.5 c 128,-1,49
 592 574 592 574 641.5 612.5 c 128,-1,50
 691 651 691 651 721 701.5 c 128,-1,51
 751 752 751 752 751 823 c 0,52,53
 751 888 751 888 727.5 934 c 128,-1,54
 704 980 704 980 660.5 1009 c 128,-1,55
 617 1038 617 1038 555 1051.5 c 128,-1,56
 493 1065 493 1065 415 1065 c 0,0,1
EndSplineSet
Substitution2: "'onum' Oldstyle Figures in Latin lookup 0 subtable" two.old
EndChar

StartChar: three
Encoding: 51 51 40
Width: 855
Flags: W
HStem: -21 69<136.812 586.782> 570 64<192.768 508.036> 1065 70<133.754 581.523>
VStem: 21 62<1016 1037> 691 71<737.215 973.415> 723 66<166.934 443.375>
DStem2: 65 1080 109.5 1024.5 0.957488 0.288474<-27.1753 270.695>
LayerCount: 2
Fore
SplineSet
219 570 m 1,0,1
 201 570 201 570 192.5 580 c 128,-1,2
 184 590 184 590 184 602 c 256,3,4
 184 614 184 614 192.5 624 c 128,-1,5
 201 634 201 634 219 634 c 2,6,-1
 361 634 l 2,7,8
 457 634 457 634 520.5 653 c 128,-1,9
 584 672 584 672 622 702.5 c 128,-1,10
 660 733 660 733 675.5 772 c 128,-1,11
 691 811 691 811 691 851 c 0,12,13
 691 889 691 889 679.5 927.5 c 128,-1,14
 668 966 668 966 635 996.5 c 128,-1,15
 602 1027 602 1027 542 1046 c 128,-1,16
 482 1065 482 1065 385 1065 c 0,17,18
 330 1065 330 1065 276 1057.5 c 128,-1,19
 222 1050 222 1050 179 1041 c 128,-1,20
 136 1032 136 1032 109.5 1024.5 c 128,-1,21
 83 1017 83 1017 83 1016 c 0,22,23
 70 1011 70 1011 57 1011 c 0,24,25
 40 1011 40 1011 30.5 1018.5 c 128,-1,26
 21 1026 21 1026 21 1037 c 256,27,28
 21 1048 21 1048 31.5 1059.5 c 128,-1,29
 42 1071 42 1071 65 1080 c 1,30,31
 111 1095 111 1095 162 1107 c 0,32,33
 206 1118 206 1118 261.5 1126.5 c 128,-1,34
 317 1135 317 1135 375 1135 c 0,35,36
 495 1135 495 1135 570 1110 c 128,-1,37
 645 1085 645 1085 688 1044.5 c 128,-1,38
 731 1004 731 1004 746.5 953 c 128,-1,39
 762 902 762 902 762 850 c 0,40,41
 762 816 762 816 750 776 c 128,-1,42
 738 736 738 736 707.5 700.5 c 128,-1,43
 677 665 677 665 625.5 638.5 c 128,-1,44
 574 612 574 612 495 604 c 1,45,46
 575 593 575 593 631 567.5 c 128,-1,47
 687 542 687 542 722 503.5 c 128,-1,48
 757 465 757 465 773 415.5 c 128,-1,49
 789 366 789 366 789 307 c 0,50,51
 789 238 789 238 768.5 178 c 128,-1,52
 748 118 748 118 700 73.5 c 128,-1,53
 652 29 652 29 572.5 4 c 128,-1,54
 493 -21 493 -21 375 -21 c 0,55,56
 317 -21 317 -21 261.5 -13 c 128,-1,57
 206 -5 206 -5 162 6 c 0,58,59
 111 18 111 18 65 34 c 0,60,61
 42 43 42 43 31.5 54.5 c 128,-1,62
 21 66 21 66 21 77 c 256,63,64
 21 88 21 88 30.5 95.5 c 128,-1,65
 40 103 40 103 57 103 c 0,66,67
 70 103 70 103 83 98 c 0,68,69
 127 84 127 84 175 73 c 0,70,71
 217 63 217 63 269 55.5 c 128,-1,72
 321 48 321 48 375 48 c 0,73,74
 478 48 478 48 545.5 67.5 c 128,-1,75
 613 87 613 87 652.5 122 c 128,-1,76
 692 157 692 157 707.5 205.5 c 128,-1,77
 723 254 723 254 723 313 c 0,78,79
 723 363 723 363 706.5 409.5 c 128,-1,80
 690 456 690 456 649 491.5 c 128,-1,81
 608 527 608 527 538 548.5 c 128,-1,82
 468 570 468 570 361 570 c 2,83,-1
 219 570 l 1,0,1
EndSplineSet
Substitution2: "'onum' Oldstyle Figures in Latin lookup 0 subtable" three.old
EndChar

StartChar: four
Encoding: 52 52 41
Width: 1008
Flags: W
HStem: 0 21G<654.5 668.5> 348 70<117 625 697 974.076> 1094 20G<75.5 89.5 654.5 668.5>
VStem: 44 73<418 1113.94> 625 72<6.18848 348 418 1107.81>
LayerCount: 2
Fore
SplineSet
988 381 m 0,0,1
 988 365 988 365 974.5 358 c 128,-1,2
 961 351 961 351 940 348.5 c 128,-1,3
 919 346 919 346 893 347 c 128,-1,4
 867 348 867 348 842 348 c 2,5,-1
 697 348 l 1,6,-1
 697 70 l 2,7,8
 697 57 697 57 696.5 44.5 c 128,-1,9
 696 32 696 32 692.5 22 c 128,-1,10
 689 12 689 12 682 6 c 128,-1,11
 675 0 675 0 662 0 c 0,12,13
 647 0 647 0 639.5 6 c 128,-1,14
 632 12 632 12 629 22 c 128,-1,15
 626 32 626 32 625.5 44.5 c 128,-1,16
 625 57 625 57 625 70 c 2,17,-1
 625 348 l 1,18,-1
 117 348 l 2,19,20
 90 348 90 348 75 354 c 128,-1,21
 60 360 60 360 53 370 c 128,-1,22
 46 380 46 380 45 392.5 c 128,-1,23
 44 405 44 405 44 418 c 2,24,-1
 44 1047 l 2,25,26
 44 1059 44 1059 44.5 1071 c 128,-1,27
 45 1083 45 1083 49 1092.5 c 128,-1,28
 53 1102 53 1102 60.5 1108 c 128,-1,29
 68 1114 68 1114 83 1114 c 0,30,31
 96 1114 96 1114 103 1107.5 c 128,-1,32
 110 1101 110 1101 113 1091.5 c 128,-1,33
 116 1082 116 1082 116.5 1070 c 128,-1,34
 117 1058 117 1058 117 1047 c 2,35,-1
 117 418 l 1,36,-1
 625 418 l 1,37,-1
 625 1044 l 2,38,39
 625 1057 625 1057 625.5 1069.5 c 128,-1,40
 626 1082 626 1082 629 1092 c 128,-1,41
 632 1102 632 1102 639.5 1108 c 128,-1,42
 647 1114 647 1114 662 1114 c 0,43,44
 675 1114 675 1114 682 1108 c 128,-1,45
 689 1102 689 1102 692.5 1092 c 128,-1,46
 696 1082 696 1082 696.5 1069.5 c 128,-1,47
 697 1057 697 1057 697 1044 c 2,48,-1
 697 418 l 1,49,-1
 916 418 l 2,50,51
 932 418 932 418 945.5 417.5 c 128,-1,52
 959 417 959 417 968.5 414 c 128,-1,53
 978 411 978 411 983 403.5 c 128,-1,54
 988 396 988 396 988 381 c 0,0,1
EndSplineSet
Substitution2: "'onum' Oldstyle Figures in Latin lookup 0 subtable" four.old
EndChar

StartChar: five
Encoding: 53 53 42
Width: 799
Flags: W
HStem: -40 69<164.812 569.07> 537 70<144 607.83> 1025 69<184 651.685>
VStem: 694 74<149.682 461.931>
DStem2: 71 607 144 607 0.0958198 0.995399<6.99485 426.904>
LayerCount: 2
Fore
SplineSet
403 29 m 0,0,1
 485 29 485 29 541 50.5 c 128,-1,2
 597 72 597 72 631 111.5 c 128,-1,3
 665 151 665 151 679.5 206 c 128,-1,4
 694 261 694 261 694 328 c 0,5,6
 694 383 694 383 679.5 422.5 c 128,-1,7
 665 462 665 462 631.5 487.5 c 128,-1,8
 598 513 598 513 542 525 c 128,-1,9
 486 537 486 537 403 537 c 2,10,-1
 153 537 l 2,11,12
 138 537 138 537 122 538 c 128,-1,13
 106 539 106 539 94 545 c 128,-1,14
 82 551 82 551 75 565.5 c 128,-1,15
 68 580 68 580 71 607 c 2,16,-1
 111 1024 l 2,17,18
 112 1036 112 1036 113.5 1048.5 c 128,-1,19
 115 1061 115 1061 121.5 1071 c 128,-1,20
 128 1081 128 1081 142.5 1087.5 c 128,-1,21
 157 1094 157 1094 184 1094 c 2,22,-1
 622 1094 l 2,23,24
 642 1094 642 1094 652 1083 c 128,-1,25
 662 1072 662 1072 662 1059.5 c 128,-1,26
 662 1047 662 1047 652 1036 c 128,-1,27
 642 1025 642 1025 622 1025 c 2,28,-1
 184 1025 l 1,29,-1
 144 607 l 1,30,-1
 403 607 l 2,31,32
 485 607 485 607 552.5 592.5 c 128,-1,33
 620 578 620 578 668 545 c 128,-1,34
 716 512 716 512 742 458 c 128,-1,35
 768 404 768 404 768 324 c 0,36,37
 768 222 768 222 742 152.5 c 128,-1,38
 716 83 716 83 668 40 c 128,-1,39
 620 -3 620 -3 552.5 -21.5 c 128,-1,40
 485 -40 485 -40 403 -40 c 0,41,42
 345 -40 345 -40 289.5 -32 c 128,-1,43
 234 -24 234 -24 190 -13 c 0,44,45
 139 -1 139 -1 93 15 c 0,46,47
 70 24 70 24 59.5 35.5 c 128,-1,48
 49 47 49 47 49 58 c 256,49,50
 49 69 49 69 58.5 76.5 c 128,-1,51
 68 84 68 84 85 84 c 0,52,53
 98 84 98 84 111 79 c 0,54,55
 155 65 155 65 203 54 c 0,56,57
 245 44 245 44 297 36.5 c 128,-1,58
 349 29 349 29 403 29 c 0,0,1
EndSplineSet
Substitution2: "'onum' Oldstyle Figures in Latin lookup 0 subtable" five.old
EndChar

StartChar: seven
Encoding: 55 55 44
Width: 675
Flags: W
HStem: 1044 70<21.7992 575>
VStem: 12 647<1054.83 1098.01>
DStem2: 156 82 227 57 0.401564 0.915831<-21.4393 1049.28>
LayerCount: 2
Fore
SplineSet
227 57 m 2,0,1
 219 39 219 39 207.5 31 c 128,-1,2
 196 23 196 23 185 23 c 0,3,4
 171 23 171 23 161.5 33 c 128,-1,5
 152 43 152 43 152 60 c 0,6,7
 152 71 152 71 156 82 c 2,8,-1
 575 1044 l 1,9,-1
 50 1044 l 2,10,11
 31 1044 31 1044 21.5 1054.5 c 128,-1,12
 12 1065 12 1065 12 1079 c 0,13,14
 12 1092 12 1092 21.5 1103 c 128,-1,15
 31 1114 31 1114 50 1114 c 2,16,-1
 605 1114 l 2,17,18
 636 1114 636 1114 647.5 1098.5 c 128,-1,19
 659 1083 659 1083 659 1063 c 0,20,21
 659 1042 659 1042 651 1024 c 2,22,-1
 227 57 l 2,0,1
EndSplineSet
Substitution2: "'onum' Oldstyle Figures in Latin lookup 0 subtable" seven.old
EndChar

StartChar: eight
Encoding: 56 56 45
Width: 991
Flags: W
HStem: -21 66<286.008 705.773> 567 70<337.078 654.922> 1069 66<295.361 696.639>
VStem: 68 66<174.754 441.803> 95 71<131.808 304.846 738.059 967.283> 826 71<131.808 304.846 738.059 967.283> 858 66<174.754 441.803>
LayerCount: 2
Fore
SplineSet
496 567 m 256,0,1
 389 567 389 567 319 546 c 128,-1,2
 249 525 249 525 208 490 c 128,-1,3
 167 455 167 455 150.5 409 c 128,-1,4
 134 363 134 363 134 313 c 0,5,6
 134 255 134 255 152 206 c 128,-1,7
 170 157 170 157 212 121 c 128,-1,8
 254 85 254 85 323.5 65 c 128,-1,9
 393 45 393 45 496 45 c 256,10,11
 599 45 599 45 668.5 65 c 128,-1,12
 738 85 738 85 780 121 c 128,-1,13
 822 157 822 157 840 206 c 128,-1,14
 858 255 858 255 858 313 c 0,15,16
 858 363 858 363 841.5 409 c 128,-1,17
 825 455 825 455 784 490 c 128,-1,18
 743 525 743 525 673 546 c 128,-1,19
 603 567 603 567 496 567 c 256,0,1
496 -21 m 0,20,21
 377 -21 377 -21 295.5 4 c 128,-1,22
 214 29 214 29 163.5 73.5 c 128,-1,23
 113 118 113 118 90.5 178 c 128,-1,24
 68 238 68 238 68 307 c 0,25,26
 68 366 68 366 82.5 415 c 128,-1,27
 97 464 97 464 130 501.5 c 128,-1,28
 163 539 163 539 216.5 565 c 128,-1,29
 270 591 270 591 347 604 c 1,30,31
 272 614 272 614 223 641 c 128,-1,32
 174 668 174 668 145.5 703 c 128,-1,33
 117 738 117 738 106 777 c 128,-1,34
 95 816 95 816 95 850 c 0,35,36
 95 902 95 902 113 953 c 128,-1,37
 131 1004 131 1004 176 1044.5 c 128,-1,38
 221 1085 221 1085 298.5 1110 c 128,-1,39
 376 1135 376 1135 496 1135 c 256,40,41
 616 1135 616 1135 693.5 1110 c 128,-1,42
 771 1085 771 1085 816 1044.5 c 128,-1,43
 861 1004 861 1004 879 953 c 128,-1,44
 897 902 897 902 897 850 c 0,45,46
 897 816 897 816 886 777 c 128,-1,47
 875 738 875 738 846.5 703 c 128,-1,48
 818 668 818 668 769 641 c 128,-1,49
 720 614 720 614 645 604 c 1,50,51
 722 591 722 591 775.5 565 c 128,-1,52
 829 539 829 539 862 501.5 c 128,-1,53
 895 464 895 464 909.5 415 c 128,-1,54
 924 366 924 366 924 307 c 0,55,56
 924 238 924 238 901.5 178 c 128,-1,57
 879 118 879 118 828.5 73.5 c 128,-1,58
 778 29 778 29 696 4 c 128,-1,59
 614 -21 614 -21 496 -21 c 0,20,21
496 637 m 256,60,61
 592 637 592 637 655.5 655.5 c 128,-1,62
 719 674 719 674 757 704 c 128,-1,63
 795 734 795 734 810.5 772.5 c 128,-1,64
 826 811 826 811 826 851 c 0,65,66
 826 890 826 890 812 928.5 c 128,-1,67
 798 967 798 967 761 998.5 c 128,-1,68
 724 1030 724 1030 660 1049.5 c 128,-1,69
 596 1069 596 1069 496 1069 c 256,70,71
 396 1069 396 1069 332 1049.5 c 128,-1,72
 268 1030 268 1030 231 998.5 c 128,-1,73
 194 967 194 967 180 928.5 c 128,-1,74
 166 890 166 890 166 851 c 0,75,76
 166 811 166 811 181.5 772.5 c 128,-1,77
 197 734 197 734 235 704 c 128,-1,78
 273 674 273 674 336.5 655.5 c 128,-1,79
 400 637 400 637 496 637 c 256,60,61
EndSplineSet
Substitution2: "'onum' Oldstyle Figures in Latin lookup 0 subtable" eight.old
EndChar

StartChar: nine
Encoding: 57 57 46
Width: 973
Flags: W
HStem: -20 69<210.812 667.07> 487 70<227.292 789.98> 1065 69<271.797 665.531>
VStem: 46 76<648.271 945.189> 824 77<230.141 535 580.002 887.294>
LayerCount: 2
Fore
SplineSet
901 557 m 0,0,1
 901 400 901 400 881.5 290.5 c 128,-1,2
 862 181 862 181 811.5 112 c 128,-1,3
 761 43 761 43 673.5 11.5 c 128,-1,4
 586 -20 586 -20 449 -20 c 0,5,6
 391 -20 391 -20 335.5 -12 c 128,-1,7
 280 -4 280 -4 236 7 c 0,8,9
 185 19 185 19 139 35 c 0,10,11
 116 44 116 44 105.5 55.5 c 128,-1,12
 95 67 95 67 95 78 c 256,13,14
 95 89 95 89 104.5 96.5 c 128,-1,15
 114 104 114 104 131 104 c 0,16,17
 144 104 144 104 157 99 c 0,18,19
 201 85 201 85 249 74 c 0,20,21
 291 64 291 64 343 56.5 c 128,-1,22
 395 49 395 49 449 49 c 0,23,24
 539 49 539 49 608.5 63 c 128,-1,25
 678 77 678 77 726 126.5 c 128,-1,26
 774 176 774 176 799 273 c 128,-1,27
 824 370 824 370 824 535 c 1,28,29
 797 522 797 522 752 511 c 0,30,31
 713 502 713 502 650.5 494.5 c 128,-1,32
 588 487 588 487 495 487 c 0,33,34
 384 487 384 487 300 501.5 c 128,-1,35
 216 516 216 516 159.5 552.5 c 128,-1,36
 103 589 103 589 74.5 653 c 128,-1,37
 46 717 46 717 46 816 c 0,38,39
 46 877 46 877 68.5 934.5 c 128,-1,40
 91 992 91 992 142.5 1036 c 128,-1,41
 194 1080 194 1080 277.5 1107 c 128,-1,42
 361 1134 361 1134 482 1134 c 0,43,44
 598 1134 598 1134 678 1104.5 c 128,-1,45
 758 1075 758 1075 807.5 1007 c 128,-1,46
 857 939 857 939 879 828.5 c 128,-1,47
 901 718 901 718 901 557 c 0,0,1
824 588 m 1,48,49
 824 724 824 724 806 816 c 128,-1,50
 788 908 788 908 747 963 c 128,-1,51
 706 1018 706 1018 640 1041.5 c 128,-1,52
 574 1065 574 1065 478 1065 c 0,53,54
 373 1065 373 1065 304 1043 c 128,-1,55
 235 1021 235 1021 194.5 985 c 128,-1,56
 154 949 154 949 138 903 c 128,-1,57
 122 857 122 857 122 808 c 0,58,59
 122 723 122 723 145 673.5 c 128,-1,60
 168 624 168 624 214.5 598 c 128,-1,61
 261 572 261 572 331 564.5 c 128,-1,62
 401 557 401 557 495 557 c 0,63,64
 573 557 573 557 633.5 561.5 c 128,-1,65
 694 566 694 566 737 572 c 0,66,67
 786 579 786 579 824 588 c 1,48,49
EndSplineSet
Substitution2: "'onum' Oldstyle Figures in Latin lookup 0 subtable" nine.old
EndChar

StartChar: less
Encoding: 60 60 49
Width: 697
Flags: W
HStem: 44 583<576 596>
VStem: 6 609
DStem2: 57 388 107 335 0.907009 0.421111<23.0315 566.67> 107 335 57 283 0.907009 -0.421111<0 552.182>
LayerCount: 2
Fore
SplineSet
6 335 m 0,0,1
 6 357 6 357 19.5 367 c 128,-1,2
 33 377 33 377 57 388 c 2,3,-1
 561 622 l 2,4,5
 567 624 567 624 571.5 625.5 c 128,-1,6
 576 627 576 627 581 627 c 0,7,8
 596 627 596 627 605.5 616 c 128,-1,9
 615 605 615 605 615 591 c 0,10,11
 615 569 615 569 594 559 c 2,12,-1
 107 335 l 1,13,-1
 594 112 l 2,14,15
 605 107 605 107 610 98 c 128,-1,16
 615 89 615 89 615 79 c 0,17,18
 615 66 615 66 605.5 55 c 128,-1,19
 596 44 596 44 581 44 c 0,20,21
 571 44 571 44 561 49 c 2,22,-1
 57 283 l 2,23,24
 33 294 33 294 19.5 304 c 128,-1,25
 6 314 6 314 6 335 c 0,0,1
EndSplineSet
EndChar

StartChar: equal
Encoding: 61 61 50
Width: 830
Flags: W
HStem: 470 58<92.6737 734.811> 609 58<94.6737 736.811>
VStem: 87 654
LayerCount: 2
Fore
SplineSet
741 499 m 256,0,1
 741 488 741 488 735 479 c 128,-1,2
 729 470 729 470 716 470 c 2,3,-1
 111 470 l 2,4,5
 98 470 98 470 92.5 479 c 128,-1,6
 87 488 87 488 87 499 c 256,7,8
 87 510 87 510 92.5 519 c 128,-1,9
 98 528 98 528 111 528 c 2,10,-1
 716 528 l 2,11,12
 729 528 729 528 735 519 c 128,-1,13
 741 510 741 510 741 499 c 256,0,1
743 638 m 256,14,15
 743 627 743 627 737 618 c 128,-1,16
 731 609 731 609 718 609 c 2,17,-1
 113 609 l 2,18,19
 100 609 100 609 94.5 618 c 128,-1,20
 89 627 89 627 89 638 c 256,21,22
 89 649 89 649 94.5 658 c 128,-1,23
 100 667 100 667 113 667 c 2,24,-1
 718 667 l 2,25,26
 731 667 731 667 737 658 c 128,-1,27
 743 649 743 649 743 638 c 256,14,15
EndSplineSet
EndChar

StartChar: question
Encoding: 63 63 52
Width: 802
Flags: W
HStem: -10 115<178.502 261.951> 480 64<254 519.504> 1066 69<134.812 584.782>
VStem: 162 118<5.98669 87.9821> 182 72<194.08 480> 721 66<678.744 945.28>
DStem2: 160 1107 173 1041 0.980794 0.195048<-121.309 199.257>
LayerCount: 2
Fore
SplineSet
254 264 m 2,0,1
 254 235 254 235 250 214.5 c 128,-1,2
 246 194 246 194 221 194 c 0,3,4
 206 194 206 194 198.5 199.5 c 128,-1,5
 191 205 191 205 187 214.5 c 128,-1,6
 183 224 183 224 182.5 236.5 c 128,-1,7
 182 249 182 249 182 262 c 2,8,-1
 182 512 l 2,9,10
 182 524 182 524 190.5 534 c 128,-1,11
 199 544 199 544 217 544 c 0,12,13
 325 544 325 544 404.5 554 c 128,-1,14
 484 564 484 564 540 581.5 c 128,-1,15
 596 599 596 599 631.5 623 c 128,-1,16
 667 647 667 647 686.5 675.5 c 128,-1,17
 706 704 706 704 713.5 736 c 128,-1,18
 721 768 721 768 721 801 c 0,19,20
 721 859 721 859 705.5 908 c 128,-1,21
 690 957 690 957 650.5 992 c 128,-1,22
 611 1027 611 1027 543.5 1046.5 c 128,-1,23
 476 1066 476 1066 373 1066 c 0,24,25
 319 1066 319 1066 267 1058 c 128,-1,26
 215 1050 215 1050 173 1041 c 0,27,28
 125 1030 125 1030 81 1016 c 0,29,30
 68 1011 68 1011 55 1011 c 0,31,32
 38 1011 38 1011 28.5 1018.5 c 128,-1,33
 19 1026 19 1026 19 1037 c 256,34,35
 19 1048 19 1048 29.5 1059.5 c 128,-1,36
 40 1071 40 1071 63 1080 c 1,37,38
 109 1095 109 1095 160 1107 c 0,39,40
 204 1118 204 1118 259.5 1126.5 c 128,-1,41
 315 1135 315 1135 373 1135 c 0,42,43
 491 1135 491 1135 570.5 1110 c 128,-1,44
 650 1085 650 1085 698 1040.5 c 128,-1,45
 746 996 746 996 766.5 936 c 128,-1,46
 787 876 787 876 787 807 c 0,47,48
 787 769 787 769 781.5 730.5 c 128,-1,49
 776 692 776 692 757.5 656 c 128,-1,50
 739 620 739 620 703.5 589 c 128,-1,51
 668 558 668 558 609 534.5 c 128,-1,52
 550 511 550 511 463 496.5 c 128,-1,53
 376 482 376 482 254 480 c 1,54,-1
 254 264 l 2,0,1
162 46 m 0,55,56
 162 72 162 72 178 88.5 c 128,-1,57
 194 105 194 105 220 105 c 0,58,59
 245 105 245 105 262.5 88.5 c 128,-1,60
 280 72 280 72 280 46 c 0,61,62
 280 21 280 21 262.5 5.5 c 128,-1,63
 245 -10 245 -10 220 -10 c 0,64,65
 194 -10 194 -10 178 5.5 c 128,-1,66
 162 21 162 21 162 46 c 0,55,56
EndSplineSet
EndChar

StartChar: at
Encoding: 64 64 53
Width: 1319
Flags: W
HStem: -119 59<467.868 925> 116 60<993.483 1097.92> 132 66<484.278 784.573> 735 66<564.484 880.943> 761 20G<968 984.5> 972 59<498.697 929.077>
VStem: 64 77<218.352 663.408> 316 79<277.944 587.282> 912 73<178.292 253 321 539.027> 1183 76<290.782 764.456>
DStem2: 914 321 989 331 0.0601648 0.998188<0 377.406>
LayerCount: 2
Fore
SplineSet
1046 -48 m 0,0,1
 1003 -68 1003 -68 950 -84 c 0,2,3
 905 -98 905 -98 844.5 -108.5 c 128,-1,4
 784 -119 784 -119 712 -119 c 0,5,6
 542 -119 542 -119 419.5 -80 c 128,-1,7
 297 -41 297 -41 218 33 c 128,-1,8
 139 107 139 107 101.5 214 c 128,-1,9
 64 321 64 321 64 457 c 0,10,11
 64 584 64 584 108 689.5 c 128,-1,12
 152 795 152 795 235.5 871 c 128,-1,13
 319 947 319 947 439.5 989 c 128,-1,14
 560 1031 560 1031 714 1031 c 0,15,16
 981 1031 981 1031 1120 913.5 c 128,-1,17
 1259 796 1259 796 1259 573 c 0,18,19
 1259 469 1259 469 1244.5 384.5 c 128,-1,20
 1230 300 1230 300 1201 240.5 c 128,-1,21
 1172 181 1172 181 1129 148.5 c 128,-1,22
 1086 116 1086 116 1029 116 c 0,23,24
 974 116 974 116 943 149.5 c 128,-1,25
 912 183 912 183 912 253 c 1,26,27
 883 218 883 218 842 192 c 0,28,29
 807 169 807 169 752.5 150.5 c 128,-1,30
 698 132 698 132 625 132 c 0,31,32
 540 132 540 132 481 156 c 128,-1,33
 422 180 422 180 385.5 220.5 c 128,-1,34
 349 261 349 261 332.5 314 c 128,-1,35
 316 367 316 367 316 424 c 0,36,37
 316 527 316 527 352.5 599 c 128,-1,38
 389 671 389 671 446.5 716 c 128,-1,39
 504 761 504 761 575 781 c 128,-1,40
 646 801 646 801 715 801 c 0,41,42
 775 801 775 801 817.5 790 c 128,-1,43
 860 779 860 779 888 765 c 0,44,45
 921 749 921 749 941 730 c 1,46,47
 946 755 946 755 953 768 c 128,-1,48
 960 781 960 781 976 781 c 0,49,50
 993 781 993 781 1003.5 767.5 c 128,-1,51
 1014 754 1014 754 1014 718 c 0,52,53
 1014 712 1014 712 1013.5 695.5 c 128,-1,54
 1013 679 1013 679 1010.5 637.5 c 128,-1,55
 1008 596 1008 596 1003 523 c 128,-1,56
 998 450 998 450 989 331 c 0,57,58
 988 318 988 318 986.5 300 c 128,-1,59
 985 282 985 282 985 262 c 0,60,61
 985 246 985 246 987 230.5 c 128,-1,62
 989 215 989 215 994 203 c 128,-1,63
 999 191 999 191 1009 183.5 c 128,-1,64
 1019 176 1019 176 1034 176 c 0,65,66
 1068 176 1068 176 1095.5 203 c 128,-1,67
 1123 230 1123 230 1142.5 281 c 128,-1,68
 1162 332 1162 332 1172.5 406 c 128,-1,69
 1183 480 1183 480 1183 575 c 0,70,71
 1183 770 1183 770 1064.5 871 c 128,-1,72
 946 972 946 972 714 972 c 0,73,74
 579 972 579 972 472.5 934.5 c 128,-1,75
 366 897 366 897 292.5 829.5 c 128,-1,76
 219 762 219 762 180 667 c 128,-1,77
 141 572 141 572 141 457 c 0,78,79
 141 336 141 336 171.5 240 c 128,-1,80
 202 144 202 144 270 77.5 c 128,-1,81
 338 11 338 11 447 -24.5 c 128,-1,82
 556 -60 556 -60 714 -60 c 0,83,84
 778 -60 778 -60 835 -50 c 128,-1,85
 892 -40 892 -40 935 -28 c 0,86,87
 985 -14 985 -14 1028 5 c 0,88,89
 1033 7 1033 7 1037 8 c 128,-1,90
 1041 9 1041 9 1045 9 c 0,91,92
 1057 9 1057 9 1063 2 c 128,-1,93
 1069 -5 1069 -5 1069 -15 c 0,94,95
 1069 -24 1069 -24 1063.5 -33.5 c 128,-1,96
 1058 -43 1058 -43 1046 -48 c 0,0,1
936 686 m 1,97,98
 904 699 904 699 869 710 c 0,99,100
 839 719 839 719 800 727 c 128,-1,101
 761 735 761 735 721 735 c 0,102,103
 661 735 661 735 603 717 c 128,-1,104
 545 699 545 699 498.5 662 c 128,-1,105
 452 625 452 625 423.5 568 c 128,-1,106
 395 511 395 511 395 433 c 0,107,108
 395 315 395 315 451.5 256.5 c 128,-1,109
 508 198 508 198 630 198 c 0,110,111
 697 198 697 198 750 217 c 128,-1,112
 803 236 803 236 839.5 259.5 c 128,-1,113
 876 283 876 283 895 302 c 0,114,-1
 914 321 l 1,115,-1
 936 686 l 1,97,98
EndSplineSet
EndChar

StartChar: A
Encoding: 65 65 54
Width: 1299
Flags: W
HStem: -18 21G<59.5 74.5 1223.5 1240.5> 348 49<313 982> 1094 20G<636 648.5>
DStem2: 53 63 173 119 0.480018 0.877259<-54.4636 364.743 417.809 1121.32> 1247 63 982 397 0.473833 -0.880615<-1119.87 -419.691 -363.747 54.0842>
LayerCount: 2
Fore
SplineSet
982 397 m 1,0,-1
 651 1014 l 1,1,-1
 313 397 l 1,2,-1
 982 397 l 1,0,-1
1009 348 m 1,3,-1
 292 348 l 1,4,5
 276 317 276 317 256.5 278 c 128,-1,6
 237 239 237 239 216 198.5 c 128,-1,7
 195 158 195 158 173 119 c 128,-1,8
 151 80 151 80 131.5 49.5 c 128,-1,9
 112 19 112 19 96 0.5 c 128,-1,10
 80 -18 80 -18 69 -18 c 0,11,12
 50 -18 50 -18 41 -7 c 128,-1,13
 32 4 32 4 32 12 c 0,14,15
 32 25 32 25 38.5 37 c 128,-1,16
 45 49 45 49 53 63 c 2,17,-1
 601 1065 l 2,18,19
 612 1084 612 1084 621 1098 c 128,-1,20
 630 1112 630 1112 642 1114 c 1,21,22
 655 1114 655 1114 662 1111.5 c 128,-1,23
 669 1109 669 1109 677 1098 c 2,24,-1
 698 1065 l 1,25,-1
 1247 63 l 2,26,27
 1255 49 1255 49 1261 36 c 128,-1,28
 1267 23 1267 23 1267 12 c 256,29,30
 1267 1 1267 1 1258 -8.5 c 128,-1,31
 1249 -18 1249 -18 1232 -18 c 256,32,33
 1215 -18 1215 -18 1203.5 -4 c 128,-1,34
 1192 10 1192 10 1181 29 c 2,35,-1
 1009 348 l 1,3,-1
EndSplineSet
EndChar

StartChar: B
Encoding: 66 66 55
Width: 1275
Flags: W
HStem: 0 66<174 981.516> 564 55<174 908.706> 1048 66<174 927.648>
VStem: 89 85<66 564 619 1048> 1063 85<702.151 962.688> 1122 85<162.385 451.624>
LayerCount: 2
Fore
SplineSet
1207 326 m 1,0,1
 1207 224 1207 224 1168 160.5 c 128,-1,2
 1129 97 1129 97 1060.5 61.5 c 128,-1,3
 992 26 992 26 899 13 c 128,-1,4
 806 0 806 0 699 0 c 2,5,-1
 123 0 l 2,6,7
 106 0 106 0 97.5 10 c 128,-1,8
 89 20 89 20 89 35 c 2,9,-1
 89 1077 l 2,10,11
 89 1095 89 1095 100 1104.5 c 128,-1,12
 111 1114 111 1114 128 1114 c 2,13,-1
 586 1114 l 2,14,15
 658 1114 658 1114 728 1112.5 c 128,-1,16
 798 1111 798 1111 860.5 1102.5 c 128,-1,17
 923 1094 923 1094 975.5 1077 c 128,-1,18
 1028 1060 1028 1060 1066.5 1029 c 128,-1,19
 1105 998 1105 998 1126.5 951 c 128,-1,20
 1148 904 1148 904 1148 836 c 0,21,22
 1148 772 1148 772 1128.5 729 c 128,-1,23
 1109 686 1109 686 1080 659.5 c 128,-1,24
 1051 633 1051 633 1017 619 c 128,-1,25
 983 605 983 605 954 599.5 c 128,-1,26
 925 594 925 594 905.5 594 c 128,-1,27
 886 594 886 594 887 594 c 0,28,29
 948 588 948 588 1005 573 c 128,-1,30
 1062 558 1062 558 1107 527.5 c 128,-1,31
 1152 497 1152 497 1179 448 c 128,-1,32
 1206 399 1206 399 1207 326 c 1,0,1
1063 836 m 0,33,34
 1063 887 1063 887 1046 926.5 c 128,-1,35
 1029 966 1029 966 981 993 c 128,-1,36
 933 1020 933 1020 847 1034 c 128,-1,37
 761 1048 761 1048 623 1048 c 2,38,-1
 174 1048 l 1,39,-1
 174 619 l 1,40,-1
 647 619 l 2,41,42
 755 619 755 619 833.5 627.5 c 128,-1,43
 912 636 912 636 963 660 c 128,-1,44
 1014 684 1014 684 1038.5 726.5 c 128,-1,45
 1063 769 1063 769 1063 836 c 0,33,34
1122 326 m 0,46,47
 1122 395 1122 395 1088.5 441 c 128,-1,48
 1055 487 1055 487 993.5 514 c 128,-1,49
 932 541 932 541 844 552.5 c 128,-1,50
 756 564 756 564 647 564 c 2,51,-1
 174 564 l 1,52,-1
 174 66 l 1,53,-1
 737 66 l 2,54,55
 872 66 872 66 949.5 88 c 128,-1,56
 1027 110 1027 110 1065 146 c 128,-1,57
 1103 182 1103 182 1112.5 229 c 128,-1,58
 1122 276 1122 276 1122 326 c 0,46,47
EndSplineSet
EndChar

StartChar: C
Encoding: 67 67 56
Width: 1415
Flags: W
HStem: -21 66<499.307 1096.64> 1069 66<499.307 1096.64>
VStem: 66 85<313.005 800.995>
LayerCount: 2
Fore
SplineSet
66 557 m 256,0,1
 66 713 66 713 113.5 822.5 c 128,-1,2
 161 932 161 932 255 1001.5 c 128,-1,3
 349 1071 349 1071 489.5 1103 c 128,-1,4
 630 1135 630 1135 816 1135 c 0,5,6
 945 1135 945 1135 1068 1111.5 c 128,-1,7
 1191 1088 1191 1088 1316 1036 c 0,8,9
 1337 1027 1337 1027 1343 1013.5 c 128,-1,10
 1349 1000 1349 1000 1344.5 988.5 c 128,-1,11
 1340 977 1340 977 1326.5 971 c 128,-1,12
 1313 965 1313 965 1295 973 c 0,13,14
 1180 1021 1180 1021 1056 1045 c 128,-1,15
 932 1069 932 1069 816 1069 c 0,16,17
 638 1069 638 1069 512 1039.5 c 128,-1,18
 386 1010 386 1010 305.5 947.5 c 128,-1,19
 225 885 225 885 188 788.5 c 128,-1,20
 151 692 151 692 151 557 c 256,21,22
 151 422 151 422 188 325.5 c 128,-1,23
 225 229 225 229 305.5 166.5 c 128,-1,24
 386 104 386 104 512 74.5 c 128,-1,25
 638 45 638 45 816 45 c 0,26,27
 932 45 932 45 1056 69 c 128,-1,28
 1180 93 1180 93 1295 141 c 0,29,30
 1313 148 1313 148 1326.5 142.5 c 128,-1,31
 1340 137 1340 137 1344.5 125.5 c 128,-1,32
 1349 114 1349 114 1343 100.5 c 128,-1,33
 1337 87 1337 87 1316 78 c 0,34,35
 1191 26 1191 26 1068 2.5 c 128,-1,36
 945 -21 945 -21 816 -21 c 0,37,38
 630 -21 630 -21 489.5 11 c 128,-1,39
 349 43 349 43 255 112.5 c 128,-1,40
 161 182 161 182 113.5 291.5 c 128,-1,41
 66 401 66 401 66 557 c 256,0,1
EndSplineSet
EndChar

StartChar: D
Encoding: 68 68 57
Width: 1546
Flags: W
HStem: 0 66<174 1105.93> 1048 66<174 1105.93>
VStem: 89 85<66 1048> 1391 85<298.329 815.521>
LayerCount: 2
Fore
SplineSet
1476 559 m 0,0,1
 1476 399 1476 399 1434 292 c 128,-1,2
 1392 185 1392 185 1309 120 c 128,-1,3
 1226 55 1226 55 1102.5 27.5 c 128,-1,4
 979 0 979 0 816 0 c 2,5,-1
 128 0 l 2,6,7
 113 0 113 0 105.5 0.5 c 128,-1,8
 98 1 98 1 94 4.5 c 128,-1,9
 90 8 90 8 89.5 15 c 128,-1,10
 89 22 89 22 89 35 c 2,11,-1
 89 1077 l 2,12,13
 89 1092 89 1092 89.5 1099.5 c 128,-1,14
 90 1107 90 1107 94 1110 c 128,-1,15
 98 1113 98 1113 106.5 1113.5 c 128,-1,16
 115 1114 115 1114 130 1114 c 2,17,-1
 816 1114 l 2,18,19
 979 1114 979 1114 1102.5 1086 c 128,-1,20
 1226 1058 1226 1058 1309 992.5 c 128,-1,21
 1392 927 1392 927 1434 821 c 128,-1,22
 1476 715 1476 715 1476 559 c 0,0,1
1391 559 m 0,23,24
 1391 688 1391 688 1362 780.5 c 128,-1,25
 1333 873 1333 873 1266 932.5 c 128,-1,26
 1199 992 1199 992 1089 1020 c 128,-1,27
 979 1048 979 1048 816 1048 c 2,28,-1
 174 1048 l 1,29,-1
 174 66 l 1,30,-1
 816 66 l 2,31,32
 979 66 979 66 1089 94 c 128,-1,33
 1199 122 1199 122 1266 181.5 c 128,-1,34
 1333 241 1333 241 1362 334.5 c 128,-1,35
 1391 428 1391 428 1391 559 c 0,23,24
EndSplineSet
EndChar

StartChar: E
Encoding: 69 69 58
Width: 1117
Flags: W
HStem: 0 66<175 1109.81> 540 61<175 1080.81> 1048 66<175 1107.81>
VStem: 90 85<66 540 601 1048>
LayerCount: 2
Fore
SplineSet
1116 35 m 0,0,1
 1116 20 1116 20 1110 13 c 128,-1,2
 1104 6 1104 6 1093.5 3 c 128,-1,3
 1083 0 1083 0 1070 0 c 128,-1,4
 1057 0 1057 0 1042 0 c 2,5,-1
 129 0 l 2,6,7
 114 0 114 0 106.5 0.5 c 128,-1,8
 99 1 99 1 95 4.5 c 128,-1,9
 91 8 91 8 90.5 15 c 128,-1,10
 90 22 90 22 90 35 c 2,11,-1
 90 1077 l 2,12,13
 90 1092 90 1092 90.5 1099.5 c 128,-1,14
 91 1107 91 1107 94 1110 c 128,-1,15
 97 1113 97 1113 104.5 1113.5 c 128,-1,16
 112 1114 112 1114 127 1114 c 2,17,-1
 1040 1114 l 2,18,19
 1055 1114 1055 1114 1068 1114 c 128,-1,20
 1081 1114 1081 1114 1091.5 1111 c 128,-1,21
 1102 1108 1102 1108 1108 1101 c 128,-1,22
 1114 1094 1114 1094 1114 1079 c 0,23,24
 1114 1067 1114 1067 1108 1060.5 c 128,-1,25
 1102 1054 1102 1054 1091.5 1051 c 128,-1,26
 1081 1048 1081 1048 1068 1048 c 128,-1,27
 1055 1048 1055 1048 1040 1048 c 2,28,-1
 175 1048 l 1,29,-1
 175 601 l 1,30,-1
 1013 601 l 2,31,32
 1028 601 1028 601 1041 601 c 128,-1,33
 1054 601 1054 601 1064.5 599 c 128,-1,34
 1075 597 1075 597 1081 590.5 c 128,-1,35
 1087 584 1087 584 1087 572 c 0,36,37
 1087 557 1087 557 1081 550.5 c 128,-1,38
 1075 544 1075 544 1064.5 541.5 c 128,-1,39
 1054 539 1054 539 1041 539.5 c 128,-1,40
 1028 540 1028 540 1013 540 c 2,41,-1
 175 540 l 1,42,-1
 175 66 l 1,43,-1
 1042 66 l 2,44,45
 1057 66 1057 66 1070 66 c 128,-1,46
 1083 66 1083 66 1093.5 63 c 128,-1,47
 1104 60 1104 60 1110 53.5 c 128,-1,48
 1116 47 1116 47 1116 35 c 0,0,1
EndSplineSet
EndChar

StartChar: F
Encoding: 70 70 59
Width: 1168
Flags: W
HStem: 0 21G<126.5 146> 528 66<175 1027.95> 1048 66<175 1167.96>
VStem: 90 85<0.0214844 528 594 1048>
LayerCount: 2
Fore
SplineSet
175 70 m 2,0,1
 175 41 175 41 166.5 20.5 c 128,-1,2
 158 0 158 0 134 0 c 0,3,4
 119 0 119 0 110.5 5.5 c 128,-1,5
 102 11 102 11 97.5 20.5 c 128,-1,6
 93 30 93 30 91.5 42.5 c 128,-1,7
 90 55 90 55 90 68 c 2,8,-1
 90 1077 l 2,9,10
 90 1092 90 1092 90.5 1099.5 c 128,-1,11
 91 1107 91 1107 94 1110 c 128,-1,12
 97 1113 97 1113 104.5 1113.5 c 128,-1,13
 112 1114 112 1114 127 1114 c 2,14,-1
 1105 1114 l 2,15,16
 1118 1114 1118 1114 1129.5 1113.5 c 128,-1,17
 1141 1113 1141 1113 1149.5 1109.5 c 128,-1,18
 1158 1106 1158 1106 1163 1099 c 128,-1,19
 1168 1092 1168 1092 1168 1079 c 0,20,21
 1168 1056 1168 1056 1151 1052 c 128,-1,22
 1134 1048 1134 1048 1105 1048 c 2,23,-1
 175 1048 l 1,24,-1
 175 594 l 1,25,-1
 962 594 l 2,26,27
 991 594 991 594 1009.5 590 c 128,-1,28
 1028 586 1028 586 1028 563 c 0,29,30
 1028 550 1028 550 1022.5 543 c 128,-1,31
 1017 536 1017 536 1008 532.5 c 128,-1,32
 999 529 999 529 987 528.5 c 128,-1,33
 975 528 975 528 962 528 c 2,34,-1
 175 528 l 1,35,-1
 175 70 l 2,0,1
EndSplineSet
EndChar

StartChar: G
Encoding: 71 71 60
Width: 1517
Flags: W
HStem: -21 66<500.307 1171.65> 536 70<806.704 1381> 1069 66<500.307 1097.64>
VStem: 67 85<313.005 800.995> 1381 72<109.953 536>
DStem2: 1105 65 1094 -0.5 0.983147 0.182818<-282.257 281.038>
LayerCount: 2
Fore
SplineSet
817 45 m 0,0,1
 965 45 965 45 1105 65 c 128,-1,2
 1245 85 1245 85 1381 118 c 1,3,-1
 1381 536 l 1,4,-1
 871 536 l 2,5,6
 859 536 859 536 846.5 536.5 c 128,-1,7
 834 537 834 537 823.5 540.5 c 128,-1,8
 813 544 813 544 806.5 551 c 128,-1,9
 800 558 800 558 800 571 c 256,10,11
 800 584 800 584 806.5 591 c 128,-1,12
 813 598 813 598 823 601.5 c 128,-1,13
 833 605 833 605 845.5 605.5 c 128,-1,14
 858 606 858 606 871 606 c 2,15,-1
 1381 606 l 2,16,17
 1423 606 1423 606 1438 590 c 128,-1,18
 1453 574 1453 574 1453 536 c 2,19,-1
 1453 118 l 2,20,21
 1453 87 1453 87 1430 70.5 c 128,-1,22
 1407 54 1407 54 1381 49 c 0,23,24
 1233 20 1233 20 1094 -0.5 c 128,-1,25
 955 -21 955 -21 817 -21 c 0,26,27
 631 -21 631 -21 490.5 11 c 128,-1,28
 350 43 350 43 256 112.5 c 128,-1,29
 162 182 162 182 114.5 291.5 c 128,-1,30
 67 401 67 401 67 557 c 256,31,32
 67 713 67 713 114.5 822.5 c 128,-1,33
 162 932 162 932 256 1001.5 c 128,-1,34
 350 1071 350 1071 490.5 1103 c 128,-1,35
 631 1135 631 1135 817 1135 c 0,36,37
 946 1135 946 1135 1069 1111.5 c 128,-1,38
 1192 1088 1192 1088 1317 1036 c 0,39,40
 1338 1027 1338 1027 1344 1013.5 c 128,-1,41
 1350 1000 1350 1000 1345.5 988.5 c 128,-1,42
 1341 977 1341 977 1327.5 971 c 128,-1,43
 1314 965 1314 965 1296 973 c 0,44,45
 1181 1021 1181 1021 1057 1045 c 128,-1,46
 933 1069 933 1069 817 1069 c 0,47,48
 639 1069 639 1069 513 1039.5 c 128,-1,49
 387 1010 387 1010 306.5 947.5 c 128,-1,50
 226 885 226 885 189 788.5 c 128,-1,51
 152 692 152 692 152 557 c 256,52,53
 152 422 152 422 189 325.5 c 128,-1,54
 226 229 226 229 306.5 166.5 c 128,-1,55
 387 104 387 104 513 74.5 c 128,-1,56
 639 45 639 45 817 45 c 0,0,1
EndSplineSet
EndChar

StartChar: H
Encoding: 72 72 61
Width: 1226
Flags: W
HStem: 0 21G<127.5 146 1086.5 1101.5> 533 59<174 1051> 1094 20G<129.5 148 1085.5 1100.5>
VStem: 89 85<0.09375 533 592 1113.73> 1051 85<0.00585938 533 592 1113.99>
LayerCount: 2
Fore
SplineSet
89 1044 m 2,0,1
 89 1057 89 1057 90.5 1069.5 c 128,-1,2
 92 1082 92 1082 97.5 1092 c 128,-1,3
 103 1102 103 1102 112.5 1108 c 128,-1,4
 122 1114 122 1114 137 1114 c 0,5,6
 159 1114 159 1114 166.5 1091.5 c 128,-1,7
 174 1069 174 1069 174 1044 c 2,8,-1
 174 592 l 1,9,-1
 1051 592 l 1,10,-1
 1051 1044 l 2,11,12
 1051 1057 1051 1057 1052 1069.5 c 128,-1,13
 1053 1082 1053 1082 1057.5 1092 c 128,-1,14
 1062 1102 1062 1102 1070 1108 c 128,-1,15
 1078 1114 1078 1114 1093 1114 c 256,16,17
 1108 1114 1108 1114 1116.5 1108 c 128,-1,18
 1125 1102 1125 1102 1129.5 1092 c 128,-1,19
 1134 1082 1134 1082 1135 1069.5 c 128,-1,20
 1136 1057 1136 1057 1136 1044 c 2,21,-1
 1136 70 l 2,22,23
 1136 57 1136 57 1135 44.5 c 128,-1,24
 1134 32 1134 32 1129.5 22 c 128,-1,25
 1125 12 1125 12 1117 6 c 128,-1,26
 1109 0 1109 0 1094 0 c 256,27,28
 1079 0 1079 0 1070.5 6 c 128,-1,29
 1062 12 1062 12 1057.5 22 c 128,-1,30
 1053 32 1053 32 1052 44.5 c 128,-1,31
 1051 57 1051 57 1051 70 c 2,32,-1
 1051 533 l 1,33,-1
 174 533 l 1,34,-1
 174 70 l 2,35,36
 174 45 174 45 165.5 22.5 c 128,-1,37
 157 0 157 0 135 0 c 0,38,39
 120 0 120 0 110.5 6 c 128,-1,40
 101 12 101 12 96.5 22 c 128,-1,41
 92 32 92 32 90.5 44.5 c 128,-1,42
 89 57 89 57 89 70 c 2,43,-1
 89 1044 l 2,0,1
EndSplineSet
EndChar

StartChar: I
Encoding: 73 73 62
Width: 992
Flags: W
HStem: 0 66<31.2196 454 539 961.812> 1048 66<31.2196 454 539 961.812>
VStem: 454 85<66 1048>
LayerCount: 2
Fore
SplineSet
454 1048 m 1,0,-1
 97 1048 l 2,1,2
 84 1048 84 1048 71 1048 c 128,-1,3
 58 1048 58 1048 47.5 1051 c 128,-1,4
 37 1054 37 1054 30.5 1060.5 c 128,-1,5
 24 1067 24 1067 24 1079 c 0,6,7
 24 1094 24 1094 31 1101 c 128,-1,8
 38 1108 38 1108 48.5 1111 c 128,-1,9
 59 1114 59 1114 72 1114 c 128,-1,10
 85 1114 85 1114 97 1114 c 2,11,-1
 896 1114 l 2,12,13
 911 1114 911 1114 924 1114 c 128,-1,14
 937 1114 937 1114 946.5 1111 c 128,-1,15
 956 1108 956 1108 962 1101 c 128,-1,16
 968 1094 968 1094 968 1081 c 256,17,18
 968 1068 968 1068 962 1061 c 128,-1,19
 956 1054 956 1054 946.5 1051 c 128,-1,20
 937 1048 937 1048 924 1048 c 128,-1,21
 911 1048 911 1048 896 1048 c 2,22,-1
 539 1048 l 1,23,-1
 539 66 l 1,24,-1
 896 66 l 2,25,26
 911 66 911 66 924 66 c 128,-1,27
 937 66 937 66 946.5 63 c 128,-1,28
 956 60 956 60 962 53 c 128,-1,29
 968 46 968 46 968 33 c 256,30,31
 968 20 968 20 962 13 c 128,-1,32
 956 6 956 6 946.5 3 c 128,-1,33
 937 0 937 0 924 0 c 128,-1,34
 911 0 911 0 896 0 c 2,35,-1
 97 0 l 2,36,37
 85 0 85 0 72 0 c 128,-1,38
 59 0 59 0 48.5 3 c 128,-1,39
 38 6 38 6 31 13 c 128,-1,40
 24 20 24 20 24 35 c 0,41,42
 24 47 24 47 30.5 53.5 c 128,-1,43
 37 60 37 60 47.5 63 c 128,-1,44
 58 66 58 66 71 66 c 128,-1,45
 84 66 84 66 97 66 c 2,46,-1
 454 66 l 1,47,-1
 454 1048 l 1,0,-1
EndSplineSet
EndChar

StartChar: J
Encoding: 74 74 63
Width: 976
Flags: W
HStem: -20 69<211.493 635.678> 1094 20G<842.5 863.5>
VStem: 812 85<245.32 1092.86>
LayerCount: 2
Fore
SplineSet
897 594 m 2,0,1
 897 438 897 438 876.5 322.5 c 128,-1,2
 856 207 856 207 806.5 131 c 128,-1,3
 757 55 757 55 674 17.5 c 128,-1,4
 591 -20 591 -20 466 -20 c 0,5,6
 381 -20 381 -20 305.5 -10 c 128,-1,7
 230 0 230 0 170 26 c 128,-1,8
 110 52 110 52 67.5 97.5 c 128,-1,9
 25 143 25 143 6 214 c 0,10,11
 2 226 2 226 2 238 c 0,12,13
 2 258 2 258 12 267.5 c 128,-1,14
 22 277 22 277 36 277 c 0,15,16
 49 277 49 277 61.5 267.5 c 128,-1,17
 74 258 74 258 79 240 c 0,18,19
 95 171 95 171 135.5 133 c 128,-1,20
 176 95 176 95 229.5 76 c 128,-1,21
 283 57 283 57 345 53 c 128,-1,22
 407 49 407 49 466 49 c 0,23,24
 572 49 572 49 639.5 84.5 c 128,-1,25
 707 120 707 120 745 189 c 128,-1,26
 783 258 783 258 797.5 359.5 c 128,-1,27
 812 461 812 461 812 594 c 2,28,-1
 812 1044 l 2,29,30
 812 1073 812 1073 820 1093.5 c 128,-1,31
 828 1114 828 1114 857 1114 c 0,32,33
 870 1114 870 1114 878 1107.5 c 128,-1,34
 886 1101 886 1101 890 1091 c 128,-1,35
 894 1081 894 1081 895.5 1068.5 c 128,-1,36
 897 1056 897 1056 897 1044 c 2,37,-1
 897 594 l 2,0,1
EndSplineSet
EndChar

StartChar: K
Encoding: 75 75 64
Width: 1108
Flags: W
HStem: 0 21G<124.5 144> 1094 20G<119.5 146>
VStem: 88 86<0.0200195 444 524 1091.31>
DStem2: 174 524 174 444 0.823759 0.56694<0 202.267 277.408 1016.92> 444 621 381 580 0.734191 -0.678943<0 830.104>
LayerCount: 2
Fore
SplineSet
444 621 m 1,0,-1
 1027 89 l 2,1,2
 1047 70 1047 70 1047 49 c 0,3,4
 1047 34 1047 34 1037 23 c 128,-1,5
 1027 12 1027 12 1012 12 c 0,6,7
 995 12 995 12 979 27 c 2,8,-1
 381 580 l 1,9,-1
 174 444 l 1,10,-1
 174 70 l 2,11,12
 174 41 174 41 165 20.5 c 128,-1,13
 156 0 156 0 132 0 c 0,14,15
 117 0 117 0 108.5 5.5 c 128,-1,16
 100 11 100 11 95.5 20.5 c 128,-1,17
 91 30 91 30 89.5 42.5 c 128,-1,18
 88 55 88 55 88 68 c 2,19,-1
 88 1042 l 2,20,21
 88 1071 88 1071 96.5 1092.5 c 128,-1,22
 105 1114 105 1114 134 1114 c 0,23,24
 158 1114 158 1114 166 1092 c 128,-1,25
 174 1070 174 1070 174 1044 c 2,26,-1
 174 524 l 1,27,-1
 973 1084 l 2,28,29
 984 1092 984 1092 994.5 1095.5 c 128,-1,30
 1005 1099 1005 1099 1013 1099 c 0,31,32
 1029 1099 1029 1099 1037.5 1090 c 128,-1,33
 1046 1081 1046 1081 1046 1067 c 0,34,35
 1046 1045 1046 1045 1024 1029 c 2,36,-1
 444 621 l 1,0,-1
EndSplineSet
EndChar

StartChar: L
Encoding: 76 76 65
Width: 1073
Flags: W
HStem: 0 66<173 1062.17> 1094 20G<127.5 141>
VStem: 88 85<66 1113.84>
LayerCount: 2
Fore
SplineSet
129 0 m 2,0,1
 114 0 114 0 105.5 1 c 128,-1,2
 97 2 97 2 93 5.5 c 128,-1,3
 89 9 89 9 88.5 16.5 c 128,-1,4
 88 24 88 24 88 37 c 2,5,-1
 88 1044 l 2,6,7
 88 1057 88 1057 90 1069.5 c 128,-1,8
 92 1082 92 1082 97 1092 c 128,-1,9
 102 1102 102 1102 111 1108 c 128,-1,10
 120 1114 120 1114 135 1114 c 0,11,12
 147 1114 147 1114 154.5 1107.5 c 128,-1,13
 162 1101 162 1101 166 1091 c 128,-1,14
 170 1081 170 1081 171.5 1068.5 c 128,-1,15
 173 1056 173 1056 173 1044 c 2,16,-1
 173 66 l 1,17,-1
 1032 66 l 2,18,19
 1052 66 1052 66 1062.5 55.5 c 128,-1,20
 1073 45 1073 45 1073 33 c 0,21,22
 1073 20 1073 20 1062.5 10 c 128,-1,23
 1052 0 1052 0 1032 0 c 2,24,-1
 129 0 l 2,0,1
EndSplineSet
EndChar

StartChar: M
Encoding: 77 77 66
Width: 1626
Flags: W
HStem: 0 21G<116.5 143.5 1482.5 1509.5> 52 87<769.5 856.5> 1090 20G<122.5 139 1487 1503.5>
VStem: 88 85<21.1427 954> 1453 85<21.1427 954>
DStem2: 193 1067 173 954 0.555527 -0.831498<82.8488 1116.06> 813 139 862 86 0.555527 0.831498<0 1033.21>
LayerCount: 2
Fore
SplineSet
813 139 m 1,0,-1
 1433 1067 l 2,1,2
 1448 1090 1448 1090 1464 1100 c 128,-1,3
 1480 1110 1480 1110 1494 1110 c 0,4,5
 1513 1110 1513 1110 1525.5 1094.5 c 128,-1,6
 1538 1079 1538 1079 1538 1056 c 2,7,-1
 1538 70 l 2,8,9
 1538 41 1538 41 1531 20.5 c 128,-1,10
 1524 0 1524 0 1495 0 c 0,11,12
 1470 0 1470 0 1461.5 20.5 c 128,-1,13
 1453 41 1453 41 1453 70 c 2,14,-1
 1453 954 l 1,15,-1
 862 86 l 2,16,17
 839 52 839 52 813 52 c 256,18,19
 787 52 787 52 764 86 c 2,20,-1
 173 954 l 1,21,-1
 173 70 l 2,22,23
 173 41 173 41 164.5 20.5 c 128,-1,24
 156 0 156 0 131 0 c 0,25,26
 102 0 102 0 95 20.5 c 128,-1,27
 88 41 88 41 88 70 c 2,28,-1
 88 1056 l 2,29,30
 88 1079 88 1079 100.5 1094.5 c 128,-1,31
 113 1110 113 1110 132 1110 c 0,32,33
 146 1110 146 1110 162 1100 c 128,-1,34
 178 1090 178 1090 193 1067 c 2,35,-1
 813 139 l 1,0,-1
EndSplineSet
EndChar

StartChar: N
Encoding: 78 78 67
Width: 1388
Flags: W
HStem: 0 21G<117.5 144 1254.5 1283> 1094 17G<119.5 141.5 1250.5 1271>
VStem: 88 85<21.1427 986> 1215 85<128 1113.99>
DStem2: 187 1081 173 986 0.735266 -0.677779<54.0953 1401.78>
LayerCount: 2
Fore
SplineSet
1215 128 m 1,0,-1
 1215 1038 l 2,1,2
 1215 1053 1215 1053 1216 1066.5 c 128,-1,3
 1217 1080 1217 1080 1221.5 1090.5 c 128,-1,4
 1226 1101 1226 1101 1234.5 1107.5 c 128,-1,5
 1243 1114 1243 1114 1258 1114 c 0,6,7
 1284 1114 1284 1114 1292 1091.5 c 128,-1,8
 1300 1069 1300 1069 1300 1038 c 2,9,-1
 1300 64 l 2,10,11
 1300 0 1300 0 1266 0 c 0,12,13
 1243 0 1243 0 1209 31 c 2,14,-1
 173 986 l 1,15,-1
 173 70 l 2,16,17
 173 41 173 41 164.5 20.5 c 128,-1,18
 156 0 156 0 132 0 c 0,19,20
 103 0 103 0 95.5 20.5 c 128,-1,21
 88 41 88 41 88 70 c 2,22,-1
 88 1049 l 2,23,24
 88 1079 88 1079 99 1095 c 128,-1,25
 110 1111 110 1111 129 1111 c 0,26,27
 154 1111 154 1111 187 1081 c 2,28,-1
 1215 128 l 1,0,-1
EndSplineSet
EndChar

StartChar: O
Encoding: 79 79 68
Width: 1603
Flags: W
HStem: -21 66<493.472 1108.53> 1069 66<493.472 1108.53>
VStem: 67 85<316.593 797.165> 1451 85<316.593 797.165>
LayerCount: 2
Fore
SplineSet
1536 557 m 256,0,1
 1536 411 1536 411 1492.5 302.5 c 128,-1,2
 1449 194 1449 194 1358.5 122 c 128,-1,3
 1268 50 1268 50 1129.5 14.5 c 128,-1,4
 991 -21 991 -21 801 -21 c 256,5,6
 611 -21 611 -21 472.5 14.5 c 128,-1,7
 334 50 334 50 244 122 c 128,-1,8
 154 194 154 194 110.5 302.5 c 128,-1,9
 67 411 67 411 67 557 c 256,10,11
 67 703 67 703 110.5 811.5 c 128,-1,12
 154 920 154 920 244 992 c 128,-1,13
 334 1064 334 1064 472.5 1099.5 c 128,-1,14
 611 1135 611 1135 801 1135 c 256,15,16
 991 1135 991 1135 1129.5 1099.5 c 128,-1,17
 1268 1064 1268 1064 1358.5 992 c 128,-1,18
 1449 920 1449 920 1492.5 811.5 c 128,-1,19
 1536 703 1536 703 1536 557 c 256,0,1
152 557 m 0,20,21
 152 417 152 417 192 320 c 128,-1,22
 232 223 232 223 312.5 161.5 c 128,-1,23
 393 100 393 100 515 72.5 c 128,-1,24
 637 45 637 45 801 45 c 256,25,26
 965 45 965 45 1087 72.5 c 128,-1,27
 1209 100 1209 100 1290 161.5 c 128,-1,28
 1371 223 1371 223 1411 320 c 128,-1,29
 1451 417 1451 417 1451 557 c 0,30,31
 1451 696 1451 696 1411 793.5 c 128,-1,32
 1371 891 1371 891 1290 952.5 c 128,-1,33
 1209 1014 1209 1014 1087 1041.5 c 128,-1,34
 965 1069 965 1069 801 1069 c 256,35,36
 637 1069 637 1069 515 1041.5 c 128,-1,37
 393 1014 393 1014 312.5 952.5 c 128,-1,38
 232 891 232 891 192 793.5 c 128,-1,39
 152 696 152 696 152 557 c 0,20,21
EndSplineSet
EndChar

StartChar: P
Encoding: 80 80 69
Width: 1100
Flags: W
HStem: 0 21G<119.5 146> 355 55<173 479.601 644 813.896> 1048 66<173 801.451>
VStem: 88 85<23.2052 355 410 1048> 997 85<531.93 905.086>
LayerCount: 2
Fore
SplineSet
1082 717 m 256,0,1
 1082 630 1082 630 1062.5 568 c 128,-1,2
 1043 506 1043 506 1005.5 464 c 128,-1,3
 968 422 968 422 914.5 397.5 c 128,-1,4
 861 373 861 373 793 361 c 128,-1,5
 725 349 725 349 644 346.5 c 128,-1,6
 563 344 563 344 471 347 c 2,7,-1
 173 355 l 1,8,-1
 173 76 l 2,9,10
 173 47 173 47 165.5 23.5 c 128,-1,11
 158 0 158 0 134 0 c 0,12,13
 105 0 105 0 96.5 22.5 c 128,-1,14
 88 45 88 45 88 76 c 2,15,-1
 88 1077 l 2,16,17
 88 1092 88 1092 90.5 1099.5 c 128,-1,18
 93 1107 93 1107 99 1110 c 128,-1,19
 105 1113 105 1113 114.5 1113.5 c 128,-1,20
 124 1114 124 1114 139 1114 c 2,21,-1
 471 1114 l 2,22,23
 562 1114 562 1114 642.5 1109 c 128,-1,24
 723 1104 723 1104 791 1088.5 c 128,-1,25
 859 1073 859 1073 913 1046 c 128,-1,26
 967 1019 967 1019 1004.5 974.5 c 128,-1,27
 1042 930 1042 930 1062 867 c 128,-1,28
 1082 804 1082 804 1082 717 c 256,0,1
997 717 m 0,29,30
 997 821 997 821 965.5 886 c 128,-1,31
 934 951 934 951 869.5 987 c 128,-1,32
 805 1023 805 1023 706 1035.5 c 128,-1,33
 607 1048 607 1048 471 1048 c 2,34,-1
 173 1048 l 1,35,-1
 173 410 l 1,36,-1
 471 410 l 2,37,38
 607 410 607 410 706.5 418.5 c 128,-1,39
 806 427 806 427 870.5 458.5 c 128,-1,40
 935 490 935 490 966 551 c 128,-1,41
 997 612 997 612 997 717 c 0,29,30
EndSplineSet
EndChar

StartChar: R
Encoding: 82 82 71
Width: 1128
Flags: W
HStem: 0 21G<121.5 142> 431 57<174 548 646 810.29> 1048 66<174 811.246>
VStem: 89 85<23.2052 431 488 1048> 984 85<606.011 926.746>
DStem2: 646 428 548 422 0.723151 -0.69069<0 549.818>
LayerCount: 2
Fore
SplineSet
1069 758 m 0,0,1
 1069 693 1069 693 1051 644 c 128,-1,2
 1033 595 1033 595 1002.5 559 c 128,-1,3
 972 523 972 523 930.5 499 c 128,-1,4
 889 475 889 475 842 460 c 128,-1,5
 795 445 795 445 744.5 437.5 c 128,-1,6
 694 430 694 430 646 428 c 1,7,-1
 1014 84 l 2,8,9
 1031 68 1031 68 1031.5 51 c 128,-1,10
 1032 34 1032 34 1021 24 c 128,-1,11
 1010 14 1010 14 990.5 16 c 128,-1,12
 971 18 971 18 949 39 c 2,13,-1
 548 422 l 1,14,-1
 174 431 l 1,15,-1
 174 76 l 2,16,17
 174 61 174 61 172.5 47.5 c 128,-1,18
 171 34 171 34 167 23.5 c 128,-1,19
 163 13 163 13 155.5 6.5 c 128,-1,20
 148 0 148 0 136 0 c 0,21,22
 107 0 107 0 98 22.5 c 128,-1,23
 89 45 89 45 89 76 c 2,24,-1
 89 1077 l 2,25,26
 89 1092 89 1092 89.5 1099.5 c 128,-1,27
 90 1107 90 1107 93 1110 c 128,-1,28
 96 1113 96 1113 103.5 1113.5 c 128,-1,29
 111 1114 111 1114 126 1114 c 2,30,-1
 416 1114 l 2,31,32
 508 1114 508 1114 592 1112 c 128,-1,33
 676 1110 676 1110 748.5 1099 c 128,-1,34
 821 1088 821 1088 880 1066.5 c 128,-1,35
 939 1045 939 1045 981 1005 c 128,-1,36
 1023 965 1023 965 1046 905 c 128,-1,37
 1069 845 1069 845 1069 758 c 0,0,1
984 758 m 0,38,39
 984 861 984 861 946.5 919.5 c 128,-1,40
 909 978 909 978 837 1006.5 c 128,-1,41
 765 1035 765 1035 659 1041.5 c 128,-1,42
 553 1048 553 1048 416 1048 c 2,43,-1
 174 1048 l 1,44,-1
 174 488 l 1,45,-1
 549 488 l 2,46,47
 636 488 636 488 715 496.5 c 128,-1,48
 794 505 794 505 853.5 533.5 c 128,-1,49
 913 562 913 562 948.5 615.5 c 128,-1,50
 984 669 984 669 984 758 c 0,38,39
EndSplineSet
EndChar

StartChar: S
Encoding: 83 83 72
Width: 1430
Flags: W
HStem: -20 66<423.859 1076.01> 545.5 72<358.486 1063.26> 971 65<1173.61 1267.2> 1069 66<364.014 1012.09>
VStem: 60 85<724.623 938.783> 1292 85<183.623 422.859>
DStem2: 389.5 84.5 368 18.5 0.987273 -0.159034<-299.293 397.861> 578.5 628 493.5 557 0.996904 -0.078629<-345.495 625.912>
LayerCount: 2
Fore
SplineSet
1377 311 m 0,0,1
 1377 247 1377 247 1354 197.5 c 128,-1,2
 1331 148 1331 148 1290 111.5 c 128,-1,3
 1249 75 1249 75 1192.5 49.5 c 128,-1,4
 1136 24 1136 24 1070 8.5 c 128,-1,5
 1004 -7 1004 -7 929.5 -13.5 c 128,-1,6
 855 -20 855 -20 779 -20 c 0,7,8
 672 -20 672 -20 566 -9 c 128,-1,9
 460 2 460 2 368 18.5 c 128,-1,10
 276 35 276 35 205.5 54 c 128,-1,11
 135 73 135 73 99 90 c 0,12,13
 85 97 85 97 78.5 107.5 c 128,-1,14
 72 118 72 118 72 129 c 0,15,16
 72 141 72 141 78.5 149.5 c 128,-1,17
 85 158 85 158 98 158 c 0,18,19
 104 158 104 158 112 155 c 0,20,21
 151 139 151 139 224 120 c 128,-1,22
 297 101 297 101 389.5 84.5 c 128,-1,23
 482 68 482 68 586.5 57 c 128,-1,24
 691 46 691 46 794 46 c 0,25,26
 894 46 894 46 984 59 c 128,-1,27
 1074 72 1074 72 1142.5 103 c 128,-1,28
 1211 134 1211 134 1251.5 185 c 128,-1,29
 1292 236 1292 236 1292 311 c 0,30,31
 1292 374 1292 374 1257.5 414.5 c 128,-1,32
 1223 455 1223 455 1164 479.5 c 128,-1,33
 1105 504 1105 504 1026 516.5 c 128,-1,34
 947 529 947 529 858.5 535.5 c 128,-1,35
 770 542 770 542 676 545.5 c 128,-1,36
 582 549 582 549 493.5 557 c 128,-1,37
 405 565 405 565 326 580 c 128,-1,38
 247 595 247 595 188 624 c 128,-1,39
 129 653 129 653 94.5 699 c 128,-1,40
 60 745 60 745 60 815 c 0,41,42
 60 879 60 879 84 928 c 128,-1,43
 108 977 108 977 150 1012.5 c 128,-1,44
 192 1048 192 1048 249.5 1071.5 c 128,-1,45
 307 1095 307 1095 374.5 1109 c 128,-1,46
 442 1123 442 1123 516 1129 c 128,-1,47
 590 1135 590 1135 666 1135 c 0,48,49
 758 1135 758 1135 848.5 1126.5 c 128,-1,50
 939 1118 939 1118 1018 1104 c 128,-1,51
 1097 1090 1097 1090 1160 1072 c 128,-1,52
 1223 1054 1223 1054 1261 1036 c 0,53,54
 1269 1032 1269 1032 1273 1024.5 c 128,-1,55
 1277 1017 1277 1017 1277 1009 c 0,56,57
 1277 995 1277 995 1267.5 983 c 128,-1,58
 1258 971 1258 971 1241 971 c 0,59,60
 1232 971 1232 971 1224 975 c 0,61,62
 1171 997 1171 997 1106.5 1014.5 c 128,-1,63
 1042 1032 1042 1032 970 1044 c 128,-1,64
 898 1056 898 1056 821.5 1062.5 c 128,-1,65
 745 1069 745 1069 670 1069 c 0,66,67
 566 1069 566 1069 471 1057 c 128,-1,68
 376 1045 376 1045 303.5 1016.5 c 128,-1,69
 231 988 231 988 188 940.5 c 128,-1,70
 145 893 145 893 145 821 c 0,71,72
 145 766 145 766 179.5 731.5 c 128,-1,73
 214 697 214 697 273 676 c 128,-1,74
 332 655 332 655 411 644.5 c 128,-1,75
 490 634 490 634 578.5 628 c 128,-1,76
 667 622 667 622 761 617.5 c 128,-1,77
 855 613 855 613 943.5 602.5 c 128,-1,78
 1032 592 1032 592 1111 573.5 c 128,-1,79
 1190 555 1190 555 1249 522 c 128,-1,80
 1308 489 1308 489 1342.5 437.5 c 128,-1,81
 1377 386 1377 386 1377 311 c 0,0,1
EndSplineSet
EndChar

StartChar: T
Encoding: 84 84 73
Width: 1327
Flags: W
HStem: 0 21G<653 673.5> 1048 66<17.2196 623 708 1310.81>
VStem: 623 85<0.00585938 1048>
LayerCount: 2
Fore
SplineSet
1317 1077 m 0,0,1
 1317 1065 1317 1065 1311 1058.5 c 128,-1,2
 1305 1052 1305 1052 1295.5 1050 c 128,-1,3
 1286 1048 1286 1048 1273 1048 c 128,-1,4
 1260 1048 1260 1048 1245 1048 c 2,5,-1
 708 1048 l 1,6,-1
 708 74 l 2,7,8
 708 59 708 59 707 46 c 128,-1,9
 706 33 706 33 701.5 22.5 c 128,-1,10
 697 12 697 12 689 6 c 128,-1,11
 681 0 681 0 666 0 c 0,12,13
 640 0 640 0 631.5 22.5 c 128,-1,14
 623 45 623 45 623 74 c 2,15,-1
 623 1048 l 1,16,-1
 84 1048 l 2,17,18
 71 1048 71 1048 57.5 1048 c 128,-1,19
 44 1048 44 1048 33.5 1050 c 128,-1,20
 23 1052 23 1052 16.5 1058.5 c 128,-1,21
 10 1065 10 1065 10 1077 c 0,22,23
 10 1092 10 1092 17 1099.5 c 128,-1,24
 24 1107 24 1107 34.5 1110 c 128,-1,25
 45 1113 45 1113 58.5 1113.5 c 128,-1,26
 72 1114 72 1114 84 1114 c 2,27,-1
 1245 1114 l 2,28,29
 1260 1114 1260 1114 1273 1113.5 c 128,-1,30
 1286 1113 1286 1113 1295.5 1110 c 128,-1,31
 1305 1107 1305 1107 1311 1099.5 c 128,-1,32
 1317 1092 1317 1092 1317 1077 c 0,0,1
EndSplineSet
EndChar

StartChar: U
Encoding: 85 85 74
Width: 1461
Flags: W
HStem: -21 66<454.567 1004.92> 1094 20G<114.5 134.5 1326.5 1346.5>
VStem: 77 85<290.057 1113.95> 1298 85<290.057 1113.98>
LayerCount: 2
Fore
SplineSet
730 45 m 0,0,1
 893 45 893 45 1002.5 76.5 c 128,-1,2
 1112 108 1112 108 1177.5 172 c 128,-1,3
 1243 236 1243 236 1270.5 332.5 c 128,-1,4
 1298 429 1298 429 1298 560 c 2,5,-1
 1298 1044 l 2,6,7
 1298 1070 1298 1070 1306 1092 c 128,-1,8
 1314 1114 1314 1114 1339 1114 c 0,9,10
 1354 1114 1354 1114 1362.5 1108 c 128,-1,11
 1371 1102 1371 1102 1375.5 1092 c 128,-1,12
 1380 1082 1380 1082 1381.5 1069.5 c 128,-1,13
 1383 1057 1383 1057 1383 1044 c 2,14,-1
 1383 560 l 2,15,16
 1383 404 1383 404 1342.5 293.5 c 128,-1,17
 1302 183 1302 183 1220 113 c 128,-1,18
 1138 43 1138 43 1015.5 11 c 128,-1,19
 893 -21 893 -21 730 -21 c 0,20,21
 566 -21 566 -21 444 11 c 128,-1,22
 322 43 322 43 240 113 c 128,-1,23
 158 183 158 183 117.5 293.5 c 128,-1,24
 77 404 77 404 77 560 c 2,25,-1
 77 1044 l 2,26,27
 77 1057 77 1057 78.5 1069.5 c 128,-1,28
 80 1082 80 1082 85 1092 c 128,-1,29
 90 1102 90 1102 98.5 1108 c 128,-1,30
 107 1114 107 1114 122 1114 c 0,31,32
 147 1114 147 1114 154.5 1092 c 128,-1,33
 162 1070 162 1070 162 1044 c 2,34,-1
 162 560 l 2,35,36
 162 429 162 429 189.5 332.5 c 128,-1,37
 217 236 217 236 282.5 172 c 128,-1,38
 348 108 348 108 457 76.5 c 128,-1,39
 566 45 566 45 730 45 c 0,0,1
EndSplineSet
EndChar

StartChar: V
Encoding: 86 86 75
Width: 1369
Flags: W
HStem: 1098 20G<53.5 70.5 1298 1314.5>
DStem2: 113 1069 48 1034 0.508349 -0.861151<-56.156 1126.95> 685 98 736 43 0.506742 0.862098<0 1180.78>
LayerCount: 2
Fore
SplineSet
685 98 m 1,0,-1
 1256 1069 l 2,1,2
 1267 1088 1267 1088 1279 1102 c 128,-1,3
 1291 1116 1291 1116 1305 1118 c 1,4,5
 1324 1118 1324 1118 1332 1106 c 128,-1,6
 1340 1094 1340 1094 1340 1083 c 256,7,8
 1340 1072 1340 1072 1333.5 1059.5 c 128,-1,9
 1327 1047 1327 1047 1319 1034 c 2,10,-1
 736 43 l 2,11,12
 725 25 725 25 711 16.5 c 128,-1,13
 697 8 697 8 683 8.5 c 128,-1,14
 669 9 669 9 655.5 18 c 128,-1,15
 642 27 642 27 633 43 c 2,16,-1
 48 1034 l 2,17,18
 40 1048 40 1048 34.5 1060.5 c 128,-1,19
 29 1073 29 1073 29 1085 c 0,20,21
 29 1093 29 1093 37 1105.5 c 128,-1,22
 45 1118 45 1118 62 1118 c 1,23,24
 79 1116 79 1116 90.5 1102 c 128,-1,25
 102 1088 102 1088 113 1069 c 2,26,-1
 685 98 l 1,0,-1
EndSplineSet
EndChar

StartChar: W
Encoding: 87 87 76
Width: 1701
Flags: W
HStem: -2 21G<459 478.5 1221 1241> 1096 20G<82 101.5 839 854 1601.5 1620>
VStem: 56 64.5<1034 1104.66>
DStem2: 138 1061 70 1034 0.337282 -0.941404<-48.0438 994.677> 469 123 518 51 0.335446 0.94206<0 937.976> 899 1061 850 983 0.333661 -0.942693<57.1807 995.022> 1231 123 1280 51 0.337282 0.941404<0 1043.06>
LayerCount: 2
Fore
SplineSet
1231 123 m 1,0,-1
 1565 1061 l 2,1,2
 1573 1081 1573 1081 1583 1098.5 c 128,-1,3
 1593 1116 1593 1116 1610 1116 c 0,4,5
 1630 1116 1630 1116 1637.5 1105 c 128,-1,6
 1645 1094 1645 1094 1645 1083 c 256,7,8
 1645 1072 1645 1072 1641.5 1060 c 128,-1,9
 1638 1048 1638 1048 1633 1034 c 2,10,-1
 1280 51 l 1,11,12
 1269 28 1269 28 1260 13 c 128,-1,13
 1251 -2 1251 -2 1231 -2 c 256,14,15
 1211 -2 1211 -2 1201.5 13 c 128,-1,16
 1192 28 1192 28 1184 51 c 2,17,-1
 850 983 l 1,18,-1
 518 51 l 2,19,20
 510 28 510 28 499 13 c 128,-1,21
 488 -2 488 -2 469 -2 c 0,22,23
 449 -2 449 -2 439.5 13 c 128,-1,24
 430 28 430 28 422 51 c 2,25,-1
 70 1034 l 2,26,27
 65 1048 65 1048 60.5 1060 c 128,-1,28
 56 1072 56 1072 56 1083 c 256,29,30
 56 1094 56 1094 64 1105 c 128,-1,31
 72 1116 72 1116 92 1116 c 0,32,33
 111 1116 111 1116 120.5 1098.5 c 128,-1,34
 130 1081 130 1081 138 1061 c 2,35,-1
 469 123 l 1,36,-1
 803 1061 l 2,37,38
 811 1081 811 1081 820.5 1098.5 c 128,-1,39
 830 1116 830 1116 848 1116 c 0,40,41
 860 1116 860 1116 867.5 1112 c 128,-1,42
 875 1108 875 1108 880 1100.5 c 128,-1,43
 885 1093 885 1093 889.5 1083 c 128,-1,44
 894 1073 894 1073 899 1061 c 2,45,-1
 1231 123 l 1,0,-1
EndSplineSet
EndChar

StartChar: X
Encoding: 88 88 77
Width: 1314
Flags: W
HStem: 508 98<608 706>
DStem2: 98 76 148 25 0.71787 0.696178<-42.4926 698.821 773.48 1510.71> 657 606 107 1052 0.71787 -0.696178<-753.757 -3.21652 71.4419 812.756>
LayerCount: 2
Fore
SplineSet
657 606 m 1,0,-1
 1153 1103 l 2,1,2
 1172 1122 1172 1122 1189 1122.5 c 128,-1,3
 1206 1123 1206 1123 1215.5 1113 c 128,-1,4
 1225 1103 1225 1103 1224 1085.5 c 128,-1,5
 1223 1068 1223 1068 1207 1052 c 2,6,-1
 709 557 l 1,7,-1
 1216 76 l 2,8,9
 1236 57 1236 57 1239.5 38.5 c 128,-1,10
 1243 20 1243 20 1234 10 c 128,-1,11
 1225 0 1225 0 1206.5 2 c 128,-1,12
 1188 4 1188 4 1166 25 c 2,13,-1
 657 508 l 1,14,-1
 148 25 l 2,15,16
 125 4 125 4 107 2 c 128,-1,17
 89 0 89 0 80 10 c 128,-1,18
 71 20 71 20 74.5 38.5 c 128,-1,19
 78 57 78 57 98 76 c 2,20,-1
 605 557 l 1,21,-1
 107 1052 l 2,22,23
 90 1068 90 1068 89.5 1085.5 c 128,-1,24
 89 1103 89 1103 98.5 1113 c 128,-1,25
 108 1123 108 1123 125 1122.5 c 128,-1,26
 142 1122 142 1122 161 1103 c 2,27,-1
 657 606 l 1,0,-1
EndSplineSet
EndChar

StartChar: Y
Encoding: 89 89 78
Width: 1163
Flags: W
HStem: -6 541<311.5 852.5>
VStem: 540 85<15.142 471>
DStem2: 125 1091 66 1042 0.640052 -0.768332<-40.4065 719.696> 582 535 625 471 0.637126 0.77076<0 759.391>
LayerCount: 2
Fore
SplineSet
582 535 m 1,0,-1
 1039 1091 l 2,1,2
 1056 1112 1056 1112 1073.5 1114.5 c 128,-1,3
 1091 1117 1091 1117 1102.5 1108 c 128,-1,4
 1114 1099 1114 1099 1114.5 1081 c 128,-1,5
 1115 1063 1115 1063 1097 1042 c 2,6,-1
 625 471 l 1,7,-1
 625 63 l 2,8,9
 625 34 625 34 617.5 14 c 128,-1,10
 610 -6 610 -6 585 -6 c 0,11,12
 556 -6 556 -6 548 14.5 c 128,-1,13
 540 35 540 35 540 61 c 2,14,-1
 540 473 l 1,15,-1
 66 1042 l 2,16,17
 48 1063 48 1063 48.5 1081 c 128,-1,18
 49 1099 49 1099 60.5 1108.5 c 128,-1,19
 72 1118 72 1118 90 1115 c 128,-1,20
 108 1112 108 1112 125 1091 c 2,21,-1
 582 535 l 1,0,-1
EndSplineSet
EndChar

StartChar: Z
Encoding: 90 90 79
Width: 1293
Flags: W
HStem: 0 66<150 1224.62> 1048 66<64.3467 1141>
DStem2: 57 88 150 66 0.748931 0.662648<55.0723 1447.98>
LayerCount: 2
Fore
SplineSet
150 66 m 1,0,-1
 1190 66 l 2,1,2
 1213 66 1213 66 1225 55.5 c 128,-1,3
 1237 45 1237 45 1237 33 c 0,4,5
 1237 20 1237 20 1225 10 c 128,-1,6
 1213 0 1213 0 1190 0 c 2,7,-1
 98 0 l 2,8,9
 63 0 63 0 44 4 c 128,-1,10
 25 8 25 8 25 33 c 0,11,12
 25 50 25 50 32.5 62 c 128,-1,13
 40 74 40 74 57 88 c 2,14,-1
 1141 1048 l 1,15,-1
 98 1048 l 2,16,17
 75 1048 75 1048 64 1058 c 128,-1,18
 53 1068 53 1068 53 1081 c 0,19,20
 53 1093 53 1093 64 1103.5 c 128,-1,21
 75 1114 75 1114 98 1114 c 2,22,-1
 1186 1114 l 2,23,24
 1221 1114 1221 1114 1244.5 1109 c 128,-1,25
 1268 1104 1268 1104 1268 1079 c 0,26,27
 1268 1065 1268 1065 1257 1051.5 c 128,-1,28
 1246 1038 1246 1038 1235 1026 c 1,29,-1
 150 66 l 1,0,-1
EndSplineSet
EndChar

StartChar: bracketleft
Encoding: 91 91 80
Width: 308
Flags: W
HStem: -209 70<159 293.685> 1253 70<159 298.327>
VStem: 87 72<-139 1253> 87.5 216.5<-202.808 -148.737 1267.74 1308.78>
LayerCount: 2
Fore
SplineSet
304 -174 m 0,0,1
 304 -197 304 -197 283 -203 c 128,-1,2
 262 -209 262 -209 233 -209 c 2,3,-1
 126 -209 l 2,4,5
 111 -209 111 -209 103 -203.5 c 128,-1,6
 95 -198 95 -198 91.5 -188.5 c 128,-1,7
 88 -179 88 -179 87.5 -166.5 c 128,-1,8
 87 -154 87 -154 87 -139 c 2,9,-1
 87 1253 l 2,10,11
 87 1268 87 1268 87.5 1280.5 c 128,-1,12
 88 1293 88 1293 92 1302.5 c 128,-1,13
 96 1312 96 1312 104.5 1317.5 c 128,-1,14
 113 1323 113 1323 128 1323 c 2,15,-1
 233 1323 l 2,16,17
 248 1323 248 1323 260.5 1322.5 c 128,-1,18
 273 1322 273 1322 283 1319 c 128,-1,19
 293 1316 293 1316 298.5 1309 c 128,-1,20
 304 1302 304 1302 304 1290 c 0,21,22
 304 1275 304 1275 298.5 1267.5 c 128,-1,23
 293 1260 293 1260 283 1257 c 128,-1,24
 273 1254 273 1254 260.5 1253.5 c 128,-1,25
 248 1253 248 1253 233 1253 c 2,26,-1
 159 1253 l 1,27,-1
 159 -139 l 1,28,29
 193 -139 193 -139 219.5 -138 c 128,-1,30
 246 -137 246 -137 265 -139 c 128,-1,31
 284 -141 284 -141 294 -148.5 c 128,-1,32
 304 -156 304 -156 304 -174 c 0,0,1
EndSplineSet
EndChar

StartChar: backslash
Encoding: 92 92 81
Width: 560
Flags: W
VStem: 5 549
DStem2: 77.5 1138 20 1092 0.381102 -0.924533<-30.1711 1263.99>
LayerCount: 2
Fore
SplineSet
540 16 m 2,0,1
 548 -1 548 -1 551 -13 c 128,-1,2
 554 -25 554 -25 554 -33 c 0,3,4
 554 -44 554 -44 546 -53.5 c 128,-1,5
 538 -63 538 -63 519 -63 c 0,6,7
 501 -63 501 -63 490.5 -46.5 c 128,-1,8
 480 -30 480 -30 472 -10 c 2,9,-1
 20 1092 l 2,10,11
 12 1109 12 1109 8.5 1121 c 128,-1,12
 5 1133 5 1133 5 1141 c 0,13,14
 5 1152 5 1152 13.5 1163 c 128,-1,15
 22 1174 22 1174 42 1174 c 0,16,17
 51 1174 51 1174 57.5 1169 c 128,-1,18
 64 1164 64 1164 68.5 1156 c 128,-1,19
 73 1148 73 1148 77.5 1138 c 128,-1,20
 82 1128 82 1128 87 1118 c 2,21,-1
 540 16 l 2,0,1
EndSplineSet
EndChar

StartChar: bracketright
Encoding: 93 93 82
Width: 307
Flags: W
HStem: -209 70.5<13.8302 149> 1253 70<9.70398 149>
VStem: 3 216.5<-207.871 -150.736 1267.74 1322.41> 149 71<-139 1253>
LayerCount: 2
Fore
SplineSet
3 -174 m 0,0,1
 3 -158 3 -158 13.5 -150.5 c 128,-1,2
 24 -143 24 -143 43 -140.5 c 128,-1,3
 62 -138 62 -138 89 -138.5 c 128,-1,4
 116 -139 116 -139 149 -139 c 1,5,-1
 149 1253 l 1,6,-1
 75 1253 l 2,7,8
 62 1253 62 1253 49 1253.5 c 128,-1,9
 36 1254 36 1254 26 1257 c 128,-1,10
 16 1260 16 1260 9.5 1267.5 c 128,-1,11
 3 1275 3 1275 3 1290 c 0,12,13
 3 1302 3 1302 9.5 1309 c 128,-1,14
 16 1316 16 1316 26 1319 c 128,-1,15
 36 1322 36 1322 49 1322.5 c 128,-1,16
 62 1323 62 1323 75 1323 c 2,17,-1
 179 1323 l 2,18,19
 194 1323 194 1323 202.5 1317.5 c 128,-1,20
 211 1312 211 1312 215 1302.5 c 128,-1,21
 219 1293 219 1293 219.5 1280.5 c 128,-1,22
 220 1268 220 1268 220 1253 c 2,23,-1
 220 -139 l 2,24,25
 220 -154 220 -154 219.5 -166.5 c 128,-1,26
 219 -179 219 -179 215.5 -188.5 c 128,-1,27
 212 -198 212 -198 204 -203.5 c 128,-1,28
 196 -209 196 -209 181 -209 c 2,29,-1
 75 -209 l 2,30,31
 62 -209 62 -209 49 -208 c 128,-1,32
 36 -207 36 -207 26 -203 c 128,-1,33
 16 -199 16 -199 9.5 -192.5 c 128,-1,34
 3 -186 3 -186 3 -174 c 0,0,1
EndSplineSet
EndChar

StartChar: asciicircum
Encoding: 94 94 83
Width: 619
Flags: W
HStem: 954 334
VStem: 39 541<981 1000>
DStem2: 48.5 1012 123 991 0.66371 0.74799<-24.6998 33.7175 141.433 318.207> 365 1255 312 1204 0.66495 -0.746887<2.84889 341.332>
LayerCount: 2
Fore
SplineSet
312 1204 m 1,0,-1
 172 1049 l 2,1,2
 163 1038 163 1038 150 1022 c 128,-1,3
 137 1006 137 1006 123 991 c 128,-1,4
 109 976 109 976 95.5 965 c 128,-1,5
 82 954 82 954 72 954 c 0,6,7
 58 954 58 954 48.5 966.5 c 128,-1,8
 39 979 39 979 39 987 c 0,9,10
 39 1000 39 1000 48.5 1012 c 128,-1,11
 58 1024 58 1024 70 1038 c 1,12,13
 78 1049 78 1049 96 1072 c 128,-1,14
 114 1095 114 1095 136.5 1123 c 128,-1,15
 159 1151 159 1151 184.5 1180 c 128,-1,16
 210 1209 210 1209 234 1233 c 128,-1,17
 258 1257 258 1257 278 1272.5 c 128,-1,18
 298 1288 298 1288 310 1288 c 0,19,20
 321 1288 321 1288 330.5 1283 c 128,-1,21
 340 1278 340 1278 348 1272 c 1,22,-1
 365 1255 l 1,23,-1
 551 1038 l 1,24,25
 564 1026 564 1026 572 1014 c 128,-1,26
 580 1002 580 1002 580 989 c 0,27,28
 580 981 580 981 572 967.5 c 128,-1,29
 564 954 564 954 547 954 c 0,30,31
 535 954 535 954 523 967 c 128,-1,32
 511 980 511 980 494 997 c 1,33,-1
 312 1204 l 1,0,-1
EndSplineSet
EndChar

StartChar: underscore
Encoding: 95 95 84
Width: 1439
Flags: W
HStem: 184 88<95.7684 1342.72>
LayerCount: 2
Fore
SplineSet
1352 228 m 256,0,1
 1352 211 1352 211 1343 197.5 c 128,-1,2
 1334 184 1334 184 1314 184 c 2,3,-1
 124 184 l 2,4,5
 104 184 104 184 95.5 197.5 c 128,-1,6
 87 211 87 211 87 228 c 256,7,8
 87 245 87 245 95.5 258.5 c 128,-1,9
 104 272 104 272 124 272 c 2,10,-1
 1314 272 l 2,11,12
 1334 272 1334 272 1343 258.5 c 128,-1,13
 1352 245 1352 245 1352 228 c 256,0,1
EndSplineSet
EndChar

StartChar: grave
Encoding: 96 96 85
Width: 376
Flags: W
HStem: 46 331
VStem: 12 349
LayerCount: 2
Fore
SplineSet
353 90 m 2,0,1
 361 82 361 82 361 72 c 0,2,3
 361 61 361 61 353 53.5 c 128,-1,4
 345 46 345 46 334 46 c 0,5,6
 325 46 325 46 319 51 c 2,7,-1
 27 288 l 2,8,9
 12 300 12 300 12 316 c 0,10,11
 12 327 12 327 18 338 c 128,-1,12
 24 349 24 349 33 357.5 c 128,-1,13
 42 366 42 366 53.5 371.5 c 128,-1,14
 65 377 65 377 76 377 c 0,15,16
 90 377 90 377 101 366 c 2,17,-1
 353 90 l 2,0,1
EndSplineSet
EndChar

StartChar: a
Encoding: 97 97 86
Width: 1052
Flags: W
HStem: -10 59<263.938 694.576> 418 59<253.727 775.017> 727 59<300.608 737.546>
VStem: 64 80<125.921 342.447> 893 81<0.00634766 143 147.348 384.242 409 586.792>
DStem2: 589.5 472.5 607.5 412 0.993386 -0.114822<-110.463 307.726>
LayerCount: 2
Fore
SplineSet
144 224 m 0,0,1
 144 176 144 176 168.5 143 c 128,-1,2
 193 110 193 110 237 89 c 128,-1,3
 281 68 281 68 341.5 58.5 c 128,-1,4
 402 49 402 49 474 49 c 0,5,6
 583 49 583 49 661.5 69 c 128,-1,7
 740 89 740 89 792 113 c 0,8,9
 853 141 853 141 893 178 c 1,10,-1
 893 379 l 1,11,12
 819 389 819 389 745 398 c 0,13,14
 681 406 681 406 607.5 412 c 128,-1,15
 534 418 534 418 470 418 c 0,16,17
 393 418 393 418 332.5 409 c 128,-1,18
 272 400 272 400 230 378 c 128,-1,19
 188 356 188 356 166 318.5 c 128,-1,20
 144 281 144 281 144 224 c 0,0,1
549 727 m 0,21,22
 454 727 454 727 383 715 c 128,-1,23
 312 703 312 703 261 686 c 128,-1,24
 210 669 210 669 177.5 651 c 128,-1,25
 145 633 145 633 127 621 c 0,26,27
 119 616 119 616 110 620 c 128,-1,28
 101 624 101 624 95 633 c 128,-1,29
 89 642 89 642 89 652.5 c 128,-1,30
 89 663 89 663 99 670 c 1,31,32
 108 679 108 679 138 698 c 128,-1,33
 168 717 168 717 222.5 736.5 c 128,-1,34
 277 756 277 756 358 771 c 128,-1,35
 439 786 439 786 550 786 c 0,36,37
 630 786 630 786 706.5 770.5 c 128,-1,38
 783 755 783 755 842.5 709 c 128,-1,39
 902 663 902 663 938 579 c 128,-1,40
 974 495 974 495 974 358 c 2,41,-1
 974 70 l 2,42,43
 974 58 974 58 973 46 c 128,-1,44
 972 34 972 34 967.5 23.5 c 128,-1,45
 963 13 963 13 955 6.5 c 128,-1,46
 947 0 947 0 933 0 c 0,47,48
 910 0 910 0 901.5 21 c 128,-1,49
 893 42 893 42 893 74 c 2,50,-1
 893 143 l 1,51,52
 859 99 859 99 803 66 c 0,53,54
 755 37 755 37 676 13.5 c 128,-1,55
 597 -10 597 -10 482 -10 c 0,56,57
 395 -10 395 -10 318.5 3 c 128,-1,58
 242 16 242 16 185.5 44 c 128,-1,59
 129 72 129 72 96.5 116.5 c 128,-1,60
 64 161 64 161 64 224 c 0,61,62
 64 297 64 297 94.5 345.5 c 128,-1,63
 125 394 125 394 179 423.5 c 128,-1,64
 233 453 233 453 305.5 465 c 128,-1,65
 378 477 378 477 462 477 c 0,66,67
 526 477 526 477 589.5 472.5 c 128,-1,68
 653 468 653 468 709.5 459.5 c 128,-1,69
 766 451 766 451 813.5 438.5 c 128,-1,70
 861 426 861 426 893 409 c 1,71,72
 893 511 893 511 864.5 573 c 128,-1,73
 836 635 836 635 788 669.5 c 128,-1,74
 740 704 740 704 678 715.5 c 128,-1,75
 616 727 616 727 549 727 c 0,21,22
EndSplineSet
EndChar

StartChar: b
Encoding: 98 98 87
Width: 1082
Flags: W
HStem: -10 59<376.582 809.205> 727 59<385.955 798.484> 1094 20G<122.5 137.5>
VStem: 88 80<6.18848 97 125.85 1105.23> 981 80<192.919 576.986>
LayerCount: 2
Fore
SplineSet
618 786 m 0,0,1
 708 786 708 786 788.5 767.5 c 128,-1,2
 869 749 869 749 929.5 704 c 128,-1,3
 990 659 990 659 1025.5 584 c 128,-1,4
 1061 509 1061 509 1061 396 c 0,5,6
 1061 284 1061 284 1031.5 206.5 c 128,-1,7
 1002 129 1002 129 945.5 81 c 128,-1,8
 889 33 889 33 806.5 11.5 c 128,-1,9
 724 -10 724 -10 618 -10 c 0,10,11
 518 -10 518 -10 435.5 6.5 c 128,-1,12
 353 23 353 23 293 43 c 0,13,14
 223 67 223 67 168 97 c 1,15,-1
 168 73 l 2,16,17
 168 58 168 58 167 45 c 128,-1,18
 166 32 166 32 162 22 c 128,-1,19
 158 12 158 12 150 6 c 128,-1,20
 142 0 142 0 127 0 c 256,21,22
 112 0 112 0 104.5 6 c 128,-1,23
 97 12 97 12 93 22 c 128,-1,24
 89 32 89 32 88.5 45 c 128,-1,25
 88 58 88 58 88 73 c 2,26,-1
 88 1065 l 2,27,28
 88 1097 88 1097 101.5 1105.5 c 128,-1,29
 115 1114 115 1114 130 1114 c 256,30,31
 145 1114 145 1114 156.5 1105.5 c 128,-1,32
 168 1097 168 1097 168 1065 c 2,33,-1
 168 587 l 1,34,35
 179 630 179 630 207.5 661 c 128,-1,36
 236 692 236 692 274.5 714 c 128,-1,37
 313 736 313 736 358.5 750 c 128,-1,38
 404 764 404 764 450 772 c 128,-1,39
 496 780 496 780 539.5 783 c 128,-1,40
 583 786 583 786 618 786 c 0,0,1
618 727 m 1,41,42
 558 726 558 726 487 717.5 c 128,-1,43
 416 709 416 709 351 687 c 128,-1,44
 286 665 286 665 236 626 c 128,-1,45
 186 587 186 587 168 524 c 1,46,-1
 168 140 l 1,47,48
 235 114 235 114 309 94 c 0,49,50
 372 77 372 77 452.5 63 c 128,-1,51
 533 49 533 49 618 49 c 0,52,53
 714 49 714 49 782.5 69 c 128,-1,54
 851 89 851 89 895.5 131.5 c 128,-1,55
 940 174 940 174 960.5 239.5 c 128,-1,56
 981 305 981 305 981 396 c 0,57,58
 981 490 981 490 952.5 554 c 128,-1,59
 924 618 924 618 875 656 c 128,-1,60
 826 694 826 694 759.5 710.5 c 128,-1,61
 693 727 693 727 618 727 c 1,41,42
EndSplineSet
EndChar

StartChar: c
Encoding: 99 99 88
Width: 1025
Flags: W
HStem: -10 59<345.87 780.818> 727 59<341.652 780.008>
VStem: 66 80<201.904 575.644> 573 1<726.5 727.5>
LayerCount: 2
Fore
SplineSet
574 727 m 2,0,1
 459 727 459 727 378 708 c 128,-1,2
 297 689 297 689 245.5 647.5 c 128,-1,3
 194 606 194 606 170 541 c 128,-1,4
 146 476 146 476 146 385 c 0,5,6
 146 293 146 293 172.5 229 c 128,-1,7
 199 165 199 165 252.5 125 c 128,-1,8
 306 85 306 85 386 67 c 128,-1,9
 466 49 466 49 573 49 c 0,10,11
 621 49 621 49 670.5 56 c 128,-1,12
 720 63 720 63 765 74 c 128,-1,13
 810 85 810 85 848 97.5 c 128,-1,14
 886 110 886 110 910 122 c 0,15,16
 920 127 920 127 931 127 c 0,17,18
 944 127 944 127 951.5 119.5 c 128,-1,19
 959 112 959 112 959 101 c 0,20,21
 959 93 959 93 954 84.5 c 128,-1,22
 949 76 949 76 938 70 c 0,23,24
 851 25 851 25 756.5 7.5 c 128,-1,25
 662 -10 662 -10 574 -10 c 0,26,27
 460 -10 460 -10 366.5 8 c 128,-1,28
 273 26 273 26 206.5 71 c 128,-1,29
 140 116 140 116 103 192 c 128,-1,30
 66 268 66 268 66 385 c 0,31,32
 66 501 66 501 100 578 c 128,-1,33
 134 655 134 655 199 701.5 c 128,-1,34
 264 748 264 748 358.5 767 c 128,-1,35
 453 786 453 786 574 786 c 0,36,37
 662 786 662 786 756.5 768.5 c 128,-1,38
 851 751 851 751 938 706 c 0,39,40
 949 700 949 700 954 691.5 c 128,-1,41
 959 683 959 683 959 675 c 0,42,43
 959 664 959 664 951.5 656.5 c 128,-1,44
 944 649 944 649 931 649 c 0,45,46
 920 649 920 649 910 654 c 0,47,48
 886 666 886 666 848 678.5 c 128,-1,49
 810 691 810 691 765 702 c 128,-1,50
 720 713 720 713 670.5 720 c 128,-1,51
 621 727 621 727 573 727 c 2,52,-1
 574 727 l 2,0,1
EndSplineSet
EndChar

StartChar: d
Encoding: 100 100 89
Width: 1082
Flags: W
HStem: -10 59<283.516 696.045> 727 59<272.795 716.526> 1094 20G<945.5 960.5>
VStem: 21 80<198.849 583.081> 914 80<11.3489 638.168 659 1107.81>
LayerCount: 2
Fore
SplineSet
464 -10 m 0,0,1
 374 -10 374 -10 293.5 8.5 c 128,-1,2
 213 27 213 27 152.5 72 c 128,-1,3
 92 117 92 117 56.5 192 c 128,-1,4
 21 267 21 267 21 380 c 0,5,6
 21 492 21 492 50.5 569.5 c 128,-1,7
 80 647 80 647 136.5 695 c 128,-1,8
 193 743 193 743 275.5 764.5 c 128,-1,9
 358 786 358 786 464 786 c 0,10,11
 593 786 593 786 679.5 766 c 128,-1,12
 766 746 766 746 818 722 c 0,13,14
 879 694 879 694 914 659 c 1,15,-1
 914 1043 l 2,16,17
 914 1056 914 1056 914.5 1069 c 128,-1,18
 915 1082 915 1082 919 1092 c 128,-1,19
 923 1102 923 1102 930.5 1108 c 128,-1,20
 938 1114 938 1114 953 1114 c 256,21,22
 968 1114 968 1114 976 1108.5 c 128,-1,23
 984 1103 984 1103 988 1094 c 128,-1,24
 992 1085 992 1085 993 1072.5 c 128,-1,25
 994 1060 994 1060 994 1045 c 2,26,-1
 994 54 l 2,27,28
 994 22 994 22 981.5 11 c 128,-1,29
 969 0 969 0 955 0 c 0,30,31
 938 0 938 0 926 10 c 128,-1,32
 914 20 914 20 914 52 c 2,33,-1
 914 191 l 1,34,35
 903 148 903 148 874.5 116.5 c 128,-1,36
 846 85 846 85 807.5 63 c 128,-1,37
 769 41 769 41 723.5 27 c 128,-1,38
 678 13 678 13 632 4.5 c 128,-1,39
 586 -4 586 -4 542.5 -7 c 128,-1,40
 499 -10 499 -10 464 -10 c 0,0,1
464 49 m 1,41,42
 524 50 524 50 595 58.5 c 128,-1,43
 666 67 666 67 731 89 c 128,-1,44
 796 111 796 111 846 150 c 128,-1,45
 896 189 896 189 914 252 c 1,46,-1
 914 612 l 1,47,48
 875 643 875 643 813 669 c 0,49,50
 760 691 760 691 674 709 c 128,-1,51
 588 727 588 727 464 727 c 0,52,53
 368 727 368 727 299.5 707 c 128,-1,54
 231 687 231 687 186.5 644.5 c 128,-1,55
 142 602 142 602 121.5 536.5 c 128,-1,56
 101 471 101 471 101 380 c 0,57,58
 101 285 101 285 129.5 221.5 c 128,-1,59
 158 158 158 158 207 120 c 128,-1,60
 256 82 256 82 322.5 65.5 c 128,-1,61
 389 49 389 49 464 49 c 1,41,42
EndSplineSet
EndChar

StartChar: e
Encoding: 101 101 90
Width: 1032
Flags: W
HStem: -10 59<314.225 742.392> 379 52<148 902> 727 59<335.012 743.811>
VStem: 67 80<197.117 389 431 580.005> 902 59<431.5 599.06>
LayerCount: 2
Fore
SplineSet
494 49 m 0,0,1
 589 49 589 49 660 61 c 128,-1,2
 731 73 731 73 782 90 c 128,-1,3
 833 107 833 107 865.5 125 c 128,-1,4
 898 143 898 143 916 155 c 0,5,6
 924 160 924 160 933 156 c 128,-1,7
 942 152 942 152 948 143 c 128,-1,8
 954 134 954 134 954 123.5 c 128,-1,9
 954 113 954 113 944 106 c 1,10,11
 935 97 935 97 905 78 c 128,-1,12
 875 59 875 59 820.5 39.5 c 128,-1,13
 766 20 766 20 685 5 c 128,-1,14
 604 -10 604 -10 493 -10 c 0,15,16
 377 -10 377 -10 296 19 c 128,-1,17
 215 48 215 48 164 100 c 128,-1,18
 113 152 113 152 90 225 c 128,-1,19
 67 298 67 298 67 385 c 0,20,21
 67 501 67 501 104 578 c 128,-1,22
 141 655 141 655 205.5 701.5 c 128,-1,23
 270 748 270 748 357.5 767 c 128,-1,24
 445 786 445 786 546 786 c 0,25,26
 754 786 754 786 857.5 706.5 c 128,-1,27
 961 627 961 627 961 479 c 0,28,29
 961 466 961 466 957 448.5 c 128,-1,30
 953 431 953 431 946.5 415.5 c 128,-1,31
 940 400 940 400 932 389.5 c 128,-1,32
 924 379 924 379 917 379 c 2,33,-1
 643 379 l 1,34,-1
 147 389 l 1,35,36
 149 296 149 296 172 231.5 c 128,-1,37
 195 167 195 167 238 126.5 c 128,-1,38
 281 86 281 86 345 67.5 c 128,-1,39
 409 49 409 49 494 49 c 0,0,1
546 727 m 0,40,41
 453 727 453 727 381 711 c 128,-1,42
 309 695 309 695 258.5 659.5 c 128,-1,43
 208 624 208 624 180 568 c 128,-1,44
 152 512 152 512 148 431 c 1,45,-1
 902 431 l 1,46,-1
 902 485 l 2,47,48
 902 535 902 535 883.5 579 c 128,-1,49
 865 623 865 623 823 656 c 128,-1,50
 781 689 781 689 713 708 c 128,-1,51
 645 727 645 727 546 727 c 0,40,41
EndSplineSet
EndChar

StartChar: f
Encoding: 102 102 91
Width: 661
Flags: W
HStem: 0 21G<187 202.5> 727 48<45.2205 154 234 641.264> 1047 58<293.346 592.458>
VStem: 154 80<8.77136 727 775 998.28>
LayerCount: 2
Fore
SplineSet
234 775 m 1,0,-1
 619 775 l 2,1,2
 634 775 634 775 641.5 767.5 c 128,-1,3
 649 760 649 760 649 751 c 256,4,5
 649 742 649 742 641.5 734.5 c 128,-1,6
 634 727 634 727 619 727 c 2,7,-1
 234 727 l 1,8,-1
 234 49 l 2,9,10
 234 17 234 17 222.5 8.5 c 128,-1,11
 211 0 211 0 194 0 c 0,12,13
 180 0 180 0 167 8.5 c 128,-1,14
 154 17 154 17 154 49 c 2,15,-1
 154 727 l 1,16,-1
 66 727 l 2,17,18
 52 727 52 727 45 734.5 c 128,-1,19
 38 742 38 742 38 751 c 256,20,21
 38 760 38 760 45 767.5 c 128,-1,22
 52 775 52 775 66 775 c 2,23,-1
 155 775 l 1,24,-1
 155 816 l 2,25,26
 155 897 155 897 171.5 952.5 c 128,-1,27
 188 1008 188 1008 218.5 1041.5 c 128,-1,28
 249 1075 249 1075 292 1090 c 128,-1,29
 335 1105 335 1105 389 1105 c 0,30,31
 419 1105 419 1105 446 1103.5 c 128,-1,32
 473 1102 473 1102 500.5 1097.5 c 128,-1,33
 528 1093 528 1093 558.5 1085.5 c 128,-1,34
 589 1078 589 1078 625 1066 c 0,35,36
 634 1063 634 1063 640.5 1059.5 c 128,-1,37
 647 1056 647 1056 651 1050 c 0,38,39
 664 1030 664 1030 645 1017 c 1,40,41
 640 1012 640 1012 629.5 1010.5 c 128,-1,42
 619 1009 619 1009 606 1014 c 0,43,44
 552 1033 552 1033 501.5 1040 c 128,-1,45
 451 1047 451 1047 403 1047 c 0,46,47
 364 1047 364 1047 332.5 1038.5 c 128,-1,48
 301 1030 301 1030 279 1005 c 128,-1,49
 257 980 257 980 245.5 934.5 c 128,-1,50
 234 889 234 889 234 816 c 2,51,-1
 234 775 l 1,0,-1
EndSplineSet
EndChar

StartChar: g
Encoding: 103 103 92
Width: 1099
Flags: W
HStem: -340 70<313.855 777.785> -10 59<310.503 767.503> 717 69<320.414 785.189> 746 20G<959 975.5>
VStem: 57 80<184.457 569.808> 936 80<-150.07 96 126.445 765.427>
DStem2: 201.5 -182.5 190 -258 0.884508 -0.466526<-19.1249 236.761>
LayerCount: 2
Fore
SplineSet
583 717 m 0,0,1
 464 717 464 717 379.5 699.5 c 128,-1,2
 295 682 295 682 241 642.5 c 128,-1,3
 187 603 187 603 162 539 c 128,-1,4
 137 475 137 475 137 383 c 256,5,6
 137 291 137 291 158 227 c 128,-1,7
 179 163 179 163 226.5 123.5 c 128,-1,8
 274 84 274 84 351.5 66.5 c 128,-1,9
 429 49 429 49 542 49 c 0,10,11
 594 49 594 49 646.5 55 c 128,-1,12
 699 61 699 61 749.5 73 c 128,-1,13
 800 85 800 85 847.5 104 c 128,-1,14
 895 123 895 123 936 150 c 1,15,-1
 936 524 l 1,16,17
 922 578 922 578 882 621 c 0,18,19
 864 639 864 639 838.5 656 c 128,-1,20
 813 673 813 673 776.5 686.5 c 128,-1,21
 740 700 740 700 692 708.5 c 128,-1,22
 644 717 644 717 583 717 c 0,0,1
557 -270 m 0,23,24
 639 -270 639 -270 708.5 -255.5 c 128,-1,25
 778 -241 778 -241 828.5 -211 c 128,-1,26
 879 -181 879 -181 907.5 -134.5 c 128,-1,27
 936 -88 936 -88 936 -23 c 2,28,-1
 936 96 l 1,29,30
 893 66 893 66 844 45.5 c 128,-1,31
 795 25 795 25 743.5 13 c 128,-1,32
 692 1 692 1 639.5 -4.5 c 128,-1,33
 587 -10 587 -10 538 -10 c 0,34,35
 424 -10 424 -10 335 7.5 c 128,-1,36
 246 25 246 25 184 69 c 128,-1,37
 122 113 122 113 89.5 189.5 c 128,-1,38
 57 266 57 266 57 383 c 256,39,40
 57 500 57 500 94 577.5 c 128,-1,41
 131 655 131 655 199 701.5 c 128,-1,42
 267 748 267 748 362.5 767 c 128,-1,43
 458 786 458 786 575 786 c 0,44,45
 639 786 639 786 688.5 777.5 c 128,-1,46
 738 769 738 769 775 755.5 c 128,-1,47
 812 742 812 742 838 725 c 128,-1,48
 864 708 864 708 882 690 c 0,49,50
 922 649 922 649 936 594 c 1,51,52
 936 616 936 616 934 645.5 c 128,-1,53
 932 675 932 675 933.5 702 c 128,-1,54
 935 729 935 729 942.5 747.5 c 128,-1,55
 950 766 950 766 968 766 c 0,56,57
 983 766 983 766 992 759.5 c 128,-1,58
 1001 753 1001 753 1006.5 743 c 128,-1,59
 1012 733 1012 733 1014 720.5 c 128,-1,60
 1016 708 1016 708 1016 696 c 2,61,-1
 1016 -23 l 2,62,63
 1016 -181 1016 -181 896.5 -260.5 c 128,-1,64
 777 -340 777 -340 557 -340 c 0,65,66
 464 -340 464 -340 397 -328 c 128,-1,67
 330 -316 330 -316 282 -299 c 0,68,69
 256 -290 256 -290 233 -279.5 c 128,-1,70
 210 -269 210 -269 190 -258 c 1,71,72
 179 -255 179 -255 170 -246 c 1,73,74
 162 -240 162 -240 155.5 -232 c 128,-1,75
 149 -224 149 -224 149 -213 c 0,76,77
 149 -194 149 -194 162.5 -186 c 128,-1,78
 176 -178 176 -178 182 -178 c 0,79,80
 190 -178 190 -178 201.5 -182.5 c 128,-1,81
 213 -187 213 -187 227 -197 c 0,82,83
 259 -219 259 -219 307 -233 c 1,84,85
 349 -247 349 -247 409.5 -258.5 c 128,-1,86
 470 -270 470 -270 557 -270 c 0,23,24
EndSplineSet
EndChar

StartChar: h
Encoding: 104 104 93
Width: 1007
Flags: W
HStem: 0 21G<123 136 934.5 948> 727 59<378.947 774.985> 1094 20G<123 136>
VStem: 88 80<0.0396729 1113.96> 900 80<0.0396729 625.922>
LayerCount: 2
Fore
SplineSet
980 72 m 2,0,1
 980 59 980 59 978.5 46 c 128,-1,2
 977 33 977 33 973 23 c 128,-1,3
 969 13 969 13 961.5 6.5 c 128,-1,4
 954 0 954 0 942 0 c 0,5,6
 927 0 927 0 919 6.5 c 128,-1,7
 911 13 911 13 906.5 23 c 128,-1,8
 902 33 902 33 901 46 c 128,-1,9
 900 59 900 59 900 72 c 2,10,-1
 900 418 l 2,11,12
 900 496 900 496 888 554 c 128,-1,13
 876 612 876 612 842.5 650.5 c 128,-1,14
 809 689 809 689 749 708 c 128,-1,15
 689 727 689 727 593 727 c 0,16,17
 535 727 535 727 468 717.5 c 128,-1,18
 401 708 401 708 340.5 684.5 c 128,-1,19
 280 661 280 661 233 622 c 128,-1,20
 186 583 186 583 168 524 c 1,21,-1
 168 72 l 2,22,23
 168 59 168 59 166.5 46 c 128,-1,24
 165 33 165 33 161 23 c 128,-1,25
 157 13 157 13 149.5 6.5 c 128,-1,26
 142 0 142 0 130 0 c 0,27,28
 116 0 116 0 107.5 6.5 c 128,-1,29
 99 13 99 13 94.5 23 c 128,-1,30
 90 33 90 33 89 46 c 128,-1,31
 88 59 88 59 88 72 c 2,32,-1
 88 1044 l 2,33,34
 88 1056 88 1056 89 1068.5 c 128,-1,35
 90 1081 90 1081 94.5 1091 c 128,-1,36
 99 1101 99 1101 107.5 1107.5 c 128,-1,37
 116 1114 116 1114 130 1114 c 0,38,39
 142 1114 142 1114 149.5 1108 c 128,-1,40
 157 1102 157 1102 161 1092 c 128,-1,41
 165 1082 165 1082 166.5 1069.5 c 128,-1,42
 168 1057 168 1057 168 1044 c 2,43,-1
 168 594 l 1,44,45
 179 634 179 634 205.5 664 c 128,-1,46
 232 694 232 694 267.5 715.5 c 128,-1,47
 303 737 303 737 346 750.5 c 128,-1,48
 389 764 389 764 432.5 772 c 128,-1,49
 476 780 476 780 517.5 783 c 128,-1,50
 559 786 559 786 593 786 c 0,51,52
 701 786 701 786 775 767.5 c 128,-1,53
 849 749 849 749 894.5 706 c 128,-1,54
 940 663 940 663 960 592.5 c 128,-1,55
 980 522 980 522 980 418 c 2,56,-1
 980 72 l 2,0,1
EndSplineSet
EndChar

StartChar: i
Encoding: 105 105 94
Width: 201
Flags: W
HStem: 0 21G<93 107.5> 755 20G<93 112.5> 865 105<62.4707 138.498>
VStem: 47 108<879.44 954.014> 60 80<0.0012207 774.995>
LayerCount: 2
Fore
SplineSet
140 63 m 2,0,1
 140 50 140 50 139 38.5 c 128,-1,2
 138 27 138 27 134.5 18.5 c 128,-1,3
 131 10 131 10 123 5 c 128,-1,4
 115 0 115 0 100 0 c 0,5,6
 86 0 86 0 78 4.5 c 128,-1,7
 70 9 70 9 66 17 c 128,-1,8
 62 25 62 25 61 36.5 c 128,-1,9
 60 48 60 48 60 63 c 2,10,-1
 60 705 l 2,11,12
 60 720 60 720 61 732.5 c 128,-1,13
 62 745 62 745 66 754.5 c 128,-1,14
 70 764 70 764 78 769.5 c 128,-1,15
 86 775 86 775 100 775 c 0,16,17
 125 775 125 775 132.5 754 c 128,-1,18
 140 733 140 733 140 707 c 2,19,-1
 140 63 l 2,0,1
47 916 m 256,20,21
 47 939 47 939 62 954.5 c 128,-1,22
 77 970 77 970 100 970 c 256,23,24
 123 970 123 970 139 954.5 c 128,-1,25
 155 939 155 939 155 916 c 256,26,27
 155 893 155 893 139 879 c 128,-1,28
 123 865 123 865 100 865 c 256,29,30
 77 865 77 865 62 879 c 128,-1,31
 47 893 47 893 47 916 c 256,20,21
EndSplineSet
EndChar

StartChar: j
Encoding: 106 106 95
Width: 437
Flags: W
HStem: -266 69<0.00537109 204.26> 746 20G<307 327.5> 865 105<288.471 364.498>
VStem: 273 108<879.44 954.014> 279 80<-129.87 765.983>
LayerCount: 2
Fore
SplineSet
359 94 m 2,0,1
 359 59 359 59 357.5 19 c 128,-1,2
 356 -21 356 -21 347.5 -61 c 128,-1,3
 339 -101 339 -101 321 -138 c 128,-1,4
 303 -175 303 -175 270.5 -203.5 c 128,-1,5
 238 -232 238 -232 188 -249 c 128,-1,6
 138 -266 138 -266 66 -266 c 0,7,8
 53 -266 53 -266 41 -265.5 c 128,-1,9
 29 -265 29 -265 20 -261.5 c 128,-1,10
 11 -258 11 -258 5.5 -251 c 128,-1,11
 0 -244 0 -244 0 -231 c 256,12,13
 0 -218 0 -218 5.5 -211 c 128,-1,14
 11 -204 11 -204 20 -201 c 128,-1,15
 29 -198 29 -198 41 -197.5 c 128,-1,16
 53 -197 53 -197 66 -197 c 0,17,18
 149 -197 149 -197 192.5 -171 c 128,-1,19
 236 -145 236 -145 255.5 -103.5 c 128,-1,20
 275 -62 275 -62 277 -10 c 128,-1,21
 279 42 279 42 279 94 c 2,22,-1
 279 705 l 2,23,24
 279 731 279 731 286.5 748.5 c 128,-1,25
 294 766 294 766 320 766 c 0,26,27
 335 766 335 766 342.5 761.5 c 128,-1,28
 350 757 350 757 354 748.5 c 128,-1,29
 358 740 358 740 358.5 729 c 128,-1,30
 359 718 359 718 359 705 c 2,31,-1
 359 94 l 2,0,1
273 916 m 256,32,33
 273 939 273 939 288 954.5 c 128,-1,34
 303 970 303 970 326 970 c 256,35,36
 349 970 349 970 365 954.5 c 128,-1,37
 381 939 381 939 381 916 c 256,38,39
 381 893 381 893 365 879 c 128,-1,40
 349 865 349 865 326 865 c 256,41,42
 303 865 303 865 288 879 c 128,-1,43
 273 893 273 893 273 916 c 256,32,33
EndSplineSet
EndChar

StartChar: k
Encoding: 107 107 96
Width: 883
Flags: W
HStem: 0 21G<121.5 135> 1090 20G<123.5 137>
VStem: 88 80<10.8312 348 410 1099.69>
DStem2: 168 410 168 348 0.910637 0.413208<0 211.573 277.039 744.978> 445 470 384 446 0.70294 -0.711249<0 611.052>
LayerCount: 2
Fore
SplineSet
860 61 m 2,0,1
 873 48 873 48 873 32 c 0,2,3
 873 19 873 19 864 10.5 c 128,-1,4
 855 2 855 2 841 2 c 0,5,6
 833 2 833 2 824 5.5 c 128,-1,7
 815 9 815 9 807 18 c 2,8,-1
 384 446 l 1,9,-1
 168 348 l 1,10,-1
 168 44 l 2,11,12
 168 21 168 21 155 10.5 c 128,-1,13
 142 0 142 0 128 0 c 0,14,15
 115 0 115 0 101.5 10.5 c 128,-1,16
 88 21 88 21 88 44 c 2,17,-1
 88 1070 l 2,18,19
 88 1090 88 1090 102.5 1100 c 128,-1,20
 117 1110 117 1110 130 1110 c 0,21,22
 144 1110 144 1110 156 1100 c 128,-1,23
 168 1090 168 1090 168 1070 c 2,24,-1
 168 410 l 1,25,-1
 834 714 l 2,26,27
 840 717 840 717 847 717 c 0,28,29
 860 717 860 717 868.5 707 c 128,-1,30
 877 697 877 697 877 686 c 0,31,32
 877 679 877 679 873 672.5 c 128,-1,33
 869 666 869 666 860 662 c 2,34,-1
 445 470 l 1,35,-1
 860 61 l 2,0,1
EndSplineSet
EndChar

StartChar: l
Encoding: 108 108 97
Width: 264
Flags: W
HStem: 0 21G<121.5 141.5> 1094 20G<123.5 137>
VStem: 88 80<0.0200195 1113.93>
LayerCount: 2
Fore
SplineSet
168 70 m 2,0,1
 168 41 168 41 161 20.5 c 128,-1,2
 154 0 154 0 129 0 c 0,3,4
 114 0 114 0 106 5.5 c 128,-1,5
 98 11 98 11 94 20.5 c 128,-1,6
 90 30 90 30 89 42.5 c 128,-1,7
 88 55 88 55 88 68 c 2,8,-1
 88 1042 l 2,9,10
 88 1057 88 1057 89 1070 c 128,-1,11
 90 1083 90 1083 94.5 1092.5 c 128,-1,12
 99 1102 99 1102 107.5 1108 c 128,-1,13
 116 1114 116 1114 131 1114 c 0,14,15
 143 1114 143 1114 150.5 1108 c 128,-1,16
 158 1102 158 1102 162 1092 c 128,-1,17
 166 1082 166 1082 167 1069.5 c 128,-1,18
 168 1057 168 1057 168 1044 c 2,19,-1
 168 70 l 2,0,1
EndSplineSet
EndChar

StartChar: m
Encoding: 109 109 98
Width: 1497
Flags: W
HStem: 0 21G<129.5 139 749.5 756 1369.5 1376> 727 59<357.238 643.982 966.576 1248.2>
VStem: 88 80<8.77209 755.229> 711 80<0.0244141 671.46> 1332 80<0.00610352 653.12>
LayerCount: 2
Fore
SplineSet
1332 489 m 2,0,1
 1332 558 1332 558 1316.5 604 c 128,-1,2
 1301 650 1301 650 1274 677.5 c 128,-1,3
 1247 705 1247 705 1211 716 c 128,-1,4
 1175 727 1175 727 1134 727 c 0,5,6
 1066 727 1066 727 1014 713.5 c 128,-1,7
 962 700 962 700 921.5 675 c 128,-1,8
 881 650 881 650 849.5 613.5 c 128,-1,9
 818 577 818 577 791 532 c 1,10,-1
 791 52 l 2,11,12
 791 34 791 34 787.5 24 c 128,-1,13
 784 14 784 14 778 8.5 c 128,-1,14
 772 3 772 3 765.5 1.5 c 128,-1,15
 759 0 759 0 753 0 c 0,16,17
 746 0 746 0 738.5 1 c 128,-1,18
 731 2 731 2 725 7 c 128,-1,19
 719 12 719 12 715 22.5 c 128,-1,20
 711 33 711 33 711 52 c 2,21,-1
 711 532 l 2,22,23
 711 623 711 623 668.5 675 c 128,-1,24
 626 727 626 727 532 727 c 0,25,26
 461 727 461 727 400 711 c 128,-1,27
 339 695 339 695 291.5 668 c 128,-1,28
 244 641 244 641 212 605 c 128,-1,29
 180 569 180 569 168 528 c 1,30,-1
 168 52 l 2,31,32
 168 17 168 17 156.5 8.5 c 128,-1,33
 145 0 145 0 133 0 c 0,34,35
 126 0 126 0 118 1 c 128,-1,36
 110 2 110 2 103.5 7 c 128,-1,37
 97 12 97 12 92.5 22.5 c 128,-1,38
 88 33 88 33 88 52 c 2,39,-1
 88 715 l 2,40,41
 88 731 88 731 92.5 740.5 c 128,-1,42
 97 750 97 750 103.5 755.5 c 128,-1,43
 110 761 110 761 117.5 762.5 c 128,-1,44
 125 764 125 764 132 764 c 0,45,46
 149 764 149 764 158 755.5 c 128,-1,47
 167 747 167 747 167 715 c 2,48,-1
 167 594 l 1,49,50
 183 639 183 639 217.5 675 c 128,-1,51
 252 711 252 711 299.5 735.5 c 128,-1,52
 347 760 347 760 406 773 c 128,-1,53
 465 786 465 786 530 786 c 0,54,55
 606 786 606 786 653 764.5 c 128,-1,56
 700 743 700 743 727 712 c 128,-1,57
 754 681 754 681 765.5 648 c 128,-1,58
 777 615 777 615 782 592 c 1,59,60
 799 623 799 623 825.5 657.5 c 128,-1,61
 852 692 852 692 893 720.5 c 128,-1,62
 934 749 934 749 991 767.5 c 128,-1,63
 1048 786 1048 786 1126 786 c 0,64,65
 1273 786 1273 786 1342.5 715 c 128,-1,66
 1412 644 1412 644 1412 489 c 2,67,-1
 1412 52 l 2,68,69
 1412 34 1412 34 1408 24 c 128,-1,70
 1404 14 1404 14 1398.5 8.5 c 128,-1,71
 1393 3 1393 3 1386 1.5 c 128,-1,72
 1379 0 1379 0 1373 0 c 0,73,74
 1366 0 1366 0 1358.5 1 c 128,-1,75
 1351 2 1351 2 1345 7 c 128,-1,76
 1339 12 1339 12 1335.5 22.5 c 128,-1,77
 1332 33 1332 33 1332 52 c 2,78,-1
 1332 489 l 2,0,1
EndSplineSet
EndChar

StartChar: n
Encoding: 110 110 99
Width: 1060
Flags: W
HStem: 0 21G<123 136 930.5 944> 727 59<375.355 770.485>
VStem: 87 80<0.101562 763.898> 899 80<0.0142822 623.135>
LayerCount: 2
Fore
SplineSet
979 72 m 2,0,1
 979 59 979 59 977 46 c 128,-1,2
 975 33 975 33 970.5 23 c 128,-1,3
 966 13 966 13 958 6.5 c 128,-1,4
 950 0 950 0 938 0 c 0,5,6
 923 0 923 0 915.5 6.5 c 128,-1,7
 908 13 908 13 904 23 c 128,-1,8
 900 33 900 33 899.5 46 c 128,-1,9
 899 59 899 59 899 72 c 2,10,-1
 899 418 l 2,11,12
 899 496 899 496 886.5 554 c 128,-1,13
 874 612 874 612 839.5 650.5 c 128,-1,14
 805 689 805 689 744.5 708 c 128,-1,15
 684 727 684 727 588 727 c 0,16,17
 530 727 530 727 463.5 717.5 c 128,-1,18
 397 708 397 708 337 684.5 c 128,-1,19
 277 661 277 661 231 622 c 128,-1,20
 185 583 185 583 167 524 c 1,21,-1
 167 72 l 2,22,23
 167 59 167 59 166 46 c 128,-1,24
 165 33 165 33 161 23 c 128,-1,25
 157 13 157 13 149.5 6.5 c 128,-1,26
 142 0 142 0 130 0 c 0,27,28
 116 0 116 0 107.5 6.5 c 128,-1,29
 99 13 99 13 94.5 23 c 128,-1,30
 90 33 90 33 88.5 46 c 128,-1,31
 87 59 87 59 87 72 c 2,32,-1
 87 694 l 2,33,34
 87 706 87 706 88.5 718.5 c 128,-1,35
 90 731 90 731 94.5 741 c 128,-1,36
 99 751 99 751 107.5 757.5 c 128,-1,37
 116 764 116 764 130 764 c 0,38,39
 142 764 142 764 149.5 758 c 128,-1,40
 157 752 157 752 161 742 c 128,-1,41
 165 732 165 732 166 719.5 c 128,-1,42
 167 707 167 707 167 694 c 2,43,-1
 167 594 l 1,44,45
 195 658 195 658 245.5 696.5 c 128,-1,46
 296 735 296 735 355 754.5 c 128,-1,47
 414 774 414 774 475.5 780 c 128,-1,48
 537 786 537 786 588 786 c 0,49,50
 696 786 696 786 770.5 767.5 c 128,-1,51
 845 749 845 749 891.5 706 c 128,-1,52
 938 663 938 663 958.5 592.5 c 128,-1,53
 979 522 979 522 979 418 c 2,54,-1
 979 72 l 2,0,1
EndSplineSet
EndChar

StartChar: o
Encoding: 111 111 100
Width: 1130
Flags: W
HStem: -10 59<349.414 780.586> 727 59<339.918 790.082>
VStem: 68 80<201.788 577.9> 982 80<201.788 577.9>
LayerCount: 2
Fore
SplineSet
565 -10 m 256,0,1
 427 -10 427 -10 332 17.5 c 128,-1,2
 237 45 237 45 178.5 96 c 128,-1,3
 120 147 120 147 94 220 c 128,-1,4
 68 293 68 293 68 385 c 0,5,6
 68 491 68 491 97.5 566.5 c 128,-1,7
 127 642 127 642 188.5 691 c 128,-1,8
 250 740 250 740 343.5 763 c 128,-1,9
 437 786 437 786 565 786 c 256,10,11
 693 786 693 786 786.5 763 c 128,-1,12
 880 740 880 740 941.5 691 c 128,-1,13
 1003 642 1003 642 1032.5 566.5 c 128,-1,14
 1062 491 1062 491 1062 385 c 0,15,16
 1062 293 1062 293 1036 220 c 128,-1,17
 1010 147 1010 147 951.5 96 c 128,-1,18
 893 45 893 45 798 17.5 c 128,-1,19
 703 -10 703 -10 565 -10 c 256,0,1
565 49 m 256,20,21
 656 49 656 49 722 62.5 c 128,-1,22
 788 76 788 76 834.5 100 c 128,-1,23
 881 124 881 124 909.5 156 c 128,-1,24
 938 188 938 188 954.5 225.5 c 128,-1,25
 971 263 971 263 976.5 303.5 c 128,-1,26
 982 344 982 344 982 385 c 0,27,28
 982 478 982 478 958 543 c 128,-1,29
 934 608 934 608 883 649 c 128,-1,30
 832 690 832 690 753 708.5 c 128,-1,31
 674 727 674 727 565 727 c 256,32,33
 456 727 456 727 377 708.5 c 128,-1,34
 298 690 298 690 247 649 c 128,-1,35
 196 608 196 608 172 543 c 128,-1,36
 148 478 148 478 148 385 c 0,37,38
 148 344 148 344 153.5 303.5 c 128,-1,39
 159 263 159 263 175.5 225.5 c 128,-1,40
 192 188 192 188 220.5 156 c 128,-1,41
 249 124 249 124 295.5 100 c 128,-1,42
 342 76 342 76 408 62.5 c 128,-1,43
 474 49 474 49 565 49 c 256,20,21
EndSplineSet
EndChar

StartChar: p
Encoding: 112 112 101
Width: 1081
Flags: W
HStem: -337 21G<119.5 134.5> -10 59<376.582 809.205> 727 59<386.016 798.484>
VStem: 88 80<-330.296 97 125.85 755.229> 981 80<192.919 576.986>
LayerCount: 2
Fore
SplineSet
618 786 m 0,0,1
 708 786 708 786 788.5 767.5 c 128,-1,2
 869 749 869 749 929.5 704 c 128,-1,3
 990 659 990 659 1025.5 584 c 128,-1,4
 1061 509 1061 509 1061 396 c 0,5,6
 1061 284 1061 284 1031.5 206.5 c 128,-1,7
 1002 129 1002 129 945.5 81 c 128,-1,8
 889 33 889 33 806.5 11.5 c 128,-1,9
 724 -10 724 -10 618 -10 c 0,10,11
 518 -10 518 -10 435.5 6.5 c 128,-1,12
 353 23 353 23 293 43 c 0,13,14
 223 67 223 67 168 97 c 1,15,-1
 166 -267 l 2,16,17
 166 -280 166 -280 165.5 -292.5 c 128,-1,18
 165 -305 165 -305 161 -315 c 128,-1,19
 157 -325 157 -325 149.5 -331 c 128,-1,20
 142 -337 142 -337 127 -337 c 256,21,22
 112 -337 112 -337 104.5 -330.5 c 128,-1,23
 97 -324 97 -324 93 -313.5 c 128,-1,24
 89 -303 89 -303 88.5 -289.5 c 128,-1,25
 88 -276 88 -276 88 -261 c 2,26,-1
 88 715 l 2,27,28
 88 747 88 747 99.5 755.5 c 128,-1,29
 111 764 111 764 125 764 c 0,30,31
 142 764 142 764 152.5 755.5 c 128,-1,32
 163 747 163 747 163 715 c 2,33,-1
 163 585 l 1,34,35
 175 628 175 628 203.5 659.5 c 128,-1,36
 232 691 232 691 270.5 713 c 128,-1,37
 309 735 309 735 355.5 749 c 128,-1,38
 402 763 402 763 448.5 771.5 c 128,-1,39
 495 780 495 780 539 783 c 128,-1,40
 583 786 583 786 618 786 c 0,0,1
618 727 m 1,41,42
 558 726 558 726 487 717.5 c 128,-1,43
 416 709 416 709 351 687 c 128,-1,44
 286 665 286 665 236 626 c 128,-1,45
 186 587 186 587 168 524 c 1,46,-1
 168 140 l 1,47,48
 235 114 235 114 309 94 c 0,49,50
 372 77 372 77 452.5 63 c 128,-1,51
 533 49 533 49 618 49 c 0,52,53
 714 49 714 49 782.5 69 c 128,-1,54
 851 89 851 89 895.5 131.5 c 128,-1,55
 940 174 940 174 960.5 239.5 c 128,-1,56
 981 305 981 305 981 396 c 0,57,58
 981 490 981 490 952.5 554 c 128,-1,59
 924 618 924 618 875 656 c 128,-1,60
 826 694 826 694 759.5 710.5 c 128,-1,61
 693 727 693 727 618 727 c 1,41,42
EndSplineSet
EndChar

StartChar: q
Encoding: 113 113 102
Width: 1081
Flags: W
HStem: -338 21G<944.5 959.5> -10 59<271.795 717.756> 727 59<282.516 695.045>
VStem: 20 80<192.919 576.986> 913 80<-331.812 117 137.148 764.651>
LayerCount: 2
Fore
SplineSet
463 786 m 0,0,1
 498 786 498 786 541.5 783 c 128,-1,2
 585 780 585 780 631 771.5 c 128,-1,3
 677 763 677 763 722.5 749 c 128,-1,4
 768 735 768 735 806.5 713 c 128,-1,5
 845 691 845 691 873 659.5 c 128,-1,6
 901 628 901 628 913 585 c 1,7,-1
 913 724 l 2,8,9
 913 756 913 756 925 766 c 128,-1,10
 937 776 937 776 954 776 c 0,11,12
 968 776 968 776 980.5 765 c 128,-1,13
 993 754 993 754 993 722 c 2,14,-1
 993 -269 l 2,15,16
 993 -284 993 -284 992 -296.5 c 128,-1,17
 991 -309 991 -309 987 -318 c 128,-1,18
 983 -327 983 -327 975 -332.5 c 128,-1,19
 967 -338 967 -338 952 -338 c 256,20,21
 937 -338 937 -338 929.5 -332 c 128,-1,22
 922 -326 922 -326 918 -316 c 128,-1,23
 914 -306 914 -306 913.5 -293 c 128,-1,24
 913 -280 913 -280 913 -267 c 2,25,-1
 913 117 l 1,26,27
 878 81 878 81 817 53 c 0,28,29
 765 29 765 29 678.5 9.5 c 128,-1,30
 592 -10 592 -10 463 -10 c 0,31,32
 357 -10 357 -10 274.5 11.5 c 128,-1,33
 192 33 192 33 135.5 81 c 128,-1,34
 79 129 79 129 49.5 206.5 c 128,-1,35
 20 284 20 284 20 396 c 0,36,37
 20 509 20 509 55.5 584 c 128,-1,38
 91 659 91 659 151.5 704 c 128,-1,39
 212 749 212 749 292.5 767.5 c 128,-1,40
 373 786 373 786 463 786 c 0,0,1
463 727 m 1,41,42
 388 727 388 727 321.5 710.5 c 128,-1,43
 255 694 255 694 206 656 c 128,-1,44
 157 618 157 618 128.5 554 c 128,-1,45
 100 490 100 490 100 396 c 0,46,47
 100 305 100 305 120.5 239.5 c 128,-1,48
 141 174 141 174 185.5 131.5 c 128,-1,49
 230 89 230 89 298.5 69 c 128,-1,50
 367 49 367 49 463 49 c 0,51,52
 588 49 588 49 673 66.5 c 128,-1,53
 758 84 758 84 812 106 c 0,54,55
 874 132 874 132 913 164 c 1,56,-1
 913 524 l 1,57,58
 895 587 895 587 845 626 c 128,-1,59
 795 665 795 665 730 687 c 128,-1,60
 665 709 665 709 594 717.5 c 128,-1,61
 523 726 523 726 463 727 c 1,41,42
EndSplineSet
EndChar

StartChar: r
Encoding: 114 114 103
Width: 764
Flags: W
HStem: 0 21G<121 140.5> 699 71<551.28 731.139> 722 64<344.519 731.139>
VStem: 87 80<22.6885 765.548>
DStem2: 615.5 783.5 627 716 0.991453 -0.130467<-55.6471 125.316>
LayerCount: 2
Fore
SplineSet
727 762 m 256,0,1
 741 758 741 758 745.5 746 c 128,-1,2
 750 734 750 734 746.5 722 c 128,-1,3
 743 710 743 710 731.5 702 c 128,-1,4
 720 694 720 694 702 699 c 0,5,6
 663 710 663 710 627 716 c 128,-1,7
 591 722 591 722 550 722 c 0,8,9
 482 722 482 722 420.5 710.5 c 128,-1,10
 359 699 359 699 308.5 675.5 c 128,-1,11
 258 652 258 652 221.5 615.5 c 128,-1,12
 185 579 185 579 167 530 c 1,13,-1
 167 70 l 2,14,15
 167 44 167 44 160 22 c 128,-1,16
 153 0 153 0 128 0 c 0,17,18
 114 0 114 0 105.5 6 c 128,-1,19
 97 12 97 12 93 22 c 128,-1,20
 89 32 89 32 88 44.5 c 128,-1,21
 87 57 87 57 87 70 c 2,22,-1
 87 696 l 2,23,24
 87 709 87 709 89 721.5 c 128,-1,25
 91 734 91 734 96 744 c 128,-1,26
 101 754 101 754 110.5 760 c 128,-1,27
 120 766 120 766 134 766 c 0,28,29
 152 766 152 766 159.5 747.5 c 128,-1,30
 167 729 167 729 168.5 702 c 128,-1,31
 170 675 170 675 168.5 645.5 c 128,-1,32
 167 616 167 616 167 594 c 1,33,34
 185 655 185 655 230.5 693 c 128,-1,35
 276 731 276 731 332 751.5 c 128,-1,36
 388 772 388 772 446.5 779 c 128,-1,37
 505 786 505 786 550 786 c 0,38,39
 588 786 588 786 615.5 783.5 c 128,-1,40
 643 781 643 781 663 777.5 c 128,-1,41
 683 774 683 774 698 770 c 128,-1,42
 713 766 713 766 727 762 c 256,0,1
EndSplineSet
EndChar

StartChar: s
Encoding: 115 115 104
Width: 1078
Flags: W
HStem: -10 59<264.754 806.559> 350.5 68.5<235.492 855.447> 727 59<275.208 753.531>
VStem: 65 80<479.598 648.17> 938 80<125.128 291.316>
LayerCount: 2
Fore
SplineSet
938 209 m 0,0,1
 938 262 938 262 900.5 291 c 128,-1,2
 863 320 863 320 801.5 333.5 c 128,-1,3
 740 347 740 347 661.5 350.5 c 128,-1,4
 583 354 583 354 501.5 356.5 c 128,-1,5
 420 359 420 359 341.5 365.5 c 128,-1,6
 263 372 263 372 201.5 392.5 c 128,-1,7
 140 413 140 413 102.5 451.5 c 128,-1,8
 65 490 65 490 65 557 c 0,9,10
 65 626 65 626 102.5 670 c 128,-1,11
 140 714 140 714 201 740 c 128,-1,12
 262 766 262 766 339 776 c 128,-1,13
 416 786 416 786 496 786 c 0,14,15
 624 786 624 786 739.5 764 c 128,-1,16
 855 742 855 742 950 692 c 0,17,18
 960 687 960 687 963.5 679.5 c 128,-1,19
 967 672 967 672 968 664 c 1,20,21
 968 651 968 651 960 641 c 128,-1,22
 952 631 952 631 942 631 c 0,23,24
 936 631 936 631 934 633 c 0,25,26
 849 676 849 676 740 701.5 c 128,-1,27
 631 727 631 727 500 727 c 0,28,29
 432 727 432 727 368 718.5 c 128,-1,30
 304 710 304 710 254.5 690.5 c 128,-1,31
 205 671 205 671 175 638.5 c 128,-1,32
 145 606 145 606 145 557 c 0,33,34
 145 507 145 507 182.5 480 c 128,-1,35
 220 453 220 453 281.5 440.5 c 128,-1,36
 343 428 343 428 421.5 425 c 128,-1,37
 500 422 500 422 581.5 419 c 128,-1,38
 663 416 663 416 741.5 408.5 c 128,-1,39
 820 401 820 401 881.5 379.5 c 128,-1,40
 943 358 943 358 980.5 317.5 c 128,-1,41
 1018 277 1018 277 1018 209 c 0,42,43
 1018 148 1018 148 980 106 c 128,-1,44
 942 64 942 64 879 38.5 c 128,-1,45
 816 13 816 13 733.5 1.5 c 128,-1,46
 651 -10 651 -10 563 -10 c 0,47,48
 509 -10 509 -10 446.5 -7.5 c 128,-1,49
 384 -5 384 -5 322 4.5 c 128,-1,50
 260 14 260 14 202 33.5 c 128,-1,51
 144 53 144 53 101 87 c 0,52,53
 87 97 87 97 87 113 c 0,54,55
 87 126 87 126 94.5 135.5 c 128,-1,56
 102 145 102 145 113 145 c 0,57,58
 120 145 120 145 125 141 c 0,59,60
 167 112 167 112 215.5 94 c 128,-1,61
 264 76 264 76 318 66 c 128,-1,62
 372 56 372 56 431 52.5 c 128,-1,63
 490 49 490 49 553 49 c 0,64,65
 628 49 628 49 697.5 56.5 c 128,-1,66
 767 64 767 64 820.5 82.5 c 128,-1,67
 874 101 874 101 906 131.5 c 128,-1,68
 938 162 938 162 938 209 c 0,0,1
EndSplineSet
EndChar

StartChar: t
Encoding: 116 116 105
Width: 678
Flags: W
HStem: -10 59<305.081 547.153> 727 48<45.2205 154 234 641.264>
VStem: 154 80<109.961 727 775 1096.23>
LayerCount: 2
Fore
SplineSet
619 775 m 2,0,1
 634 775 634 775 641.5 767.5 c 128,-1,2
 649 760 649 760 649 751 c 256,3,4
 649 742 649 742 641.5 734.5 c 128,-1,5
 634 727 634 727 619 727 c 2,6,-1
 234 727 l 1,7,-1
 234 279 l 2,8,9
 234 206 234 206 249 161 c 128,-1,10
 264 116 264 116 289.5 91 c 128,-1,11
 315 66 315 66 349.5 57.5 c 128,-1,12
 384 49 384 49 423 49 c 0,13,14
 471 49 471 49 517 66 c 128,-1,15
 563 83 563 83 623 115 c 0,16,17
 635 121 635 121 646 121 c 0,18,19
 659 121 659 121 666.5 113.5 c 128,-1,20
 674 106 674 106 674 95 c 0,21,22
 674 75 674 75 652 63 c 0,23,24
 610 40 610 40 577.5 26 c 128,-1,25
 545 12 545 12 517.5 4 c 128,-1,26
 490 -4 490 -4 464.5 -7 c 128,-1,27
 439 -10 439 -10 409 -10 c 0,28,29
 355 -10 355 -10 308.5 5 c 128,-1,30
 262 20 262 20 227.5 53.5 c 128,-1,31
 193 87 193 87 173.5 142.5 c 128,-1,32
 154 198 154 198 154 279 c 2,33,-1
 154 727 l 1,34,-1
 66 727 l 2,35,36
 52 727 52 727 45 734.5 c 128,-1,37
 38 742 38 742 38 751 c 256,38,39
 38 760 38 760 45 767.5 c 128,-1,40
 52 775 52 775 66 775 c 2,41,-1
 154 775 l 1,42,-1
 154 1056 l 2,43,44
 154 1088 154 1088 167 1096.5 c 128,-1,45
 180 1105 180 1105 194 1105 c 0,46,47
 211 1105 211 1105 222.5 1096.5 c 128,-1,48
 234 1088 234 1088 234 1056 c 2,49,-1
 234 775 l 1,50,-1
 619 775 l 2,0,1
EndSplineSet
EndChar

StartChar: u
Encoding: 117 117 106
Width: 1040
Flags: W
HStem: -10 59<279.484 667.437> 746 20G<113.5 127.5 902.5 916.5>
VStem: 80 80<145.656 765.998> 872 80<0.0366211 141 151.516 765.922>
LayerCount: 2
Fore
SplineSet
872 141 m 1,0,1
 835 98 835 98 779 65 c 0,2,3
 731 36 731 36 656.5 13 c 128,-1,4
 582 -10 582 -10 478 -10 c 0,5,6
 371 -10 371 -10 295.5 10.5 c 128,-1,7
 220 31 220 31 172 74.5 c 128,-1,8
 124 118 124 118 102 185.5 c 128,-1,9
 80 253 80 253 80 348 c 2,10,-1
 80 694 l 2,11,12
 80 707 80 707 81.5 720 c 128,-1,13
 83 733 83 733 87 743 c 128,-1,14
 91 753 91 753 99 759.5 c 128,-1,15
 107 766 107 766 120 766 c 0,16,17
 135 766 135 766 143 759.5 c 128,-1,18
 151 753 151 753 154.5 743 c 128,-1,19
 158 733 158 733 159 720 c 128,-1,20
 160 707 160 707 160 694 c 2,21,-1
 160 348 l 2,22,23
 160 264 160 264 174 207 c 128,-1,24
 188 150 188 150 223.5 115 c 128,-1,25
 259 80 259 80 320.5 64.5 c 128,-1,26
 382 49 382 49 478 49 c 0,27,28
 565 49 565 49 636.5 69 c 128,-1,29
 708 89 708 89 761 113 c 0,30,31
 823 141 823 141 872 178 c 1,32,-1
 872 694 l 2,33,34
 872 707 872 707 873 720 c 128,-1,35
 874 733 874 733 877.5 743 c 128,-1,36
 881 753 881 753 888.5 759.5 c 128,-1,37
 896 766 896 766 909 766 c 0,38,39
 924 766 924 766 932.5 759.5 c 128,-1,40
 941 753 941 753 945.5 743 c 128,-1,41
 950 733 950 733 951 720 c 128,-1,42
 952 707 952 707 952 694 c 2,43,-1
 952 70 l 2,44,45
 952 57 952 57 950.5 44.5 c 128,-1,46
 949 32 949 32 945 22 c 128,-1,47
 941 12 941 12 933.5 6 c 128,-1,48
 926 0 926 0 914 0 c 0,49,50
 899 0 899 0 890.5 6 c 128,-1,51
 882 12 882 12 877.5 22 c 128,-1,52
 873 32 873 32 872 44.5 c 128,-1,53
 871 57 871 57 871 70 c 2,54,-1
 872 141 l 1,0,1
EndSplineSet
EndChar

StartChar: v
Encoding: 118 118 107
Width: 1016
Flags: W
HStem: -10 83<466.5 549.5>
DStem2: 135 748 67 708 0.498063 -0.867141<-38.5351 771.098> 508 73 559 29 0.498063 0.867141<0 809.633>
LayerCount: 2
Fore
SplineSet
508 -10 m 256,0,1
 488 -10 488 -10 475.5 4 c 128,-1,2
 463 18 463 18 457 29 c 2,3,-1
 67 708 l 2,4,5
 53 733 53 733 57 750.5 c 128,-1,6
 61 768 61 768 74.5 775 c 128,-1,7
 88 782 88 782 105.5 776 c 128,-1,8
 123 770 123 770 135 748 c 2,9,-1
 508 73 l 1,10,-1
 881 748 l 2,11,12
 893 770 893 770 910.5 776 c 128,-1,13
 928 782 928 782 941.5 775 c 128,-1,14
 955 768 955 768 959 750.5 c 128,-1,15
 963 733 963 733 949 708 c 2,16,-1
 559 29 l 2,17,18
 553 18 553 18 540.5 4 c 128,-1,19
 528 -10 528 -10 508 -10 c 256,0,1
EndSplineSet
EndChar

StartChar: w
Encoding: 119 119 108
Width: 1260
Flags: W
HStem: -5 21G<347.5 364 896 912.5> 687 92<583 675>
VStem: 58 86<693.248 764.107>
DStem2: 144 737 62 709 0.336698 -0.941613<-22.9823 680.603> 356 90 411 49 0.324665 0.945829<0 653.618> 692 725 630 687 0.324665 -0.945829<15.8122 669.43> 904 90 962 49 0.336698 0.941613<0 703.586>
LayerCount: 2
Fore
SplineSet
904 90 m 1,0,-1
 1116 737 l 2,1,2
 1124 759 1124 759 1136 768 c 128,-1,3
 1148 777 1148 777 1161 777 c 0,4,5
 1177 777 1177 777 1189.5 764.5 c 128,-1,6
 1202 752 1202 752 1202 731 c 0,7,8
 1202 720 1202 720 1198 709 c 2,9,-1
 962 49 l 2,10,11
 953 23 953 23 937 9 c 128,-1,12
 921 -5 921 -5 904 -5 c 0,13,14
 888 -5 888 -5 873.5 7.5 c 128,-1,15
 859 20 859 20 849 49 c 2,16,-1
 630 687 l 1,17,-1
 411 49 l 2,18,19
 401 20 401 20 386.5 7.5 c 128,-1,20
 372 -5 372 -5 356 -5 c 0,21,22
 339 -5 339 -5 323 9 c 128,-1,23
 307 23 307 23 298 49 c 2,24,-1
 62 709 l 2,25,26
 58 720 58 720 58 731 c 0,27,28
 58 752 58 752 70.5 764.5 c 128,-1,29
 83 777 83 777 99 777 c 0,30,31
 112 777 112 777 124 768 c 128,-1,32
 136 759 136 759 144 737 c 2,33,-1
 356 90 l 1,34,-1
 568 725 l 2,35,36
 577 753 577 753 594 766 c 128,-1,37
 611 779 611 779 629 779 c 0,38,39
 648 779 648 779 665.5 765 c 128,-1,40
 683 751 683 751 692 725 c 2,41,-1
 904 90 l 1,0,-1
EndSplineSet
EndChar

StartChar: x
Encoding: 120 120 109
Width: 986
Flags: W
HStem: 337 99<443.5 542.5> 755 20G<95.75 113.25 872 890>
DStem2: 493 436 88 707 0.738612 -0.67413<-515.074 -6.85268 72.9175 582.298> 92 70 142 17 0.738612 0.67413<-39.7629 469.998 549.768 1057.61>
LayerCount: 2
Fore
SplineSet
894 70 m 2,0,1
 913 52 913 52 915.5 34.5 c 128,-1,2
 918 17 918 17 909 7 c 128,-1,3
 900 -3 900 -3 882.5 -2.5 c 128,-1,4
 865 -2 865 -2 844 17 c 2,5,-1
 493 337 l 1,6,-1
 142 17 l 2,7,8
 121 -2 121 -2 103.5 -2.5 c 128,-1,9
 86 -3 86 -3 77 7 c 128,-1,10
 68 17 68 17 70 34.5 c 128,-1,11
 72 52 72 52 92 70 c 2,12,-1
 439 387 l 1,13,-1
 88 707 l 2,14,15
 70 723 70 723 69 739.5 c 128,-1,16
 68 756 68 756 77.5 765.5 c 128,-1,17
 87 775 87 775 104.5 775 c 128,-1,18
 122 775 122 775 142 757 c 2,19,-1
 493 436 l 1,20,-1
 844 757 l 2,21,22
 863 775 863 775 881 775 c 128,-1,23
 899 775 899 775 908.5 765.5 c 128,-1,24
 918 756 918 756 917 739.5 c 128,-1,25
 916 723 916 723 898 707 c 2,26,-1
 547 387 l 1,27,-1
 894 70 l 2,0,1
EndSplineSet
EndChar

StartChar: y
Encoding: 121 121 110
Width: 1024
Flags: W
HStem: -334 59<294.36 695.488> -10 59<261.65 675.466> 746 20G<97.5 111.5 896 909.5>
VStem: 65 80<147.185 765.986> 864 80<-105.357 765.96>
LayerCount: 2
Fore
SplineSet
505 -275 m 0,0,1
 608 -275 608 -275 677 -252.5 c 128,-1,2
 746 -230 746 -230 787.5 -178.5 c 128,-1,3
 829 -127 829 -127 846.5 -41.5 c 128,-1,4
 864 44 864 44 864 170 c 1,5,6
 853 129 853 129 828 100 c 128,-1,7
 803 71 803 71 769 51 c 128,-1,8
 735 31 735 31 694 19 c 128,-1,9
 653 7 653 7 611 0.5 c 128,-1,10
 569 -6 569 -6 528.5 -8 c 128,-1,11
 488 -10 488 -10 454 -10 c 0,12,13
 346 -10 346 -10 272 9.5 c 128,-1,14
 198 29 198 29 152 75.5 c 128,-1,15
 106 122 106 122 85.5 198 c 128,-1,16
 65 274 65 274 65 387 c 2,17,-1
 65 694 l 2,18,19
 65 707 65 707 66 720 c 128,-1,20
 67 733 67 733 71 743 c 128,-1,21
 75 753 75 753 83 759.5 c 128,-1,22
 91 766 91 766 104 766 c 0,23,24
 119 766 119 766 127 759.5 c 128,-1,25
 135 753 135 753 139 743 c 128,-1,26
 143 733 143 733 144 720 c 128,-1,27
 145 707 145 707 145 694 c 2,28,-1
 145 387 l 2,29,30
 145 289 145 289 157.5 224 c 128,-1,31
 170 159 170 159 204 120 c 128,-1,32
 238 81 238 81 298.5 65 c 128,-1,33
 359 49 359 49 454 49 c 0,34,35
 511 49 511 49 576 57 c 128,-1,36
 641 65 641 65 699.5 86 c 128,-1,37
 758 107 758 107 802.5 144 c 128,-1,38
 847 181 847 181 864 240 c 1,39,-1
 864 694 l 2,40,41
 864 707 864 707 865.5 720 c 128,-1,42
 867 733 867 733 871 743 c 128,-1,43
 875 753 875 753 882.5 759.5 c 128,-1,44
 890 766 890 766 902 766 c 0,45,46
 917 766 917 766 925 759.5 c 128,-1,47
 933 753 933 753 937.5 743 c 128,-1,48
 942 733 942 733 943 720 c 128,-1,49
 944 707 944 707 944 694 c 2,50,-1
 944 203 l 2,51,52
 944 49 944 49 919.5 -54 c 128,-1,53
 895 -157 895 -157 842 -219.5 c 128,-1,54
 789 -282 789 -282 706 -308 c 128,-1,55
 623 -334 623 -334 505 -334 c 0,56,57
 421 -334 421 -334 363.5 -325 c 128,-1,58
 306 -316 306 -316 266.5 -302.5 c 128,-1,59
 227 -289 227 -289 201 -272 c 128,-1,60
 175 -255 175 -255 156 -240 c 0,61,62
 151 -236 151 -236 149 -230 c 128,-1,63
 147 -224 147 -224 147.5 -218 c 128,-1,64
 148 -212 148 -212 150 -207 c 128,-1,65
 152 -202 152 -202 154 -199 c 0,66,67
 159 -193 159 -193 171.5 -189 c 128,-1,68
 184 -185 184 -185 196 -194 c 0,69,70
 215 -208 215 -208 240.5 -222.5 c 128,-1,71
 266 -237 266 -237 302.5 -248.5 c 128,-1,72
 339 -260 339 -260 388 -267.5 c 128,-1,73
 437 -275 437 -275 505 -275 c 0,0,1
EndSplineSet
EndChar

StartChar: z
Encoding: 122 122 111
Width: 961
Flags: W
HStem: 0 70<168 900.812> 702 70<69.673 791>
DStem2: 53 59 168 70 0.753967 0.656912<93.9323 978.822>
LayerCount: 2
Fore
SplineSet
115 0 m 2,0,1
 100 0 100 0 87 0.5 c 128,-1,2
 74 1 74 1 64.5 4 c 128,-1,3
 55 7 55 7 49 14 c 128,-1,4
 43 21 43 21 43 33 c 0,5,6
 43 49 43 49 53 59 c 2,7,-1
 422 381 l 1,8,9
 606 540 606 540 791 702 c 1,10,-1
 137 702 l 2,11,12
 122 702 122 702 109 702.5 c 128,-1,13
 96 703 96 703 86 706 c 128,-1,14
 76 709 76 709 70 716 c 128,-1,15
 64 723 64 723 64 735 c 0,16,17
 64 750 64 750 69.5 757.5 c 128,-1,18
 75 765 75 765 85 768 c 128,-1,19
 95 771 95 771 107.5 771.5 c 128,-1,20
 120 772 120 772 135 772 c 2,21,-1
 844 772 l 2,22,23
 859 772 859 772 872 771.5 c 128,-1,24
 885 771 885 771 895.5 768 c 128,-1,25
 906 765 906 765 912 757.5 c 128,-1,26
 918 750 918 750 918 735 c 256,27,28
 918 720 918 720 905 711 c 1,29,-1
 168 70 l 1,30,-1
 834 70 l 2,31,32
 849 70 849 70 862 69.5 c 128,-1,33
 875 69 875 69 885 66 c 128,-1,34
 895 63 895 63 901 55.5 c 128,-1,35
 907 48 907 48 907 33 c 0,36,37
 907 21 907 21 900.5 14 c 128,-1,38
 894 7 894 7 884 4 c 128,-1,39
 874 1 874 1 861.5 0.5 c 128,-1,40
 849 0 849 0 836 0 c 2,41,-1
 115 0 l 2,0,1
EndSplineSet
EndChar

StartChar: braceleft
Encoding: 123 123 112
Width: 625
Flags: W
HStem: 23 63<433.375 586.748> 718 64<13.2522 146.277> 1413 64<433.116 586.748>
VStem: 5 590
DStem2: 260.5 1027 325.5 971 0.0999159 0.994996<-179.96 331.825> 325.5 528 260.5 473 0.0999159 -0.994996<-131.73 380.614>
LayerCount: 2
Fore
SplineSet
38 782 m 0,0,1
 104 782 104 782 145 801.5 c 128,-1,2
 186 821 186 821 210.5 854.5 c 128,-1,3
 235 888 235 888 245.5 932.5 c 128,-1,4
 256 977 256 977 260.5 1027 c 128,-1,5
 265 1077 265 1077 267.5 1129.5 c 128,-1,6
 270 1182 270 1182 277 1232 c 128,-1,7
 284 1282 284 1282 300 1326.5 c 128,-1,8
 316 1371 316 1371 348 1404.5 c 128,-1,9
 380 1438 380 1438 431.5 1457.5 c 128,-1,10
 483 1477 483 1477 562 1477 c 0,11,12
 579 1477 579 1477 587 1466.5 c 128,-1,13
 595 1456 595 1456 595 1444 c 0,14,15
 595 1431 595 1431 587 1422 c 128,-1,16
 579 1413 579 1413 562 1413 c 2,17,-1
 545 1413 l 2,18,19
 478 1413 478 1413 438.5 1385.5 c 128,-1,20
 399 1358 399 1358 378 1313 c 128,-1,21
 357 1268 357 1268 349.5 1210 c 128,-1,22
 342 1152 342 1152 337 1091 c 128,-1,23
 332 1030 332 1030 325.5 971 c 128,-1,24
 319 912 319 912 300 864.5 c 128,-1,25
 281 817 281 817 245.5 786 c 128,-1,26
 210 755 210 755 147 750 c 1,27,28
 210 745 210 745 245.5 713.5 c 128,-1,29
 281 682 281 682 300 634.5 c 128,-1,30
 319 587 319 587 325.5 528 c 128,-1,31
 332 469 332 469 337 408 c 128,-1,32
 342 347 342 347 349.5 289 c 128,-1,33
 357 231 357 231 378 186 c 128,-1,34
 399 141 399 141 438.5 113.5 c 128,-1,35
 478 86 478 86 545 86 c 0,36,37
 550 86 550 86 554.5 86.5 c 128,-1,38
 559 87 559 87 564 87 c 0,39,40
 580 87 580 87 587.5 77 c 128,-1,41
 595 67 595 67 595 56 c 0,42,43
 595 43 595 43 587 33 c 128,-1,44
 579 23 579 23 562 23 c 0,45,46
 483 23 483 23 431.5 42.5 c 128,-1,47
 380 62 380 62 348 95.5 c 128,-1,48
 316 129 316 129 300 173.5 c 128,-1,49
 284 218 284 218 277 268 c 128,-1,50
 270 318 270 318 267.5 370.5 c 128,-1,51
 265 423 265 423 260.5 473 c 128,-1,52
 256 523 256 523 245.5 567.5 c 128,-1,53
 235 612 235 612 210.5 645.5 c 128,-1,54
 186 679 186 679 145 698.5 c 128,-1,55
 104 718 104 718 38 718 c 0,56,57
 21 718 21 718 13 728 c 128,-1,58
 5 738 5 738 5 750 c 256,59,60
 5 762 5 762 13 772 c 128,-1,61
 21 782 21 782 38 782 c 0,0,1
EndSplineSet
EndChar

StartChar: bar
Encoding: 124 124 113
Width: 250
Flags: W
VStem: 81 72<-127.327 1290.33>
LayerCount: 2
Fore
SplineSet
153 -63 m 2,0,1
 153 -78 153 -78 152.5 -90.5 c 128,-1,2
 152 -103 152 -103 148.5 -112.5 c 128,-1,3
 145 -122 145 -122 138 -127.5 c 128,-1,4
 131 -133 131 -133 118 -133 c 0,5,6
 103 -133 103 -133 95.5 -127.5 c 128,-1,7
 88 -122 88 -122 85 -112.5 c 128,-1,8
 82 -103 82 -103 81.5 -91 c 128,-1,9
 81 -79 81 -79 81 -66 c 2,10,-1
 81 1225 l 2,11,12
 81 1240 81 1240 81.5 1252.5 c 128,-1,13
 82 1265 82 1265 85 1275 c 128,-1,14
 88 1285 88 1285 95.5 1290.5 c 128,-1,15
 103 1296 103 1296 118 1296 c 0,16,17
 131 1296 131 1296 138 1290 c 128,-1,18
 145 1284 145 1284 148.5 1274.5 c 128,-1,19
 152 1265 152 1265 152.5 1252.5 c 128,-1,20
 153 1240 153 1240 153 1227 c 2,21,-1
 153 -63 l 2,0,1
EndSplineSet
EndChar

StartChar: braceright
Encoding: 125 125 114
Width: 625
Flags: W
HStem: 23 64<39.2522 194.617> 718 64<479.723 612.748> 1413 64<39.2522 192.884>
VStem: 31 590
DStem2: 349 1232 276.5 1210 0.0999159 -0.994996<-126.202 392.076> 289 408 349 268 0.0999159 0.994996<-259.23 258.395>
CounterMasks: 1 e0
LayerCount: 2
Fore
SplineSet
588 782 m 0,0,1
 605 782 605 782 613 772 c 128,-1,2
 621 762 621 762 621 750 c 256,3,4
 621 738 621 738 613 728 c 128,-1,5
 605 718 605 718 588 718 c 0,6,7
 522 718 522 718 481 698.5 c 128,-1,8
 440 679 440 679 415.5 645.5 c 128,-1,9
 391 612 391 612 380.5 567.5 c 128,-1,10
 370 523 370 523 365.5 473 c 128,-1,11
 361 423 361 423 358.5 370.5 c 128,-1,12
 356 318 356 318 349 268 c 128,-1,13
 342 218 342 218 326 173.5 c 128,-1,14
 310 129 310 129 278 95.5 c 128,-1,15
 246 62 246 62 194.5 42.5 c 128,-1,16
 143 23 143 23 64 23 c 0,17,18
 47 23 47 23 39 33 c 128,-1,19
 31 43 31 43 31 56 c 0,20,21
 31 67 31 67 38.5 77 c 128,-1,22
 46 87 46 87 62 87 c 0,23,24
 67 87 67 87 71.5 86.5 c 128,-1,25
 76 86 76 86 81 86 c 0,26,27
 148 86 148 86 187.5 113.5 c 128,-1,28
 227 141 227 141 248 186 c 128,-1,29
 269 231 269 231 276.5 289 c 128,-1,30
 284 347 284 347 289 408 c 128,-1,31
 294 469 294 469 300.5 528 c 128,-1,32
 307 587 307 587 326 634.5 c 128,-1,33
 345 682 345 682 380.5 713.5 c 128,-1,34
 416 745 416 745 479 750 c 1,35,36
 416 755 416 755 380.5 786 c 128,-1,37
 345 817 345 817 326 864.5 c 128,-1,38
 307 912 307 912 300.5 971 c 128,-1,39
 294 1030 294 1030 289 1091 c 128,-1,40
 284 1152 284 1152 276.5 1210 c 128,-1,41
 269 1268 269 1268 248 1313 c 128,-1,42
 227 1358 227 1358 187.5 1385.5 c 128,-1,43
 148 1413 148 1413 81 1413 c 2,44,-1
 64 1413 l 2,45,46
 47 1413 47 1413 39 1422 c 128,-1,47
 31 1431 31 1431 31 1444 c 0,48,49
 31 1456 31 1456 39 1466.5 c 128,-1,50
 47 1477 47 1477 64 1477 c 0,51,52
 143 1477 143 1477 194.5 1457.5 c 128,-1,53
 246 1438 246 1438 278 1404.5 c 128,-1,54
 310 1371 310 1371 326 1326.5 c 128,-1,55
 342 1282 342 1282 349 1232 c 128,-1,56
 356 1182 356 1182 358.5 1129.5 c 128,-1,57
 361 1077 361 1077 365.5 1027 c 128,-1,58
 370 977 370 977 380.5 932.5 c 128,-1,59
 391 888 391 888 415.5 854.5 c 128,-1,60
 440 821 440 821 481 801.5 c 128,-1,61
 522 782 522 782 588 782 c 0,0,1
EndSplineSet
EndChar

StartChar: asciitilde
Encoding: 126 126 115
Width: 913
Flags: W
HStem: 403 72<541.693 739.241> 612 72<172 368.307>
VStem: 57 71<440 566.979> 782 73<518.021 647>
DStem2: 416.5 630 390.5 558 0.755336 -0.655338<-95.0119 266.546>
LayerCount: 2
Fore
SplineSet
636 475 m 0,0,1
 664 475 664 475 690.5 482.5 c 128,-1,2
 717 490 717 490 737.5 509 c 128,-1,3
 758 528 758 528 770 561.5 c 128,-1,4
 782 595 782 595 782 647 c 1,5,-1
 855 647 l 1,6,7
 855 569 855 569 831 521 c 128,-1,8
 807 473 807 473 773 446.5 c 128,-1,9
 739 420 739 420 701.5 411.5 c 128,-1,10
 664 403 664 403 636 403 c 0,11,12
 591 403 591 403 556.5 418.5 c 128,-1,13
 522 434 522 434 493.5 457 c 128,-1,14
 465 480 465 480 440.5 507.5 c 128,-1,15
 416 535 416 535 390.5 558 c 128,-1,16
 365 581 365 581 337 596.5 c 128,-1,17
 309 612 309 612 274 612 c 0,18,19
 246 612 246 612 220 605 c 128,-1,20
 194 598 194 598 173.5 578.5 c 128,-1,21
 153 559 153 559 140.5 525.5 c 128,-1,22
 128 492 128 492 128 440 c 1,23,-1
 57 440 l 1,24,25
 57 518 57 518 80.5 565.5 c 128,-1,26
 104 613 104 613 137.5 639.5 c 128,-1,27
 171 666 171 666 208.5 675 c 128,-1,28
 246 684 246 684 274 684 c 0,29,30
 319 684 319 684 353.5 668.5 c 128,-1,31
 388 653 388 653 416.5 630 c 128,-1,32
 445 607 445 607 469.5 579.5 c 128,-1,33
 494 552 494 552 519.5 529 c 128,-1,34
 545 506 545 506 573 490.5 c 128,-1,35
 601 475 601 475 636 475 c 0,0,1
EndSplineSet
EndChar

StartChar: dagger
Encoding: 8224 8224 149
Width: 661
Flags: W
HStem: 0 21G<324.5 338.5> 766 70<20.4702 296 368 649.296> 1090 20G<324.5 338.5>
VStem: 296 72<6.7041 766 836 1103.3>
LayerCount: 2
Fore
SplineSet
296 1040 m 2,0,1
 296 1052 296 1052 296.5 1064 c 128,-1,2
 297 1076 297 1076 300.5 1086.5 c 128,-1,3
 304 1097 304 1097 311 1103.5 c 128,-1,4
 318 1110 318 1110 331 1110 c 0,5,6
 346 1110 346 1110 353.5 1103.5 c 128,-1,7
 361 1097 361 1097 364 1087 c 128,-1,8
 367 1077 367 1077 367.5 1064.5 c 128,-1,9
 368 1052 368 1052 368 1040 c 2,10,-1
 368 836 l 1,11,-1
 583 836 l 2,12,13
 595 836 595 836 608 835.5 c 128,-1,14
 621 835 621 835 631.5 831.5 c 128,-1,15
 642 828 642 828 649 821 c 128,-1,16
 656 814 656 814 656 801 c 256,17,18
 656 788 656 788 649.5 781 c 128,-1,19
 643 774 643 774 632.5 770.5 c 128,-1,20
 622 767 622 767 609 766.5 c 128,-1,21
 596 766 596 766 583 766 c 2,22,-1
 368 766 l 1,23,-1
 368 70 l 2,24,25
 368 58 368 58 367.5 45.5 c 128,-1,26
 367 33 367 33 364 23 c 128,-1,27
 361 13 361 13 353.5 6.5 c 128,-1,28
 346 0 346 0 331 0 c 0,29,30
 318 0 318 0 311 6.5 c 128,-1,31
 304 13 304 13 300.5 23.5 c 128,-1,32
 297 34 297 34 296.5 46 c 128,-1,33
 296 58 296 58 296 70 c 2,34,-1
 296 766 l 1,35,-1
 77 766 l 2,36,37
 65 766 65 766 52 766.5 c 128,-1,38
 39 767 39 767 28.5 770.5 c 128,-1,39
 18 774 18 774 11.5 781 c 128,-1,40
 5 788 5 788 5 801 c 0,41,42
 5 819 5 819 20 826.5 c 128,-1,43
 35 834 35 834 56 836 c 128,-1,44
 77 838 77 838 98.5 837 c 128,-1,45
 120 836 120 836 132 836 c 2,46,-1
 296 836 l 1,47,-1
 296 1040 l 2,0,1
EndSplineSet
EndChar

StartChar: cent
Encoding: 162 162 151
Width: 948
Flags: W
HStem: -10 59<318.513 474 546 753.008> 727 59<315.746 474 546 755.611>
VStem: 39 80<201.997 575.464> 474 72<-127.327 -10 51 725 786 944.327>
LayerCount: 2
Fore
SplineSet
546 -63 m 2,0,1
 546 -78 546 -78 545.5 -90.5 c 128,-1,2
 545 -103 545 -103 541.5 -112.5 c 128,-1,3
 538 -122 538 -122 531 -127.5 c 128,-1,4
 524 -133 524 -133 511 -133 c 0,5,6
 496 -133 496 -133 488.5 -127.5 c 128,-1,7
 481 -122 481 -122 478 -112.5 c 128,-1,8
 475 -103 475 -103 474.5 -91 c 128,-1,9
 474 -79 474 -79 474 -66 c 2,10,-1
 474 -8 l 1,11,12
 375 -3 375 -3 295 18.5 c 128,-1,13
 215 40 215 40 158 86 c 128,-1,14
 101 132 101 132 70 205 c 128,-1,15
 39 278 39 278 39 385 c 256,16,17
 39 492 39 492 68 565.5 c 128,-1,18
 97 639 97 639 152.5 686 c 128,-1,19
 208 733 208 733 289 756 c 128,-1,20
 370 779 370 779 474 784 c 1,21,-1
 474 879 l 2,22,23
 474 894 474 894 474.5 906.5 c 128,-1,24
 475 919 475 919 478 929 c 128,-1,25
 481 939 481 939 488.5 944.5 c 128,-1,26
 496 950 496 950 511 950 c 0,27,28
 524 950 524 950 531 944 c 128,-1,29
 538 938 538 938 541.5 928.5 c 128,-1,30
 545 919 545 919 545.5 906.5 c 128,-1,31
 546 894 546 894 546 881 c 2,32,-1
 546 786 l 1,33,-1
 547 786 l 2,34,35
 635 786 635 786 729.5 768.5 c 128,-1,36
 824 751 824 751 911 706 c 0,37,38
 922 700 922 700 927 691.5 c 128,-1,39
 932 683 932 683 932 675 c 0,40,41
 932 664 932 664 924.5 656.5 c 128,-1,42
 917 649 917 649 904 649 c 0,43,44
 893 649 893 649 883 654 c 0,45,46
 859 666 859 666 821.5 678.5 c 128,-1,47
 784 691 784 691 739 702 c 128,-1,48
 694 713 694 713 644.5 720 c 128,-1,49
 595 727 595 727 547 727 c 2,50,-1
 546 727 l 1,51,-1
 546 49 l 1,52,53
 594 49 594 49 643.5 56 c 128,-1,54
 693 63 693 63 738 74 c 128,-1,55
 783 85 783 85 821 97.5 c 128,-1,56
 859 110 859 110 883 122 c 0,57,58
 893 127 893 127 904 127 c 0,59,60
 917 127 917 127 924.5 119.5 c 128,-1,61
 932 112 932 112 932 101 c 0,62,63
 932 93 932 93 927 84.5 c 128,-1,64
 922 76 922 76 911 70 c 0,65,66
 824 25 824 25 729.5 7.5 c 128,-1,67
 635 -10 635 -10 547 -10 c 2,68,-1
 546 -10 l 1,69,-1
 546 -63 l 2,0,1
119 385 m 256,70,71
 119 301 119 301 141 240.5 c 128,-1,72
 163 180 163 180 207.5 139.5 c 128,-1,73
 252 99 252 99 318.5 78 c 128,-1,74
 385 57 385 57 474 51 c 1,75,-1
 474 725 l 1,76,77
 379 719 379 719 311.5 696.5 c 128,-1,78
 244 674 244 674 201.5 632.5 c 128,-1,79
 159 591 159 591 139 530 c 128,-1,80
 119 469 119 469 119 385 c 256,70,71
EndSplineSet
EndChar

StartChar: sterling
Encoding: 163 163 152
Width: 925
Flags: W
HStem: -1 64<126.022 310.319 614.766 885.773> 138 63<127.053 343.25> 521 71<74.8312 308 386 746.995> 1085 65<465.047 733.106>
VStem: 35 74<70.6878 129.615> 301 69<593.156 974.056> 346 71<171.531 518.822>
DStem2: 375 664 304 659 0.0965528 -0.995328<-108.044 65.1946 143.394 442.775> 577.5 104.5 553 35.5 0.976447 -0.215756<-176.51 254.853>
LayerCount: 2
Fore
SplineSet
186 201 m 0,0,1
 245 201 245 201 294.5 191.5 c 128,-1,2
 344 182 344 182 390.5 167.5 c 128,-1,3
 437 153 437 153 482 136 c 128,-1,4
 527 119 527 119 577.5 104.5 c 128,-1,5
 628 90 628 90 686 80.5 c 128,-1,6
 744 71 744 71 816 71 c 0,7,8
 848 71 848 71 867 65 c 128,-1,9
 886 59 886 59 886 36 c 0,10,11
 886 9 886 9 867 4.5 c 128,-1,12
 848 0 848 0 818 0 c 0,13,14
 735 0 735 0 670.5 10 c 128,-1,15
 606 20 606 20 553 35.5 c 128,-1,16
 500 51 500 51 455 69 c 128,-1,17
 410 87 410 87 367.5 102.5 c 128,-1,18
 325 118 325 118 281 128 c 128,-1,19
 237 138 237 138 186 138 c 0,20,21
 144 138 144 138 126.5 126 c 128,-1,22
 109 114 109 114 109 100 c 256,23,24
 109 86 109 86 125.5 74.5 c 128,-1,25
 142 63 142 63 183 63 c 0,26,27
 231 63 231 63 262 70.5 c 128,-1,28
 293 78 293 78 312 95.5 c 128,-1,29
 331 113 331 113 338.5 141.5 c 128,-1,30
 346 170 346 170 346 212 c 0,31,32
 346 222 346 222 344.5 240.5 c 128,-1,33
 343 259 343 259 341 283 c 128,-1,34
 339 307 339 307 336 333.5 c 128,-1,35
 333 360 333 360 330 387 c 0,36,37
 323 449 323 449 314 521 c 1,38,-1
 108 521 l 2,39,40
 85 521 85 521 74.5 532 c 128,-1,41
 64 543 64 543 64 556 c 0,42,43
 64 570 64 570 74.5 581 c 128,-1,44
 85 592 85 592 108 592 c 2,45,-1
 308 592 l 1,46,47
 306 626 306 626 304 659 c 0,48,49
 302 687 302 687 301.5 716.5 c 128,-1,50
 301 746 301 746 301 766 c 0,51,52
 301 869 301 869 321 941.5 c 128,-1,53
 341 1014 341 1014 376 1060.5 c 128,-1,54
 411 1107 411 1107 460 1128.5 c 128,-1,55
 509 1150 509 1150 568 1150 c 0,56,57
 600 1150 600 1150 634 1146.5 c 128,-1,58
 668 1143 668 1143 704 1132.5 c 128,-1,59
 740 1122 740 1122 777 1103.5 c 128,-1,60
 814 1085 814 1085 852 1055 c 0,61,62
 870 1040 870 1040 870 1020 c 0,63,64
 870 1007 870 1007 862.5 998 c 128,-1,65
 855 989 855 989 842 989 c 0,66,67
 836 989 836 989 829 991.5 c 128,-1,68
 822 994 822 994 814 1001 c 0,69,70
 782 1028 782 1028 750 1044.5 c 128,-1,71
 718 1061 718 1061 687.5 1070 c 128,-1,72
 657 1079 657 1079 628.5 1082 c 128,-1,73
 600 1085 600 1085 575 1085 c 0,74,75
 530 1085 530 1085 492 1068.5 c 128,-1,76
 454 1052 454 1052 427 1015 c 128,-1,77
 400 978 400 978 385 920 c 128,-1,78
 370 862 370 862 370 778 c 0,79,80
 370 757 370 757 371.5 725.5 c 128,-1,81
 373 694 373 694 375 664 c 0,82,83
 377 629 377 629 380 592 c 1,84,-1
 677 592 l 2,85,86
 692 592 692 592 704.5 591.5 c 128,-1,87
 717 591 717 591 726.5 587.5 c 128,-1,88
 736 584 736 584 741.5 577 c 128,-1,89
 747 570 747 570 747 557 c 0,90,91
 747 531 747 531 727.5 526 c 128,-1,92
 708 521 708 521 677 521 c 2,93,-1
 386 521 l 1,94,95
 394 448 394 448 401 386 c 0,96,97
 404 360 404 360 407 333.5 c 128,-1,98
 410 307 410 307 412 285 c 128,-1,99
 414 263 414 263 415.5 246.5 c 128,-1,100
 417 230 417 230 417 223 c 0,101,102
 417 155 417 155 398 112 c 128,-1,103
 379 69 379 69 347 43.5 c 128,-1,104
 315 18 315 18 273.5 8.5 c 128,-1,105
 232 -1 232 -1 186 -1 c 0,106,107
 147 -1 147 -1 118.5 7.5 c 128,-1,108
 90 16 90 16 71.5 30 c 128,-1,109
 53 44 53 44 44 62 c 128,-1,110
 35 80 35 80 35 99 c 256,111,112
 35 118 35 118 44 136.5 c 128,-1,113
 53 155 53 155 71.5 169 c 128,-1,114
 90 183 90 183 118.5 192 c 128,-1,115
 147 201 147 201 186 201 c 0,0,1
EndSplineSet
EndChar

StartChar: section
Encoding: 167 167 153
Width: 1074
Flags: W
HStem: -10 59<261.754 803.559> 356.5 62.5<240.725 816.09> 721 63<259.869 829.984> 1092 59<272.208 750.531>
VStem: 62 80<479.34 646.278 844.62 1013.17> 935 80<125.128 291.355 491.535 656.073>
LayerCount: 2
Fore
SplineSet
935 209 m 0,0,1
 935 262 935 262 897.5 291 c 128,-1,2
 860 320 860 320 798.5 333.5 c 128,-1,3
 737 347 737 347 658.5 350.5 c 128,-1,4
 580 354 580 354 498.5 356.5 c 128,-1,5
 417 359 417 359 338.5 365.5 c 128,-1,6
 260 372 260 372 198.5 392.5 c 128,-1,7
 137 413 137 413 99.5 451.5 c 128,-1,8
 62 490 62 490 62 557 c 0,9,10
 62 595 62 595 74.5 625.5 c 128,-1,11
 87 656 87 656 109.5 679 c 128,-1,12
 132 702 132 702 163 719 c 128,-1,13
 194 736 194 736 231 748 c 1,14,15
 193 757 193 757 162 771 c 128,-1,16
 131 785 131 785 109 806 c 128,-1,17
 87 827 87 827 74.5 855.5 c 128,-1,18
 62 884 62 884 62 922 c 0,19,20
 62 991 62 991 99.5 1035 c 128,-1,21
 137 1079 137 1079 198 1105 c 128,-1,22
 259 1131 259 1131 336 1141 c 128,-1,23
 413 1151 413 1151 493 1151 c 0,24,25
 621 1151 621 1151 736.5 1129 c 128,-1,26
 852 1107 852 1107 947 1057 c 0,27,28
 957 1052 957 1052 960.5 1044.5 c 128,-1,29
 964 1037 964 1037 965 1029 c 1,30,31
 965 1016 965 1016 957 1006 c 128,-1,32
 949 996 949 996 939 996 c 0,33,34
 933 996 933 996 931 998 c 0,35,36
 846 1041 846 1041 737 1066.5 c 128,-1,37
 628 1092 628 1092 497 1092 c 0,38,39
 429 1092 429 1092 365 1083.5 c 128,-1,40
 301 1075 301 1075 251.5 1055.5 c 128,-1,41
 202 1036 202 1036 172 1003.5 c 128,-1,42
 142 971 142 971 142 922 c 0,43,44
 142 872 142 872 179.5 845 c 128,-1,45
 217 818 217 818 278.5 805.5 c 128,-1,46
 340 793 340 793 418.5 790 c 128,-1,47
 497 787 497 787 578.5 784 c 128,-1,48
 660 781 660 781 738.5 773.5 c 128,-1,49
 817 766 817 766 878.5 744.5 c 128,-1,50
 940 723 940 723 977.5 682.5 c 128,-1,51
 1015 642 1015 642 1015 574 c 0,52,53
 1015 538 1015 538 1002 509.5 c 128,-1,54
 989 481 989 481 965 459 c 128,-1,55
 941 437 941 437 907.5 420.5 c 128,-1,56
 874 404 874 404 834 392 c 1,57,58
 874 383 874 383 907 368 c 128,-1,59
 940 353 940 353 964 331 c 128,-1,60
 988 309 988 309 1001.5 279 c 128,-1,61
 1015 249 1015 249 1015 209 c 0,62,63
 1015 148 1015 148 977 106 c 128,-1,64
 939 64 939 64 876 38.5 c 128,-1,65
 813 13 813 13 730.5 1.5 c 128,-1,66
 648 -10 648 -10 560 -10 c 0,67,68
 506 -10 506 -10 443.5 -7.5 c 128,-1,69
 381 -5 381 -5 319 4.5 c 128,-1,70
 257 14 257 14 199 33.5 c 128,-1,71
 141 53 141 53 98 87 c 0,72,73
 84 97 84 97 84 113 c 0,74,75
 84 126 84 126 91.5 135.5 c 128,-1,76
 99 145 99 145 110 145 c 0,77,78
 117 145 117 145 122 141 c 0,79,80
 164 112 164 112 212.5 94 c 128,-1,81
 261 76 261 76 315 66 c 128,-1,82
 369 56 369 56 428 52.5 c 128,-1,83
 487 49 487 49 550 49 c 0,84,85
 625 49 625 49 694.5 56.5 c 128,-1,86
 764 64 764 64 817.5 82.5 c 128,-1,87
 871 101 871 101 903 131.5 c 128,-1,88
 935 162 935 162 935 209 c 0,0,1
935 574 m 0,89,90
 935 627 935 627 898 655.5 c 128,-1,91
 861 684 861 684 800 698 c 128,-1,92
 739 712 739 712 661 715.5 c 128,-1,93
 583 719 583 719 502 721 c 1,94,95
 434 721 434 721 369 713.5 c 128,-1,96
 304 706 304 706 253.5 687.5 c 128,-1,97
 203 669 203 669 172.5 637.5 c 128,-1,98
 142 606 142 606 142 557 c 0,99,100
 142 506 142 506 179.5 479.5 c 128,-1,101
 217 453 217 453 278.5 440 c 128,-1,102
 340 427 340 427 418 424.5 c 128,-1,103
 496 422 496 422 578 419 c 1,104,105
 648 420 648 420 713 428 c 128,-1,106
 778 436 778 436 827 453.5 c 128,-1,107
 876 471 876 471 905.5 500.5 c 128,-1,108
 935 530 935 530 935 574 c 0,89,90
EndSplineSet
EndChar

StartChar: bullet
Encoding: 8226 8226 154
Width: 823
Flags: W
HStem: 68 673<237.454 585.438>
VStem: 60 703<240.687 566.078>
LayerCount: 2
Fore
SplineSet
763 403 m 256,0,1
 763 333 763 333 735 272 c 128,-1,2
 707 211 707 211 659 165.5 c 128,-1,3
 611 120 611 120 547 94 c 128,-1,4
 483 68 483 68 411 68 c 256,5,6
 339 68 339 68 275 94.5 c 128,-1,7
 211 121 211 121 163 166.5 c 128,-1,8
 115 212 115 212 87.5 273 c 128,-1,9
 60 334 60 334 60 403 c 0,10,11
 60 473 60 473 87.5 534.5 c 128,-1,12
 115 596 115 596 162.5 642 c 128,-1,13
 210 688 210 688 274 714.5 c 128,-1,14
 338 741 338 741 411 741 c 0,15,16
 483 741 483 741 547 714.5 c 128,-1,17
 611 688 611 688 659 642 c 128,-1,18
 707 596 707 596 735 534.5 c 128,-1,19
 763 473 763 473 763 403 c 256,0,1
EndSplineSet
EndChar

StartChar: paragraph
Encoding: 182 182 155
Width: 741
Flags: W
HStem: 0 21G<395 421.5 594 620.5> 1021 93<453 567>
VStem: 21 432<681.378 967.798> 368 85<23.2052 542> 567 85<23.2052 1021>
LayerCount: 2
Fore
SplineSet
368 542 m 1,0,1
 283 542 283 542 218 566 c 128,-1,2
 153 590 153 590 109.5 630 c 128,-1,3
 66 670 66 670 43.5 721 c 128,-1,4
 21 772 21 772 21 825 c 256,5,6
 21 878 21 878 43.5 928.5 c 128,-1,7
 66 979 66 979 111 1019 c 128,-1,8
 156 1059 156 1059 225 1084 c 128,-1,9
 294 1109 294 1109 387 1111 c 2,10,-1
 601 1114 l 1,11,-1
 618 1114 l 2,12,13
 638 1114 638 1114 645 1108 c 128,-1,14
 652 1102 652 1102 652 1077 c 2,15,-1
 652 76 l 2,16,17
 652 45 652 45 643.5 22.5 c 128,-1,18
 635 0 635 0 606 0 c 0,19,20
 582 0 582 0 574.5 23.5 c 128,-1,21
 567 47 567 47 567 76 c 2,22,-1
 567 1021 l 1,23,-1
 453 1021 l 1,24,-1
 453 76 l 2,25,26
 453 45 453 45 444.5 22.5 c 128,-1,27
 436 0 436 0 407 0 c 0,28,29
 383 0 383 0 375.5 23.5 c 128,-1,30
 368 47 368 47 368 76 c 2,31,-1
 368 542 l 1,0,1
EndSplineSet
EndChar

StartChar: germandbls
Encoding: 223 223 156
Width: 1138
Flags: W
HStem: -66 66<446.704 907.186> 1077 72<302.007 784.29>
VStem: 84 71<-138.878 942.985> 389 45<504.379 543.962> 876 74<777.112 1000.74> 1022 73<85.4182 325.063>
DStem2: 543 639.5 514.5 564 0.963945 0.266103<-136.748 285.371> 462.5 503 589 431 0.995373 -0.0960904<-29.7427 494.662>
LayerCount: 2
Fore
SplineSet
1095 209 m 0,0,1
 1095 157 1095 157 1084.5 116 c 128,-1,2
 1074 75 1074 75 1048.5 44.5 c 128,-1,3
 1023 14 1023 14 980.5 -7 c 128,-1,4
 938 -28 938 -28 873 -41 c 128,-1,5
 808 -54 808 -54 718.5 -60 c 128,-1,6
 629 -66 629 -66 510 -66 c 0,7,8
 498 -66 498 -66 486 -65.5 c 128,-1,9
 474 -65 474 -65 463.5 -62.5 c 128,-1,10
 453 -60 453 -60 446.5 -54.5 c 128,-1,11
 440 -49 440 -49 440 -39 c 0,12,13
 440 -24 440 -24 446 -16.5 c 128,-1,14
 452 -9 452 -9 462.5 -5 c 128,-1,15
 473 -1 473 -1 486 -0.5 c 128,-1,16
 499 0 499 0 514 0 c 0,17,18
 645 0 645 0 741 3.5 c 128,-1,19
 837 7 837 7 899.5 26.5 c 128,-1,20
 962 46 962 46 992 88.5 c 128,-1,21
 1022 131 1022 131 1022 209 c 0,22,23
 1022 273 1022 273 995 313 c 128,-1,24
 968 353 968 353 923.5 376 c 128,-1,25
 879 399 879 399 822 409 c 128,-1,26
 765 419 765 419 705.5 423.5 c 128,-1,27
 646 428 646 428 589 431 c 128,-1,28
 532 434 532 434 487.5 442.5 c 128,-1,29
 443 451 443 451 416 469.5 c 128,-1,30
 389 488 389 488 389 523 c 0,31,32
 389 554 389 554 410 574.5 c 128,-1,33
 431 595 431 595 465 611 c 128,-1,34
 499 627 499 627 543 639.5 c 128,-1,35
 587 652 587 652 632.5 666 c 128,-1,36
 678 680 678 680 722 697.5 c 128,-1,37
 766 715 766 715 800 740 c 128,-1,38
 834 765 834 765 855 800 c 128,-1,39
 876 835 876 835 876 885 c 0,40,41
 876 941 876 941 855.5 978 c 128,-1,42
 835 1015 835 1015 794 1037 c 128,-1,43
 753 1059 753 1059 692 1068 c 128,-1,44
 631 1077 631 1077 550 1077 c 0,45,46
 451 1077 451 1077 376.5 1063.5 c 128,-1,47
 302 1050 302 1050 253 1015 c 128,-1,48
 204 980 204 980 179.5 920 c 128,-1,49
 155 860 155 860 155 766 c 2,50,-1
 155 -70 l 2,51,52
 155 -99 155 -99 151 -119 c 128,-1,53
 147 -139 147 -139 123 -139 c 0,54,55
 108 -139 108 -139 100.5 -133.5 c 128,-1,56
 93 -128 93 -128 89 -119 c 128,-1,57
 85 -110 85 -110 84.5 -97.5 c 128,-1,58
 84 -85 84 -85 84 -70 c 2,59,-1
 84 766 l 2,60,61
 84 870 84 870 111 943 c 128,-1,62
 138 1016 138 1016 194.5 1061.5 c 128,-1,63
 251 1107 251 1107 339 1128 c 128,-1,64
 427 1149 427 1149 549 1149 c 0,65,66
 645 1149 645 1149 719.5 1136 c 128,-1,67
 794 1123 794 1123 845.5 1092 c 128,-1,68
 897 1061 897 1061 923.5 1010.5 c 128,-1,69
 950 960 950 960 950 885 c 0,70,71
 950 826 950 826 928 782.5 c 128,-1,72
 906 739 906 739 869.5 706.5 c 128,-1,73
 833 674 833 674 786.5 651.5 c 128,-1,74
 740 629 740 629 692 613 c 128,-1,75
 644 597 644 597 597.5 585.5 c 128,-1,76
 551 574 551 574 514.5 564 c 128,-1,77
 478 554 478 554 456 544 c 128,-1,78
 434 534 434 534 434 520 c 0,79,80
 434 507 434 507 462.5 503 c 128,-1,81
 491 499 491 499 537.5 498 c 128,-1,82
 584 497 584 497 643.5 495.5 c 128,-1,83
 703 494 703 494 764.5 486.5 c 128,-1,84
 826 479 826 479 885.5 462.5 c 128,-1,85
 945 446 945 446 991.5 414.5 c 128,-1,86
 1038 383 1038 383 1066.5 333 c 128,-1,87
 1095 283 1095 283 1095 209 c 0,0,1
EndSplineSet
EndChar

StartChar: registered
Encoding: 174 174 157
Width: 1155
Flags: W
HStem: 92 61<403.791 757.606> 497 45<417 588 661 749.969> 815 50<417 750.983> 959 61<403.791 757.606>
VStem: 62 73<384.988 727.012> 350 67<261.799 497 542 815> 806 65<581.407 765.233> 1027 66<392.924 719.076>
DStem2: 661 495 588 493 0.634317 -0.773073<0 272.79>
LayerCount: 2
Fore
SplineSet
871 674 m 0,0,1
 871 621 871 621 849 586.5 c 128,-1,2
 827 552 827 552 795 532 c 128,-1,3
 763 512 763 512 726.5 503.5 c 128,-1,4
 690 495 690 495 661 495 c 1,5,-1
 824 304 l 1,6,7
 834 295 834 295 832.5 282.5 c 128,-1,8
 831 270 831 270 823.5 261 c 128,-1,9
 816 252 816 252 804 249.5 c 128,-1,10
 792 247 792 247 780 259 c 1,11,-1
 588 493 l 1,12,-1
 417 497 l 1,13,-1
 417 290 l 2,14,15
 417 271 417 271 406.5 261.5 c 128,-1,16
 396 252 396 252 383.5 252 c 128,-1,17
 371 252 371 252 360.5 261.5 c 128,-1,18
 350 271 350 271 350 290 c 2,19,-1
 350 830 l 2,20,21
 350 846 350 846 358 855.5 c 128,-1,22
 366 865 366 865 383 865 c 2,23,-1
 514 865 l 2,24,25
 589 865 589 865 654.5 862 c 128,-1,26
 720 859 720 859 768 841.5 c 128,-1,27
 816 824 816 824 843.5 785 c 128,-1,28
 871 746 871 746 871 674 c 0,0,1
806 674 m 0,29,30
 806 729 806 729 786.5 758 c 128,-1,31
 767 787 767 787 729.5 799.5 c 128,-1,32
 692 812 692 812 637.5 813.5 c 128,-1,33
 583 815 583 815 514 815 c 2,34,-1
 417 815 l 1,35,-1
 417 542 l 1,36,-1
 588 542 l 2,37,38
 630 542 630 542 669 544 c 128,-1,39
 708 546 708 546 738.5 558.5 c 128,-1,40
 769 571 769 571 787.5 597.5 c 128,-1,41
 806 624 806 624 806 674 c 0,29,30
1027 556 m 256,42,43
 1027 656 1027 656 988.5 731.5 c 128,-1,44
 950 807 950 807 887.5 857.5 c 128,-1,45
 825 908 825 908 745 933.5 c 128,-1,46
 665 959 665 959 581 959 c 256,47,48
 497 959 497 959 417 933.5 c 128,-1,49
 337 908 337 908 274.5 857.5 c 128,-1,50
 212 807 212 807 173.5 731.5 c 128,-1,51
 135 656 135 656 135 556 c 256,52,53
 135 456 135 456 173.5 380.5 c 128,-1,54
 212 305 212 305 274.5 254.5 c 128,-1,55
 337 204 337 204 417 178.5 c 128,-1,56
 497 153 497 153 581 153 c 256,57,58
 665 153 665 153 745 178.5 c 128,-1,59
 825 204 825 204 887.5 254.5 c 128,-1,60
 950 305 950 305 988.5 380.5 c 128,-1,61
 1027 456 1027 456 1027 556 c 256,42,43
1093 556 m 256,62,63
 1093 441 1093 441 1048.5 354 c 128,-1,64
 1004 267 1004 267 931.5 209 c 128,-1,65
 859 151 859 151 766.5 121.5 c 128,-1,66
 674 92 674 92 577 92 c 0,67,68
 481 92 481 92 388.5 121.5 c 128,-1,69
 296 151 296 151 223.5 209 c 128,-1,70
 151 267 151 267 106.5 354 c 128,-1,71
 62 441 62 441 62 556 c 256,72,73
 62 671 62 671 106.5 758 c 128,-1,74
 151 845 151 845 223.5 903 c 128,-1,75
 296 961 296 961 388.5 990.5 c 128,-1,76
 481 1020 481 1020 577 1020 c 0,77,78
 674 1020 674 1020 766.5 990.5 c 128,-1,79
 859 961 859 961 931.5 903 c 128,-1,80
 1004 845 1004 845 1048.5 758 c 128,-1,81
 1093 671 1093 671 1093 556 c 256,62,63
EndSplineSet
EndChar

StartChar: copyright
Encoding: 169 169 158
Width: 1155
Flags: W
HStem: 92 61<403.791 757.606> 241 60<432.021 730.919> 811 60<432.021 730.919> 959 61<403.791 757.606>
VStem: 62 73<384.988 727.012> 235 68<418.409 693.364> 1027 66<392.924 719.076>
LayerCount: 2
Fore
SplineSet
235 556 m 256,0,1
 235 639 235 639 263 698.5 c 128,-1,2
 291 758 291 758 337 796.5 c 128,-1,3
 383 835 383 835 443 853 c 128,-1,4
 503 871 503 871 568 871 c 0,5,6
 632 871 632 871 695.5 854.5 c 128,-1,7
 759 838 759 838 814 806 c 0,8,9
 828 798 828 798 828 782 c 0,10,11
 828 770 828 770 819.5 760 c 128,-1,12
 811 750 811 750 800 750 c 0,13,14
 792 750 792 750 787 754 c 0,15,16
 742 781 742 781 686 796 c 128,-1,17
 630 811 630 811 573 811 c 0,18,19
 521 811 521 811 472.5 797 c 128,-1,20
 424 783 424 783 386.5 752.5 c 128,-1,21
 349 722 349 722 326 673.5 c 128,-1,22
 303 625 303 625 303 556 c 256,23,24
 303 487 303 487 326 438.5 c 128,-1,25
 349 390 349 390 386.5 359.5 c 128,-1,26
 424 329 424 329 472.5 315 c 128,-1,27
 521 301 521 301 573 301 c 0,28,29
 630 301 630 301 686 316 c 128,-1,30
 742 331 742 331 787 358 c 0,31,32
 792 362 792 362 800 362 c 0,33,34
 811 362 811 362 819.5 352 c 128,-1,35
 828 342 828 342 828 330 c 0,36,37
 828 314 828 314 814 306 c 0,38,39
 759 274 759 274 695.5 257.5 c 128,-1,40
 632 241 632 241 568 241 c 0,41,42
 503 241 503 241 443 259 c 128,-1,43
 383 277 383 277 337 315 c 128,-1,44
 291 353 291 353 263 413 c 128,-1,45
 235 473 235 473 235 556 c 256,0,1
1027 556 m 256,46,47
 1027 656 1027 656 988.5 731.5 c 128,-1,48
 950 807 950 807 887.5 857.5 c 128,-1,49
 825 908 825 908 745 933.5 c 128,-1,50
 665 959 665 959 581 959 c 256,51,52
 497 959 497 959 417 933.5 c 128,-1,53
 337 908 337 908 274.5 857.5 c 128,-1,54
 212 807 212 807 173.5 731.5 c 128,-1,55
 135 656 135 656 135 556 c 256,56,57
 135 456 135 456 173.5 380.5 c 128,-1,58
 212 305 212 305 274.5 254.5 c 128,-1,59
 337 204 337 204 417 178.5 c 128,-1,60
 497 153 497 153 581 153 c 256,61,62
 665 153 665 153 745 178.5 c 128,-1,63
 825 204 825 204 887.5 254.5 c 128,-1,64
 950 305 950 305 988.5 380.5 c 128,-1,65
 1027 456 1027 456 1027 556 c 256,46,47
1093 556 m 256,66,67
 1093 441 1093 441 1048.5 354 c 128,-1,68
 1004 267 1004 267 931.5 209 c 128,-1,69
 859 151 859 151 766.5 121.5 c 128,-1,70
 674 92 674 92 577 92 c 0,71,72
 481 92 481 92 388.5 121.5 c 128,-1,73
 296 151 296 151 223.5 209 c 128,-1,74
 151 267 151 267 106.5 354 c 128,-1,75
 62 441 62 441 62 556 c 256,76,77
 62 671 62 671 106.5 758 c 128,-1,78
 151 845 151 845 223.5 903 c 128,-1,79
 296 961 296 961 388.5 990.5 c 128,-1,80
 481 1020 481 1020 577 1020 c 0,81,82
 674 1020 674 1020 766.5 990.5 c 128,-1,83
 859 961 859 961 931.5 903 c 128,-1,84
 1004 845 1004 845 1048.5 758 c 128,-1,85
 1093 671 1093 671 1093 556 c 256,66,67
EndSplineSet
EndChar

StartChar: trademark
Encoding: 8482 8482 159
Width: 1104
Flags: W
HStem: 734 75<772.5 847.5> 1045 65<57.2837 272 339 554.716>
VStem: 272 67<535.003 1045> 607 67<548.923 984> 946 67<548.923 984>
DStem2: 715 1039 674 984 0.38176 -0.924261<35.1822 248.847> 810 809 854.5 773.5 0.38176 0.924261<0 213.665>
LayerCount: 2
Fore
SplineSet
810 734 m 256,0,1
 796 734 796 734 787 741 c 128,-1,2
 778 748 778 748 765 773.5 c 128,-1,3
 752 799 752 799 731.5 848.5 c 128,-1,4
 711 898 711 898 674 984 c 1,5,-1
 674 580 l 2,6,7
 674 562 674 562 668.5 548.5 c 128,-1,8
 663 535 663 535 640 535 c 0,9,10
 626 535 626 535 619 539 c 128,-1,11
 612 543 612 543 609.5 549.5 c 128,-1,12
 607 556 607 556 607 564 c 128,-1,13
 607 572 607 572 607 580 c 2,14,-1
 607 1059 l 2,15,16
 607 1066 607 1066 609 1075 c 128,-1,17
 611 1084 611 1084 615.5 1091.5 c 128,-1,18
 620 1099 620 1099 628 1104.5 c 128,-1,19
 636 1110 636 1110 647 1110 c 0,20,21
 655 1110 655 1110 662.5 1108.5 c 128,-1,22
 670 1107 670 1107 678 1100.5 c 128,-1,23
 686 1094 686 1094 695 1079.5 c 128,-1,24
 704 1065 704 1065 715 1039 c 2,25,-1
 810 809 l 1,26,-1
 905 1039 l 2,27,28
 916 1065 916 1065 925 1079.5 c 128,-1,29
 934 1094 934 1094 942 1100.5 c 128,-1,30
 950 1107 950 1107 957.5 1108.5 c 128,-1,31
 965 1110 965 1110 973 1110 c 0,32,33
 984 1110 984 1110 992 1104.5 c 128,-1,34
 1000 1099 1000 1099 1004.5 1091.5 c 128,-1,35
 1009 1084 1009 1084 1011 1075 c 128,-1,36
 1013 1066 1013 1066 1013 1059 c 2,37,-1
 1013 580 l 2,38,39
 1013 572 1013 572 1013 564 c 128,-1,40
 1013 556 1013 556 1010.5 549.5 c 128,-1,41
 1008 543 1008 543 1001 539 c 128,-1,42
 994 535 994 535 980 535 c 0,43,44
 957 535 957 535 951.5 548.5 c 128,-1,45
 946 562 946 562 946 580 c 2,46,-1
 946 984 l 1,47,48
 909 898 909 898 888 848.5 c 128,-1,49
 867 799 867 799 854.5 773.5 c 128,-1,50
 842 748 842 748 833 741 c 128,-1,51
 824 734 824 734 810 734 c 256,0,1
339 1045 m 1,52,-1
 339 583 l 2,53,54
 339 558 339 558 335 546.5 c 128,-1,55
 331 535 331 535 306 535 c 0,56,57
 293 535 293 535 286 538 c 128,-1,58
 279 541 279 541 276 547 c 128,-1,59
 273 553 273 553 272.5 562 c 128,-1,60
 272 571 272 571 272 583 c 2,61,-1
 272 1045 l 1,62,-1
 82 1045 l 2,63,64
 65 1045 65 1045 56.5 1055 c 128,-1,65
 48 1065 48 1065 48 1076 c 0,66,67
 48 1089 48 1089 57 1099.5 c 128,-1,68
 66 1110 66 1110 85 1110 c 2,69,-1
 526 1110 l 2,70,71
 546 1110 546 1110 555 1099.5 c 128,-1,72
 564 1089 564 1089 564 1076 c 0,73,74
 564 1065 564 1065 555.5 1055 c 128,-1,75
 547 1045 547 1045 530 1045 c 2,76,-1
 339 1045 l 1,52,-1
EndSplineSet
EndChar

StartChar: acute
Encoding: 180 180 160
Width: 376
Flags: W
HStem: 46 331
VStem: 15 349
LayerCount: 2
Fore
SplineSet
275 366 m 2,0,1
 286 377 286 377 300 377 c 0,2,3
 311 377 311 377 322.5 371.5 c 128,-1,4
 334 366 334 366 343 357.5 c 128,-1,5
 352 349 352 349 358 338 c 128,-1,6
 364 327 364 327 364 316 c 0,7,8
 364 300 364 300 349 288 c 2,9,-1
 57 51 l 2,10,11
 51 46 51 46 42 46 c 0,12,13
 31 46 31 46 23 53.5 c 128,-1,14
 15 61 15 61 15 72 c 0,15,16
 15 82 15 82 23 90 c 2,17,-1
 275 366 l 2,0,1
EndSplineSet
EndChar

StartChar: AE
Encoding: 198 198 163
Width: 1399
Flags: W
HStem: -18 21G<61.5 76.5> 0 66<737 1370.81> 348 49<315 652> 540 61<737 1341.81> 1048 66<737 1368.81>
VStem: 652 85<66 348 397 540 601 1014>
DStem2: 55 63 175 119 0.480018 0.877259<-54.4636 364.743 417.809 1120.84>
LayerCount: 2
Fore
SplineSet
1377 35 m 0,0,1
 1377 20 1377 20 1371 13 c 128,-1,2
 1365 6 1365 6 1354.5 3 c 128,-1,3
 1344 0 1344 0 1331 0 c 128,-1,4
 1318 0 1318 0 1303 0 c 2,5,-1
 691 0 l 2,6,7
 676 0 676 0 668.5 0.5 c 128,-1,8
 661 1 661 1 657 4.5 c 128,-1,9
 653 8 653 8 652.5 15 c 128,-1,10
 652 22 652 22 652 35 c 2,11,-1
 652 348 l 1,12,-1
 294 348 l 1,13,14
 278 317 278 317 258.5 278 c 128,-1,15
 239 239 239 239 218 198.5 c 128,-1,16
 197 158 197 158 175 119 c 128,-1,17
 153 80 153 80 133.5 49.5 c 128,-1,18
 114 19 114 19 98 0.5 c 128,-1,19
 82 -18 82 -18 71 -18 c 0,20,21
 52 -18 52 -18 43 -7 c 128,-1,22
 34 4 34 4 34 12 c 0,23,24
 34 25 34 25 40.5 37 c 128,-1,25
 47 49 47 49 55 63 c 2,26,-1
 603 1065 l 2,27,28
 614 1084 614 1084 623 1098 c 128,-1,29
 632 1112 632 1112 644 1114 c 1,30,-1
 1301 1114 l 2,31,32
 1316 1114 1316 1114 1329 1114 c 128,-1,33
 1342 1114 1342 1114 1352.5 1111 c 128,-1,34
 1363 1108 1363 1108 1369 1101 c 128,-1,35
 1375 1094 1375 1094 1375 1079 c 0,36,37
 1375 1067 1375 1067 1369 1060.5 c 128,-1,38
 1363 1054 1363 1054 1352.5 1051 c 128,-1,39
 1342 1048 1342 1048 1329 1048 c 128,-1,40
 1316 1048 1316 1048 1301 1048 c 2,41,-1
 737 1048 l 1,42,-1
 737 601 l 1,43,-1
 1274 601 l 2,44,45
 1289 601 1289 601 1302 601 c 128,-1,46
 1315 601 1315 601 1325.5 599 c 128,-1,47
 1336 597 1336 597 1342 590.5 c 128,-1,48
 1348 584 1348 584 1348 572 c 0,49,50
 1348 557 1348 557 1342 550.5 c 128,-1,51
 1336 544 1336 544 1325.5 541.5 c 128,-1,52
 1315 539 1315 539 1302 539.5 c 128,-1,53
 1289 540 1289 540 1274 540 c 2,54,-1
 737 540 l 1,55,-1
 737 66 l 1,56,-1
 1303 66 l 2,57,58
 1318 66 1318 66 1331 66 c 128,-1,59
 1344 66 1344 66 1354.5 63 c 128,-1,60
 1365 60 1365 60 1371 53.5 c 128,-1,61
 1377 47 1377 47 1377 35 c 0,0,1
652 397 m 1,62,-1
 652 1014 l 1,63,-1
 315 397 l 1,64,-1
 652 397 l 1,62,-1
EndSplineSet
EndChar

StartChar: Oslash
Encoding: 216 216 164
Width: 1567
Flags: W
HStem: -21 66<547.938 1090.53> 1069 66<475.472 1020.66>
VStem: 49 85<316.593 797.165> 1433 85<316.593 797.165>
LayerCount: 2
Fore
SplineSet
576 -102 m 1,0,1
 565 -125 565 -125 557 -142 c 128,-1,2
 549 -159 549 -159 531 -159 c 0,3,4
 511 -159 511 -159 502.5 -148 c 128,-1,5
 494 -137 494 -137 494 -126 c 256,6,7
 494 -115 494 -115 497.5 -104.5 c 128,-1,8
 501 -94 501 -94 506 -81 c 2,9,-1
 718 479 l 1,10,-1
 996 1222 l 1,11,12
 1003 1245 1003 1245 1012.5 1262.5 c 128,-1,13
 1022 1280 1022 1280 1045 1280 c 0,14,15
 1064 1280 1064 1280 1071 1270.5 c 128,-1,16
 1078 1261 1078 1261 1078 1249 c 0,17,18
 1078 1238 1078 1238 1075.5 1226 c 128,-1,19
 1073 1214 1073 1214 1068 1202 c 2,20,-1
 576 -102 l 1,0,1
1518 557 m 256,21,22
 1518 411 1518 411 1474.5 302.5 c 128,-1,23
 1431 194 1431 194 1340.5 122 c 128,-1,24
 1250 50 1250 50 1111.5 14.5 c 128,-1,25
 973 -21 973 -21 783 -21 c 256,26,27
 593 -21 593 -21 454.5 14.5 c 128,-1,28
 316 50 316 50 226 122 c 128,-1,29
 136 194 136 194 92.5 302.5 c 128,-1,30
 49 411 49 411 49 557 c 256,31,32
 49 703 49 703 92.5 811.5 c 128,-1,33
 136 920 136 920 226 992 c 128,-1,34
 316 1064 316 1064 454.5 1099.5 c 128,-1,35
 593 1135 593 1135 783 1135 c 256,36,37
 973 1135 973 1135 1111.5 1099.5 c 128,-1,38
 1250 1064 1250 1064 1340.5 992 c 128,-1,39
 1431 920 1431 920 1474.5 811.5 c 128,-1,40
 1518 703 1518 703 1518 557 c 256,21,22
134 557 m 0,41,42
 134 417 134 417 174 320 c 128,-1,43
 214 223 214 223 294.5 161.5 c 128,-1,44
 375 100 375 100 497 72.5 c 128,-1,45
 619 45 619 45 783 45 c 256,46,47
 947 45 947 45 1069 72.5 c 128,-1,48
 1191 100 1191 100 1272 161.5 c 128,-1,49
 1353 223 1353 223 1393 320 c 128,-1,50
 1433 417 1433 417 1433 557 c 0,51,52
 1433 696 1433 696 1393 793.5 c 128,-1,53
 1353 891 1353 891 1272 952.5 c 128,-1,54
 1191 1014 1191 1014 1069 1041.5 c 128,-1,55
 947 1069 947 1069 783 1069 c 256,56,57
 619 1069 619 1069 497 1041.5 c 128,-1,58
 375 1014 375 1014 294.5 952.5 c 128,-1,59
 214 891 214 891 174 793.5 c 128,-1,60
 134 696 134 696 134 557 c 0,41,42
EndSplineSet
EndChar

StartChar: infinity
Encoding: 8734 8734 165
Width: 1751
Flags: W
HStem: 137 72<287.524 625.333 1124.48 1465.04> 766 72<288.234 626.352 1123.34 1463.38>
VStem: 76 73<337.661 637.112> 1603 72<337.661 637.112>
LayerCount: 2
Fore
SplineSet
1278 137 m 0,0,1
 1179 137 1179 137 1105.5 168.5 c 128,-1,2
 1032 200 1032 200 981 242 c 0,3,4
 952 265 952 265 925.5 292 c 128,-1,5
 899 319 899 319 876 348 c 0,6,7
 875 348 875 348 862.5 332.5 c 128,-1,8
 850 317 850 317 827 293.5 c 128,-1,9
 804 270 804 270 770 242.5 c 128,-1,10
 736 215 736 215 691.5 191.5 c 128,-1,11
 647 168 647 168 592 152.5 c 128,-1,12
 537 137 537 137 473 137 c 0,13,14
 378 137 378 137 304 162 c 128,-1,15
 230 187 230 187 179.5 233 c 128,-1,16
 129 279 129 279 102.5 343.5 c 128,-1,17
 76 408 76 408 76 487 c 256,18,19
 76 566 76 566 102.5 631 c 128,-1,20
 129 696 129 696 180.5 742 c 128,-1,21
 232 788 232 788 306.5 813 c 128,-1,22
 381 838 381 838 477 838 c 0,23,24
 524 838 524 838 566 829 c 128,-1,25
 608 820 608 820 645 805 c 128,-1,26
 682 790 682 790 713 771 c 128,-1,27
 744 752 744 752 770 731 c 0,28,29
 799 708 799 708 825 682 c 128,-1,30
 851 656 851 656 874 627 c 1,31,32
 874 627 874 627 886.5 642.5 c 128,-1,33
 899 658 899 658 923 681.5 c 128,-1,34
 947 705 947 705 981 732.5 c 128,-1,35
 1015 760 1015 760 1059.5 783.5 c 128,-1,36
 1104 807 1104 807 1157.5 822.5 c 128,-1,37
 1211 838 1211 838 1274 838 c 0,38,39
 1370 838 1370 838 1444.5 813 c 128,-1,40
 1519 788 1519 788 1570.5 742 c 128,-1,41
 1622 696 1622 696 1648.5 631 c 128,-1,42
 1675 566 1675 566 1675 487 c 256,43,44
 1675 408 1675 408 1648.5 343.5 c 128,-1,45
 1622 279 1622 279 1571.5 233 c 128,-1,46
 1521 187 1521 187 1447 162 c 128,-1,47
 1373 137 1373 137 1278 137 c 0,0,1
913 489 m 1,48,49
 947 411 947 411 999 348 c 0,50,51
 1021 321 1021 321 1049 296 c 128,-1,52
 1077 271 1077 271 1111.5 251.5 c 128,-1,53
 1146 232 1146 232 1187.5 220.5 c 128,-1,54
 1229 209 1229 209 1278 209 c 0,55,56
 1345 209 1345 209 1404.5 223.5 c 128,-1,57
 1464 238 1464 238 1508 271 c 128,-1,58
 1552 304 1552 304 1577.5 357 c 128,-1,59
 1603 410 1603 410 1603 487 c 0,60,61
 1603 565 1603 565 1577.5 618 c 128,-1,62
 1552 671 1552 671 1507.5 704 c 128,-1,63
 1463 737 1463 737 1403 751.5 c 128,-1,64
 1343 766 1343 766 1274 766 c 0,65,66
 1226 766 1226 766 1185 754.5 c 128,-1,67
 1144 743 1144 743 1110.5 723.5 c 128,-1,68
 1077 704 1077 704 1049 679 c 128,-1,69
 1021 654 1021 654 999 627 c 0,70,71
 973 596 973 596 951.5 562 c 128,-1,72
 930 528 930 528 913 489 c 1,48,49
840 489 m 1,73,74
 823 528 823 528 801.5 562 c 128,-1,75
 780 596 780 596 754 627 c 0,76,77
 731 654 731 654 702.5 679 c 128,-1,78
 674 704 674 704 639.5 723.5 c 128,-1,79
 605 743 605 743 564.5 754.5 c 128,-1,80
 524 766 524 766 477 766 c 0,81,82
 409 766 409 766 349 751.5 c 128,-1,83
 289 737 289 737 244.5 704 c 128,-1,84
 200 671 200 671 174.5 618 c 128,-1,85
 149 565 149 565 149 487 c 0,86,87
 149 410 149 410 174.5 357 c 128,-1,88
 200 304 200 304 244 271 c 128,-1,89
 288 238 288 238 347 223.5 c 128,-1,90
 406 209 406 209 473 209 c 0,91,92
 521 209 521 209 562.5 220.5 c 128,-1,93
 604 232 604 232 638.5 251.5 c 128,-1,94
 673 271 673 271 701 296 c 128,-1,95
 729 321 729 321 752 348 c 0,96,97
 778 379 778 379 800.5 414 c 128,-1,98
 823 449 823 449 840 489 c 1,73,74
EndSplineSet
EndChar

StartChar: plusminus
Encoding: 177 177 166
Width: 667
Flags: W
HStem: 0 54<14.7682 652.232> 457 54<14.7682 303 363 652.232> 755 20G<327 338.5>
VStem: 303 60<199.737 457 511 766.748>
LayerCount: 2
Fore
SplineSet
303 511 m 1,0,-1
 303 742 l 2,1,2
 303 759 303 759 312 767 c 128,-1,3
 321 775 321 775 333 775 c 0,4,5
 344 775 344 775 353.5 767 c 128,-1,6
 363 759 363 759 363 742 c 2,7,-1
 363 511 l 1,8,-1
 625 511 l 2,9,10
 644 511 644 511 652.5 502.5 c 128,-1,11
 661 494 661 494 661 483 c 0,12,13
 661 473 661 473 652.5 465 c 128,-1,14
 644 457 644 457 625 457 c 2,15,-1
 363 457 l 1,16,-1
 363 224 l 2,17,18
 363 207 363 207 353.5 199.5 c 128,-1,19
 344 192 344 192 333 192 c 0,20,21
 321 192 321 192 312 199.5 c 128,-1,22
 303 207 303 207 303 224 c 2,23,-1
 303 457 l 1,24,-1
 42 457 l 2,25,26
 23 457 23 457 14.5 465 c 128,-1,27
 6 473 6 473 6 483 c 0,28,29
 6 494 6 494 14.5 502.5 c 128,-1,30
 23 511 23 511 42 511 c 2,31,-1
 303 511 l 1,0,-1
625 54 m 2,32,33
 644 54 644 54 652.5 45.5 c 128,-1,34
 661 37 661 37 661 26 c 0,35,36
 661 16 661 16 652.5 8 c 128,-1,37
 644 0 644 0 625 0 c 2,38,-1
 42 0 l 2,39,40
 23 0 23 0 14.5 8 c 128,-1,41
 6 16 6 16 6 26 c 0,42,43
 6 37 6 37 14.5 45.5 c 128,-1,44
 23 54 23 54 42 54 c 2,45,-1
 625 54 l 2,32,33
EndSplineSet
EndChar

StartChar: yen
Encoding: 165 165 169
Width: 961
Flags: W
HStem: -6 549<206.5 755.5> 241 58<163.674 805.811> 380 58<165.674 807.811>
VStem: 50.5 69.5<1081 1099.75> 439 85<15.142 471> 842 68<1081 1100.23>
DStem2: 120 1081 65 1032 0.556072 -0.831134<-31.9558 647.892> 481 543 524 471 0.552642 0.833419<0 684.51>
LayerCount: 2
Fore
SplineSet
481 543 m 1,0,-1
 842 1081 l 2,1,2
 856 1102 856 1102 872 1105.5 c 128,-1,3
 888 1109 888 1109 898.5 1100.5 c 128,-1,4
 909 1092 909 1092 910 1073.5 c 128,-1,5
 911 1055 911 1055 896 1032 c 2,6,-1
 524 471 l 1,7,-1
 524 63 l 2,8,9
 524 34 524 34 516.5 14 c 128,-1,10
 509 -6 509 -6 484 -6 c 0,11,12
 455 -6 455 -6 447 14.5 c 128,-1,13
 439 35 439 35 439 61 c 2,14,-1
 439 473 l 1,15,-1
 65 1032 l 2,16,17
 49 1055 49 1055 50.5 1073.5 c 128,-1,18
 52 1092 52 1092 63 1100 c 128,-1,19
 74 1108 74 1108 90 1104.5 c 128,-1,20
 106 1101 106 1101 120 1081 c 2,21,-1
 481 543 l 1,0,-1
812 270 m 256,22,23
 812 259 812 259 806 250 c 128,-1,24
 800 241 800 241 787 241 c 2,25,-1
 182 241 l 2,26,27
 169 241 169 241 163.5 250 c 128,-1,28
 158 259 158 259 158 270 c 256,29,30
 158 281 158 281 163.5 290 c 128,-1,31
 169 299 169 299 182 299 c 2,32,-1
 787 299 l 2,33,34
 800 299 800 299 806 290 c 128,-1,35
 812 281 812 281 812 270 c 256,22,23
814 409 m 256,36,37
 814 398 814 398 808 389 c 128,-1,38
 802 380 802 380 789 380 c 2,39,-1
 184 380 l 2,40,41
 171 380 171 380 165.5 389 c 128,-1,42
 160 398 160 398 160 409 c 256,43,44
 160 420 160 420 165.5 429 c 128,-1,45
 171 438 171 438 184 438 c 2,46,-1
 789 438 l 2,47,48
 802 438 802 438 808 429 c 128,-1,49
 814 420 814 420 814 409 c 256,36,37
EndSplineSet
EndChar

StartChar: uni00B5
Encoding: 181 181 170
AltUni2: 0003bc.ffffffff.0
Width: 999
Flags: W
HStem: -10 59<287.829 675.428> 746 20G<121.5 135.5 910.5 924.5>
VStem: 88 80<-208.264 -10.5076 137.72 765.998> 880 80<0.0366211 135 151.516 765.922>
LayerCount: 2
Fore
SplineSet
168 -186 m 2,0,1
 169 -201 169 -201 157 -208.5 c 128,-1,2
 145 -216 145 -216 129.5 -216 c 128,-1,3
 114 -216 114 -216 101 -208.5 c 128,-1,4
 88 -201 88 -201 88 -186 c 2,5,-1
 88 694 l 2,6,7
 88 707 88 707 89.5 720 c 128,-1,8
 91 733 91 733 95 743 c 128,-1,9
 99 753 99 753 107 759.5 c 128,-1,10
 115 766 115 766 128 766 c 0,11,12
 143 766 143 766 151 759.5 c 128,-1,13
 159 753 159 753 162.5 743 c 128,-1,14
 166 733 166 733 167 720 c 128,-1,15
 168 707 168 707 168 694 c 2,16,-1
 168 348 l 2,17,18
 168 264 168 264 182 207 c 128,-1,19
 196 150 196 150 231.5 115 c 128,-1,20
 267 80 267 80 328.5 64.5 c 128,-1,21
 390 49 390 49 486 49 c 0,22,23
 573 49 573 49 644.5 69 c 128,-1,24
 716 89 716 89 769 113 c 0,25,26
 831 141 831 141 880 178 c 1,27,-1
 880 694 l 2,28,29
 880 707 880 707 881 720 c 128,-1,30
 882 733 882 733 885.5 743 c 128,-1,31
 889 753 889 753 896.5 759.5 c 128,-1,32
 904 766 904 766 917 766 c 0,33,34
 932 766 932 766 940.5 759.5 c 128,-1,35
 949 753 949 753 953.5 743 c 128,-1,36
 958 733 958 733 959 720 c 128,-1,37
 960 707 960 707 960 694 c 2,38,-1
 960 70 l 2,39,40
 960 57 960 57 958.5 44.5 c 128,-1,41
 957 32 957 32 953 22 c 128,-1,42
 949 12 949 12 941.5 6 c 128,-1,43
 934 0 934 0 922 0 c 0,44,45
 907 0 907 0 898.5 6 c 128,-1,46
 890 12 890 12 885.5 22 c 128,-1,47
 881 32 881 32 880 44.5 c 128,-1,48
 879 57 879 57 879 70 c 2,49,-1
 880 135 l 1,50,51
 878 133 878 133 867 121.5 c 128,-1,52
 856 110 856 110 835 94 c 128,-1,53
 814 78 814 78 782 60 c 128,-1,54
 750 42 750 42 707 26.5 c 128,-1,55
 664 11 664 11 608.5 0.5 c 128,-1,56
 553 -10 553 -10 486 -10 c 0,57,58
 421 -10 421 -10 364 -2.5 c 128,-1,59
 307 5 307 5 261.5 24.5 c 128,-1,60
 216 44 216 44 184.5 79 c 128,-1,61
 153 114 153 114 139 169 c 1,62,-1
 168 -186 l 2,0,1
EndSplineSet
EndChar

StartChar: partialdiff
Encoding: 8706 8706 171
Width: 990
Flags: W
HStem: -20 69<221.912 617.187> 557 70<234.375 802.075> 1065 69<480.926 728.875>
VStem: 21 77<147.793 435.77> 845 77<580.499 951.762>
DStem2: 834 579 909 557 0.0971 0.995275<-332.558 -49.796 0 168.148>
LayerCount: 2
Fore
SplineSet
909 557 m 0,0,1
 890 396 890 396 855 285.5 c 128,-1,2
 820 175 820 175 762.5 107 c 128,-1,3
 705 39 705 39 621.5 9.5 c 128,-1,4
 538 -20 538 -20 422 -20 c 0,5,6
 311 -20 311 -20 234 3 c 128,-1,7
 157 26 157 26 110 64 c 128,-1,8
 63 102 63 102 42 152.5 c 128,-1,9
 21 203 21 203 21 259 c 0,10,11
 21 269 21 269 21 278.5 c 128,-1,12
 21 288 21 288 23 298 c 0,13,14
 35 397 35 397 71 461 c 128,-1,15
 107 525 107 525 167.5 561.5 c 128,-1,16
 228 598 228 598 314 612.5 c 128,-1,17
 400 627 400 627 511 627 c 0,18,19
 604 627 604 627 665.5 619.5 c 128,-1,20
 727 612 727 612 765 603 c 0,21,22
 809 592 809 592 834 579 c 1,23,24
 839 627 839 627 842 669.5 c 128,-1,25
 845 712 845 712 845 748 c 0,26,27
 845 854 845 854 822.5 917 c 128,-1,28
 800 980 800 980 757 1013 c 128,-1,29
 714 1046 714 1046 653 1055.5 c 128,-1,30
 592 1065 592 1065 516 1065 c 0,31,32
 493 1065 493 1065 480 1076 c 128,-1,33
 467 1087 467 1087 467 1100 c 256,34,35
 467 1113 467 1113 480.5 1123.5 c 128,-1,36
 494 1134 494 1134 524 1134 c 0,37,38
 636 1134 636 1134 712.5 1113 c 128,-1,39
 789 1092 789 1092 835.5 1047 c 128,-1,40
 882 1002 882 1002 902 930.5 c 128,-1,41
 922 859 922 859 922 759 c 0,42,43
 922 714 922 714 919 664 c 128,-1,44
 916 614 916 614 909 557 c 0,0,1
828 526 m 1,45,46
 791 534 791 534 743 541 c 0,47,48
 701 547 701 547 641 552 c 128,-1,49
 581 557 581 557 503 557 c 0,50,51
 409 557 409 557 338 549.5 c 128,-1,52
 267 542 267 542 217.5 516 c 128,-1,53
 168 490 168 490 139 440.5 c 128,-1,54
 110 391 110 391 100 306 c 0,55,56
 98 297 98 297 98 288 c 128,-1,57
 98 279 98 279 98 270 c 0,58,59
 98 226 98 226 113.5 186.5 c 128,-1,60
 129 147 129 147 166.5 116 c 128,-1,61
 204 85 204 85 267 67 c 128,-1,62
 330 49 330 49 426 49 c 256,63,64
 522 49 522 49 591 72.5 c 128,-1,65
 660 96 660 96 707 151 c 128,-1,66
 754 206 754 206 783 297.5 c 128,-1,67
 812 389 812 389 828 526 c 1,45,46
EndSplineSet
EndChar

StartChar: summation
Encoding: 8721 8721 172
Width: 904
Flags: W
HStem: 0 66<162 896.811> 1048 66<162 894.811>
DStem2: 162 1048 77 1057 0.519837 -0.854265<0 525.229> 77 55 162 66 0.50776 0.861499<52.6361 590.831>
LayerCount: 2
Fore
SplineSet
903 35 m 0,0,1
 903 20 903 20 897 13 c 128,-1,2
 891 6 891 6 880.5 3 c 128,-1,3
 870 0 870 0 857 0 c 128,-1,4
 844 0 844 0 829 0 c 2,5,-1
 116 0 l 2,6,7
 87 0 87 0 82 14.5 c 128,-1,8
 77 29 77 29 77 55 c 1,9,-1
 377 564 l 1,10,-1
 77 1057 l 1,11,12
 77 1086 77 1086 81 1100 c 128,-1,13
 85 1114 85 1114 114 1114 c 2,14,-1
 827 1114 l 2,15,16
 842 1114 842 1114 855 1114 c 128,-1,17
 868 1114 868 1114 878.5 1111 c 128,-1,18
 889 1108 889 1108 895 1101 c 128,-1,19
 901 1094 901 1094 901 1079 c 0,20,21
 901 1067 901 1067 895 1060.5 c 128,-1,22
 889 1054 889 1054 878.5 1051 c 128,-1,23
 868 1048 868 1048 855 1048 c 128,-1,24
 842 1048 842 1048 827 1048 c 2,25,-1
 162 1048 l 1,26,-1
 455 591 l 1,27,-1
 455 550 l 1,28,-1
 162 66 l 1,29,-1
 829 66 l 2,30,31
 844 66 844 66 857 66 c 128,-1,32
 870 66 870 66 880.5 63 c 128,-1,33
 891 60 891 60 897 53.5 c 128,-1,34
 903 47 903 47 903 35 c 0,0,1
EndSplineSet
EndChar

StartChar: product
Encoding: 8719 8719 173
Width: 1155
Flags: W
HStem: 92 61<403.791 757.606> 497 45<417 749.793> 815 50<417 750.983> 959 61<403.791 757.606>
VStem: 62 73<384.988 727.012> 350 67<261.799 497 542 815> 806 65<581.404 765.233> 1027 66<392.924 719.076>
LayerCount: 2
Fore
SplineSet
417 497 m 1,0,-1
 417 290 l 2,1,2
 417 271 417 271 406.5 261.5 c 128,-1,3
 396 252 396 252 383.5 252 c 128,-1,4
 371 252 371 252 360.5 261.5 c 128,-1,5
 350 271 350 271 350 290 c 2,6,-1
 350 830 l 2,7,8
 350 846 350 846 358 855.5 c 128,-1,9
 366 865 366 865 383 865 c 2,10,-1
 514 865 l 2,11,12
 589 865 589 865 654.5 862 c 128,-1,13
 720 859 720 859 768 841.5 c 128,-1,14
 816 824 816 824 843.5 785 c 128,-1,15
 871 746 871 746 871 674 c 0,16,17
 871 621 871 621 851 586.5 c 128,-1,18
 831 552 831 552 794.5 531 c 128,-1,19
 758 510 758 510 705.5 501.5 c 128,-1,20
 653 493 653 493 588 493 c 1,21,-1
 417 497 l 1,0,-1
806 674 m 0,22,23
 806 729 806 729 786.5 758 c 128,-1,24
 767 787 767 787 729.5 799.5 c 128,-1,25
 692 812 692 812 637.5 813.5 c 128,-1,26
 583 815 583 815 514 815 c 2,27,-1
 417 815 l 1,28,-1
 417 542 l 1,29,-1
 588 542 l 2,30,31
 630 542 630 542 669 544 c 128,-1,32
 708 546 708 546 738.5 558.5 c 128,-1,33
 769 571 769 571 787.5 597.5 c 128,-1,34
 806 624 806 624 806 674 c 0,22,23
1027 556 m 256,35,36
 1027 656 1027 656 988.5 731.5 c 128,-1,37
 950 807 950 807 887.5 857.5 c 128,-1,38
 825 908 825 908 745 933.5 c 128,-1,39
 665 959 665 959 581 959 c 256,40,41
 497 959 497 959 417 933.5 c 128,-1,42
 337 908 337 908 274.5 857.5 c 128,-1,43
 212 807 212 807 173.5 731.5 c 128,-1,44
 135 656 135 656 135 556 c 256,45,46
 135 456 135 456 173.5 380.5 c 128,-1,47
 212 305 212 305 274.5 254.5 c 128,-1,48
 337 204 337 204 417 178.5 c 128,-1,49
 497 153 497 153 581 153 c 256,50,51
 665 153 665 153 745 178.5 c 128,-1,52
 825 204 825 204 887.5 254.5 c 128,-1,53
 950 305 950 305 988.5 380.5 c 128,-1,54
 1027 456 1027 456 1027 556 c 256,35,36
1093 556 m 256,55,56
 1093 441 1093 441 1048.5 354 c 128,-1,57
 1004 267 1004 267 931.5 209 c 128,-1,58
 859 151 859 151 766.5 121.5 c 128,-1,59
 674 92 674 92 577 92 c 0,60,61
 481 92 481 92 388.5 121.5 c 128,-1,62
 296 151 296 151 223.5 209 c 128,-1,63
 151 267 151 267 106.5 354 c 128,-1,64
 62 441 62 441 62 556 c 256,65,66
 62 671 62 671 106.5 758 c 128,-1,67
 151 845 151 845 223.5 903 c 128,-1,68
 296 961 296 961 388.5 990.5 c 128,-1,69
 481 1020 481 1020 577 1020 c 0,70,71
 674 1020 674 1020 766.5 990.5 c 128,-1,72
 859 961 859 961 931.5 903 c 128,-1,73
 1004 845 1004 845 1048.5 758 c 128,-1,74
 1093 671 1093 671 1093 556 c 256,55,56
EndSplineSet
EndChar

StartChar: pi
Encoding: 960 960 174
Width: 1206
Flags: W
HStem: 0 21G<234.5 248.5 955.5 970.5> 1044 70<57.0015 205 277 926 999 1142.3>
VStem: 205 72<6.7041 1044> 926 73<6.7041 1044>
LayerCount: 2
Fore
SplineSet
1075 1114 m 2,0,1
 1088 1114 1088 1114 1101.5 1113.5 c 128,-1,2
 1115 1113 1115 1113 1125.5 1109.5 c 128,-1,3
 1136 1106 1136 1106 1142.5 1099 c 128,-1,4
 1149 1092 1149 1092 1149 1079 c 256,5,6
 1149 1066 1149 1066 1142 1059 c 128,-1,7
 1135 1052 1135 1052 1124.5 1048.5 c 128,-1,8
 1114 1045 1114 1045 1100.5 1044.5 c 128,-1,9
 1087 1044 1087 1044 1075 1044 c 2,10,-1
 999 1044 l 1,11,-1
 999 70 l 2,12,13
 999 58 999 58 999 45.5 c 128,-1,14
 999 33 999 33 996 23 c 128,-1,15
 993 13 993 13 985.5 6.5 c 128,-1,16
 978 0 978 0 963 0 c 256,17,18
 948 0 948 0 940.5 6.5 c 128,-1,19
 933 13 933 13 930 23.5 c 128,-1,20
 927 34 927 34 926.5 46 c 128,-1,21
 926 58 926 58 926 70 c 2,22,-1
 926 1044 l 1,23,-1
 277 1044 l 1,24,-1
 277 70 l 2,25,26
 277 58 277 58 276.5 45.5 c 128,-1,27
 276 33 276 33 272.5 23 c 128,-1,28
 269 13 269 13 262 6.5 c 128,-1,29
 255 0 255 0 242 0 c 0,30,31
 227 0 227 0 219.5 6.5 c 128,-1,32
 212 13 212 13 209 23.5 c 128,-1,33
 206 34 206 34 205.5 46 c 128,-1,34
 205 58 205 58 205 70 c 2,35,-1
 205 1044 l 1,36,-1
 129 1044 l 2,37,38
 114 1044 114 1044 101 1044.5 c 128,-1,39
 88 1045 88 1045 78.5 1048.5 c 128,-1,40
 69 1052 69 1052 63 1059 c 128,-1,41
 57 1066 57 1066 57 1079 c 256,42,43
 57 1092 57 1092 63 1099 c 128,-1,44
 69 1106 69 1106 78.5 1109.5 c 128,-1,45
 88 1113 88 1113 101 1113.5 c 128,-1,46
 114 1114 114 1114 129 1114 c 2,47,-1
 1075 1114 l 2,0,1
EndSplineSet
EndChar

StartChar: integral
Encoding: 8747 8747 175
Width: 517
Flags: W
HStem: -118 64<19.2522 146.722> 1045 64<359.686 500.748>
VStem: 223 74<27.0859 987.207>
LayerCount: 2
Fore
SplineSet
223 729 m 1,0,1
 222 818 222 818 229.5 888.5 c 128,-1,2
 237 959 237 959 263 1008 c 128,-1,3
 289 1057 289 1057 339.5 1083 c 128,-1,4
 390 1109 390 1109 476 1109 c 0,5,6
 493 1109 493 1109 501 1099 c 128,-1,7
 509 1089 509 1089 509 1077 c 256,8,9
 509 1065 509 1065 501 1055 c 128,-1,10
 493 1045 493 1045 476 1045 c 0,11,12
 418 1045 418 1045 382.5 1028 c 128,-1,13
 347 1011 347 1011 327.5 978 c 128,-1,14
 308 945 308 945 301.5 897.5 c 128,-1,15
 295 850 295 850 296 790 c 2,16,-1
 297 354 l 2,17,18
 298 255 298 255 291 169 c 128,-1,19
 284 83 284 83 257.5 19 c 128,-1,20
 231 -45 231 -45 180 -81.5 c 128,-1,21
 129 -118 129 -118 44 -118 c 0,22,23
 27 -118 27 -118 19 -108 c 128,-1,24
 11 -98 11 -98 11 -86 c 256,25,26
 11 -74 11 -74 19 -64 c 128,-1,27
 27 -54 27 -54 44 -54 c 0,28,29
 102 -54 102 -54 137.5 -29.5 c 128,-1,30
 173 -5 173 -5 192.5 39 c 128,-1,31
 212 83 212 83 218 143 c 128,-1,32
 224 203 224 203 223 275 c 1,33,-1
 223 729 l 1,0,1
EndSplineSet
EndChar

StartChar: uni2126
Encoding: 8486 8486 178
Width: 1184
Flags: W
HStem: 0 66<67.8304 271.279 912.721 1116.17> 1025 85<392.686 791.042>
VStem: 120 67<365.911 788.783> 997 67<365.911 788.783>
LayerCount: 2
Fore
SplineSet
592 1110 m 0,0,1
 710 1110 710 1110 799 1070.5 c 128,-1,2
 888 1031 888 1031 946.5 962 c 128,-1,3
 1005 893 1005 893 1034.5 799.5 c 128,-1,4
 1064 706 1064 706 1064 599 c 0,5,6
 1064 472 1064 472 1023.5 335.5 c 128,-1,7
 983 199 983 199 902 66 c 1,8,-1
 1086 66 l 2,9,10
 1106 66 1106 66 1116.5 55.5 c 128,-1,11
 1127 45 1127 45 1127 33 c 0,12,13
 1127 20 1127 20 1116.5 10 c 128,-1,14
 1106 0 1106 0 1086 0 c 1,15,-1
 808 23 l 1,16,17
 902 178 902 178 949.5 318.5 c 128,-1,18
 997 459 997 459 997 592 c 0,19,20
 997 686 997 686 972 765.5 c 128,-1,21
 947 845 947 845 897 902.5 c 128,-1,22
 847 960 847 960 770.5 992.5 c 128,-1,23
 694 1025 694 1025 592 1025 c 256,24,25
 490 1025 490 1025 413.5 992.5 c 128,-1,26
 337 960 337 960 287 902.5 c 128,-1,27
 237 845 237 845 212 765.5 c 128,-1,28
 187 686 187 686 187 592 c 0,29,30
 187 459 187 459 234.5 318.5 c 128,-1,31
 282 178 282 178 376 23 c 1,32,-1
 98 0 l 1,33,34
 78 0 78 0 67.5 10 c 128,-1,35
 57 20 57 20 57 33 c 0,36,37
 57 45 57 45 67.5 55.5 c 128,-1,38
 78 66 78 66 98 66 c 2,39,-1
 282 66 l 1,40,41
 201 199 201 199 160.5 335.5 c 128,-1,42
 120 472 120 472 120 599 c 0,43,44
 120 706 120 706 149.5 799.5 c 128,-1,45
 179 893 179 893 237.5 962 c 128,-1,46
 296 1031 296 1031 384.5 1070.5 c 128,-1,47
 473 1110 473 1110 592 1110 c 0,0,1
EndSplineSet
EndChar

